<?xml version="1.0" encoding="UTF-8"?>
<svg width="100pt" height="100pt" version="1.1" viewBox="0 0 100 100" xmlns="http://www.w3.org/2000/svg">
 <g>
  <path d="m62.648 14.41c-7.3945-0.625-14.652 2.0312-19.906 7.2852-3.8086 3.8086-6.2695 8.75-7.0664 14.055-5.2812 0.78516-10.227 3.2344-14.086 7.0977-4.1914 4.1914-6.7734 9.7539-7.2734 15.668-0.5625 6.6953 1.5117 13.211 5.8477 18.348 4.3359 5.1367 10.414 8.2734 17.105 8.8359 7.3984 0.62891 14.656-2.0273 19.91-7.2852 3.8047-3.8047 6.2656-8.75 7.0625-14.055 5.2812-0.78516 10.227-3.2344 14.086-7.0977 4.1875-4.1875 6.7734-9.7539 7.2734-15.672 1.168-13.82-9.1289-26.012-22.953-27.18zm-7.0859 62.371c-4.5977 4.5977-11.109 7.2109-18.094 6.6211-12.582-1.0586-21.918-12.117-20.859-24.699 0.47266-5.5938 2.9219-10.551 6.6055-14.23 3.2734-3.2734 7.5273-5.5156 12.227-6.3359-0.34766 6.4258 1.707 12.637 5.875 17.574 4.332 5.1328 10.41 8.2734 17.105 8.8359 1.1641 0.10156 2.3281 0.10547 3.4805 0.046875-0.83203 4.7539-3.1133 8.9609-6.3398 12.188zm6.6172-14.535c-1.1719 0.082031-2.3555 0.10938-3.5625 0.007812-12.48-1.0508-21.754-11.945-20.867-24.398 1.168-0.082031 2.3516-0.10938 3.5586-0.007813 12.48 1.0547 21.754 11.945 20.871 24.398zm21.137-20.848c-0.47266 5.5977-2.9258 10.555-6.6055 14.238-3.2734 3.2734-7.5312 5.5156-12.227 6.3359 0.72266-13.504-9.4219-25.27-22.984-26.414-1.1641-0.097656-2.3242-0.10547-3.4766-0.042969 0.83203-4.7578 3.1133-8.9648 6.3398-12.191 4.5977-4.5977 11.109-7.2109 18.09-6.6211 12.582 1.0586 21.922 12.113 20.863 24.695z"/>
  <path d="m49.383 64.734c-1.6758-0.73828-3.2734-1.6445-4.7734-2.707-0.92578-0.65625-1.8164-1.3672-2.6602-2.1445-0.85938-0.78906-1.6914-1.6133-2.4609-2.5156-0.019531-0.023438-0.042969-0.042969-0.0625-0.066407-0.54297-0.64062-1.043-1.3086-1.5195-1.9883-0.55078-0.78516-1.0469-1.6016-1.5078-2.4336-0.36328-0.65625-0.69922-1.3242-1.0078-2.0078-0.35547-0.78125-0.67188-1.5781-0.94922-2.3906-0.22266-0.64844-0.41797-1.3047-0.59375-1.9688-0.20312-0.77344-0.37109-1.5586-0.50781-2.3477-0.10938-0.64453-0.19531-1.293-0.25781-1.9453-0.03125-0.3125-0.078125-0.62109-0.097656-0.93359-0.66797 0.21875-1.3164 0.47656-1.957 0.76172-1.0547 0.46875-2.0625 1.0273-3.0195 1.6719-0.92187 0.61719-1.793 1.3164-2.6094 2.0859-0.14844 0.14062-0.29688 0.27344-0.44141 0.41797-0.4375 0.4375-0.84766 0.89062-1.2383 1.3594-0.57422 0.6875-1.0859 1.4219-1.5625 2.1797-0.375 0.59375-0.71875 1.2031-1.0312 1.832-0.35938 0.72266-0.68359 1.4648-0.95312 2.2266-0.21875 0.61328-0.40234 1.2383-0.55859 1.875-0.1875 0.74609-0.32422 1.5078-0.42578 2.2734-0.039062 0.31641-0.09375 0.62891-0.12109 0.94531-0.027344 0.32031-0.023437 0.64063-0.035156 0.96094-0.03125 0.77344-0.019531 1.5469 0.039062 2.3086 0.050782 0.65234 0.12891 1.3008 0.23828 1.9414 0.13672 0.79688 0.3125 1.582 0.54297 2.3516 0.19922 0.67188 0.43359 1.3359 0.70313 1.9844 0.34375 0.82812 0.75391 1.6289 1.207 2.4062 0.41016 0.70312 0.87109 1.3789 1.3711 2.0391 0.22266 0.29297 0.42969 0.59375 0.67188 0.87891 0.48437 0.57031 1 1.1055 1.5352 1.6172 0.83594 0.79688 1.7305 1.5117 2.6758 2.1445 1.9648 1.3242 4.1445 2.2812 6.4648 2.8516 1.043 0.25781 2.1016 0.45312 3.1914 0.54687 1.0625 0.089844 2.1211 0.066407 3.168-0.007812 2.3906-0.17188 4.7148-0.75391 6.8828-1.7305 1.0469-0.46875 2.0547-1.0234 3.0117-1.668 0.91797-0.61719 1.7891-1.3164 2.6094-2.0859 0.15234-0.14453 0.31641-0.26953 0.46484-0.41406 0.43359-0.43359 0.82422-0.89844 1.2148-1.3672 0.58203-0.69141 1.1211-1.4102 1.6016-2.168 0.375-0.59375 0.71094-1.2109 1.0195-1.8359 0.35938-0.72266 0.67578-1.4648 0.94141-2.2266 0.046874-0.13281 0.10937-0.26172 0.15625-0.39453-0.17969-0.011719-0.35547-0.023437-0.53125-0.039063-3.0938-0.26172-6.0625-1.0547-8.8281-2.2734z"/>
  <path d="m43.816 51.051l11.133-3.5117c-0.60547-0.72266-1.2578-1.4102-1.9609-2.0469l-10.527 3.3203c0.40234 0.77734 0.85547 1.5234 1.3555 2.2383z"/>
  <path d="m47.914 42.133l-7.1289 2.25c0.20703 0.82813 0.46875 1.6328 0.77734 2.418l9.3477-2.9492c-0.94922-0.65234-1.9453-1.2305-2.9961-1.7188z"/>
  <path d="m41.102 40.309c-0.30078-0.023438-0.60547-0.042969-0.92578-0.050782 0.023438 0.66016 0.085938 1.3164 0.17578 1.9648l4.1641-1.3125c-1.1055-0.29297-2.2422-0.5-3.4141-0.60156z"/>
  <path d="m58.824 59.797c0.30078 0.023437 0.60547 0.042969 0.92578 0.050781-0.019531-0.52344-0.074219-1.043-0.13281-1.5586l-3.4414 1.0859c0.86328 0.1875 1.7422 0.34375 2.6484 0.42188z"/>
  <path d="m52.566 58.215l6.6836-2.1094c-0.19141-0.83203-0.44922-1.6367-0.74219-2.4297l-9.0664 2.8594c0.98438 0.64453 2.0273 1.207 3.125 1.6797z"/>
  <path d="m47.281 54.918l10.355-3.2656c-0.38672-0.77734-0.80469-1.5352-1.2812-2.2578l-11.098 3.5c0.62891 0.71875 1.3008 1.3984 2.0234 2.0234z"/>
 </g>
</svg>
