<?xml version="1.0" encoding="UTF-8" standalone="no"?>
<svg
   xmlns:dc="http://purl.org/dc/elements/1.1/"
   xmlns:cc="http://creativecommons.org/ns#"
   xmlns:rdf="http://www.w3.org/1999/02/22-rdf-syntax-ns#"
   xmlns:svg="http://www.w3.org/2000/svg"
   xmlns="http://www.w3.org/2000/svg"
   xmlns:sodipodi="http://sodipodi.sourceforge.net/DTD/sodipodi-0.dtd"
   xmlns:inkscape="http://www.inkscape.org/namespaces/inkscape"
   width="103.99863pt"
   height="104.00275pt"
   version="1.1"
   viewBox="0 0 103.99863 104.00276"
   id="svg12"
   sodipodi:docname="np_caliper_3138763_000000.svg"
   inkscape:version="1.0.2 (e86c8708, 2021-01-15)">
  <metadata
     id="metadata18">
    <rdf:RDF>
      <cc:Work
         rdf:about="">
        <dc:format>image/svg+xml</dc:format>
        <dc:type
           rdf:resource="http://purl.org/dc/dcmitype/StillImage" />
        <dc:title></dc:title>
      </cc:Work>
    </rdf:RDF>
  </metadata>
  <defs
     id="defs16" />
  <sodipodi:namedview
     pagecolor="#ffffff"
     bordercolor="#666666"
     borderopacity="1"
     objecttolerance="10"
     gridtolerance="10"
     guidetolerance="10"
     inkscape:pageopacity="0"
     inkscape:pageshadow="2"
     inkscape:window-width="1249"
     inkscape:window-height="870"
     id="namedview14"
     showgrid="false"
     fit-margin-top="2"
     fit-margin-left="2"
     fit-margin-right="2"
     fit-margin-bottom="2"
     inkscape:zoom="4.7739124"
     inkscape:cx="69.332418"
     inkscape:cy="69.335164"
     inkscape:window-x="0"
     inkscape:window-y="25"
     inkscape:window-maximized="0"
     inkscape:current-layer="svg12" />
  <path
     d="M 48.19485,2 C 48.12844,2 48.06204,2.00391 47.99563,2.00781 47.5386,2.054685 47.11282,2.25 46.78083,2.5625 l -5.1406,4.8125 h 0.0039 c -0.42188,0.39453 -0.66016,0.94531 -0.66016,1.5234 0,0.57422 0.23828,1.125001 0.66016,1.519501 l 18.898,17.687998 -7.2188,6.7617 -19.09,-17.879 c -0.41016,-0.39062 -0.96094,-0.59766 -1.5273,-0.57031 -0.49219,0.02734 -0.96094,0.22656 -1.3203,0.57031 l -5.1211,4.7969 c -0.60547,0.5625 -0.82422,1.4297 -0.55078,2.2109 l 9.7539,27.602 -7.3164,6.8516 c -0.12891,0.09766 -0.24609,0.20703 -0.35156,0.33203 l -6.4219,6.0117 c -0.19922,0.132811 -0.375,0.29688 -0.51953,0.48438 0,0.0039 -0.0039,0.0078 -0.0039,0.0078 l -6.3633,5.960899 c -0.14844,0.10547 -0.28125,0.23047 -0.39453,0.36719 l -6.4062,6 c -0.18359,0.125 -0.35156,0.27734 -0.48828,0.45703 l -3.1719,2.9727 c -2.707,2.539101 -2.707,6.918001 0,9.457001 l 10.258,9.597701 c 2.707,2.5391 6.9805,2.5391 9.6875,0 l 32.484,-30.418001 h 0.0039 c 0.0039,0 0.0039,0 0.0039,-0.0039 l 5.4141,-5.0781 8.8281,8.2773 c 0.63281,0.58984 1.5625,0.722661 2.3398,0.33984 0.77344,-0.38281 1.2344,-1.2031 1.1523,-2.0664 l -1.6172,-16.582 8.8594,-8.3008 18.344,1.1406 c 0.87891,0.05469 1.6953,-0.44922 2.043,-1.2539 0.34375,-0.80859 0.14844,-1.7461 -0.49219,-2.3477 l -8.625,-8.0898 3.0586,-2.8711 c 2.707,-2.5391 2.707,-6.9219 0,-9.4609 l -10.258,-9.6094 c -0.21484,-0.20313 -0.47266,-0.35547 -0.75,-0.44922 l -3.8125,-1.2891 c -0.01953,-0.0078 -0.03516,-0.01172 -0.05078,-0.01563 L 48.81118,2.09832 C 48.61196,2.03582 48.40102,2.000664 48.19399,2.000664 Z m 0.53906,4.4336 30.91,9.5508 3.3672,1.1562 9.918,9.2891 c 1.0781,1.0117 1.0781,2.3516 0,3.3633 l -4.6914,4.3984 v 0.0039 c -0.42188,0.39453 -0.66406,0.94531 -0.66406,1.5234 0,0.57809 0.24219,1.1289 0.66406,1.5234 l 6.0312,5.6562 -13.457,-0.84375 c -0.57031,-0.03516 -1.1328,0.16406 -1.5547,0.55469 l -8.8398,8.2734 -14.043,-13.164 8.625,-8.0898 c 0.41797,-0.39453 0.65625,-0.94141 0.65625,-1.5156 0,-0.57419 -0.23828,-1.1211 -0.65625,-1.5156 l -18.883,-17.699 z m -15.918,14.918 19.027,17.832 0.05859,0.05859 16.516,15.477 1.1094,11.332 -6.2305,-5.832 v -0.0039 c -0.80078,-0.74609 -2.043,-0.74609 -2.8438,0 l -5.4141,5.0898 -15.363,-14.301 -9.5781,-27.113 z m 5.0703,33.684 6.543,6.0859 7.5469,7.0273 -30.848,28.914 c -1.0781,1.0117 -2.8984,1.0117 -3.9805,0 l -10.258,-9.6094 c -1.0781,-1.0117 -1.0781,-2.3555 0,-3.3711 l 1.9883,-1.8633 5.4062,5.0625 0.0039,0.0039 c 0.39844,0.39844 0.94141,0.62109 1.5039,0.61328 0.5625,-0.0078 1.1016,-0.24219 1.4883,-0.65234 0.3867,-0.41015 0.58984,-0.96094 0.56641,-1.5234 -0.02344,-0.5625 -0.27734,-1.0938 -0.69922,-1.4648 l -5.2188,-4.8945 3.7852,-3.5508 7.1211,6.6719 c 0.84766,0.75 2.1328,0.6875 2.9023,-0.13672 0.76953,-0.82422 0.74609,-2.1133 -0.05859,-2.9062 l -6.9062,-6.4883 3.7773,-3.5469 3.7148,3.4688 c 0.40625,0.37891 0.94141,0.57812 1.4961,0.55859 0.55078,-0.01563 1.0742,-0.25391 1.4531,-0.66016 0.375,-0.40234 0.57812,-0.94141 0.55859,-1.4922 -0.01953,-0.55469 -0.25781,-1.0781 -0.66406,-1.4531 l -3.5039,-3.2812 3.7891,-3.5508 7.1289,6.6797 c 0.40625,0.37891 0.94141,0.57812 1.4961,0.5625 0.55078,-0.01953 1.0742,-0.25781 1.4531,-0.66406 0.375,-0.40234 0.57812,-0.94141 0.55859,-1.4922 -0.01953,-0.55469 -0.25781,-1.0742 -0.66406,-1.4531 l -6.9219,-6.4883 z"
     id="path10" />
</svg>
