<?xml version="1.0" encoding="UTF-8"?>
<svg width="100pt" height="100pt" version="1.1" viewBox="0 0 100 100" xmlns="http://www.w3.org/2000/svg">
 <path d="m76.582 5.6211c-8.418 0-16.91 2.1172-16.91 6.8438v35.867c0 4.7031 8.5977 7.5156 16.91 7.5156s16.91-2.8125 16.91-7.5156v-35.867c0-4.7266-8.4922-6.8438-16.91-6.8438zm0 12.285c5.1055 0 10.246-0.91016 12.91-2.6641l0.003906 6.6836c-1.4531 1.3555-6.1758 2.8281-12.91 2.8281-6.7305 0-11.449-1.4727-12.91-2.8242l-0.003906-6.6914c2.668 1.7578 7.8086 2.668 12.91 2.668zm12.914 13.176c-1.4531 1.3555-6.1719 2.8281-12.914 2.8281-6.7305 0-11.449-1.4727-12.91-2.8242v-6.7852c2.8945 1.6094 7.9141 2.4453 12.91 2.4453 4.9961 0 10.02-0.83594 12.914-2.4492zm-25.824 2.3867c2.8945 1.6094 7.9141 2.4453 12.91 2.4453 5 0 10.023-0.83594 12.914-2.4492l0.003906 6.7812c-1.4492 1.3555-6.1719 2.832-12.918 2.832-6.7305 0-11.449-1.4727-12.91-2.8242zm25.664-21.117c0 1.6328-5.0742 3.5547-12.754 3.5547-7.6836 0-12.766-1.875-12.766-3.5469 0-1.7812 5.2461-3.4219 12.766-3.4219 7.4961 0 12.754 1.75 12.754 3.4141zm-12.754 39.492c-7.7266 0-12.559-2.5195-12.91-3.5156v-5.6992c2.8945 1.6094 7.9141 2.4453 12.91 2.4453 5 0 10.027-0.83594 12.918-2.4492l0.003906 5.625c-0.36328 1.0781-5.1953 3.5938-12.922 3.5938zm-64.699-12.871v3.25c0 1.1055 0.89453 2 2 2h3.375v3.25c0 1.1055 0.89453 2 2 2h20.25c1.1055 0 2-0.89453 2-2v-26.387c0-1.1055-0.89453-2-2-2h-3.375v-3.25c0-1.1055-0.89453-2-2-2h-3.375v-3.25c0-1.1055-0.89453-2-2-2h-20.25c-1.1055 0-2 0.89453-2 2v26.383c0 1.1055 0.89453 2 2 2h3.375zm25.625 6.5h-16.25v-22.387h16.25zm-5.375-26.387h-12.875c-1.1055 0-2 0.89453-2 2v19.133h-1.375v-22.383h16.25zm-21.625-6.5h16.25v1.25h-12.875c-1.1055 0-2 0.89453-2 2v19.133h-1.375zm46.387 21.691c0-0.33594-0.16797-0.64453-0.44531-0.83203l-6.4844-4.3203c-0.30859-0.20703-1.5547-0.34375-1.5547 0.83203v1.4023h-3.9453c-0.55078 0-1 0.44922-1 1v3.8359c0 0.55078 0.44922 1 1 1h3.9453v1.4062c0 1.0664 1.3867 0.94531 1.5547 0.83203l6.4844-4.3203c0.27734-0.1875 0.44531-0.5 0.44531-0.83594zm-6.4844 2.4531v-0.53516c0-0.55078-0.44922-1-1-1h-3.9453l-0.003906-1.8359h3.9453c0.55078 0 1-0.44922 1-1v-0.53516l3.6836 2.4531zm15.324 43.156h-3.9492v-1.4023c0-0.36719-0.20312-0.70703-0.52734-0.88281-0.32422-0.17187-0.71875-0.15625-1.0273 0.050782l-6.4844 4.3203c-0.27734 0.1875-0.44531 0.49609-0.44531 0.83203 0 0.33594 0.16797 0.64453 0.44531 0.83203l6.4844 4.3203c0.24609 0.16406 0.85938 0.12109 1.0781-0.050781 0.28906-0.22656 0.47656-0.41016 0.47656-0.78125v-1.4023h3.9492c0.55078 0 1-0.44922 1-1v-3.8359c0-0.55469-0.44922-1-1-1zm-1 3.8359h-3.9492c-0.55078 0-1 0.44922-1 1v0.53516l-3.6836-2.4531 3.6836-2.4531v0.53516c0 0.55078 0.44922 1 1 1h3.9492zm13.766-25.719h-3.8359c-0.55078 0-1 0.44922-1 1v5.9453h-1.4023c-0.36719 0-0.70703 0.20312-0.88281 0.52734-0.17578 0.32422-0.15625 0.71875 0.050782 1.0273l4.3203 6.4844c0.1875 0.27734 0.49609 0.44531 0.83203 0.44531 0.33594 0 0.64453-0.16797 0.83203-0.44531l4.3203-6.4844c0.20312-0.30859 0.22266-0.70312 0.050781-1.0273-0.17578-0.32422-0.51172-0.52734-0.88281-0.52734h-1.4023v-5.9453c0-0.55469-0.44531-1-1-1zm-1.918 12.629-2.4531-3.6836h0.53516c0.55078 0 1-0.44922 1-1v-5.9453h1.8359v5.9453c0 0.55078 0.44922 1 1 1h0.53516zm0 4.5039c-2.0469 0-3.9727 0.79688-5.4219 2.2461-2.9883 2.9883-2.9883 7.8516 0 10.844 1.4492 1.4492 3.375 2.2461 5.4219 2.2461s3.9727-0.79688 5.4219-2.2461c2.9883-2.9883 2.9883-7.8516 0-10.844-1.4492-1.4492-3.375-2.2461-5.4219-2.2461zm1.4141 7.668 2.5117-2.5117c0.97656 1.5273 0.97656 3.4961 0 5.0234zm1.0977-3.9258-2.5117 2.5117-2.5117-2.5117c0.74219-0.47656 1.6055-0.74219 2.5117-0.74219s1.7695 0.26562 2.5117 0.74219zm-6.4375 6.4375c-0.97656-1.5273-0.97656-3.4961 0-5.0234l2.5117 2.5117zm1.4141 1.4141 2.5117-2.5117 2.5117 2.5117c-0.74219 0.47656-1.6055 0.74219-2.5117 0.74219s-1.7656-0.26562-2.5117-0.74219zm-26.938-33.727h-37.375c-1.1055 0-2 0.89453-2 2v37.375c0 1.1055 0.89453 2 2 2h37.375c1.1055 0 2-0.89453 2-2v-37.375c0-1.1055-0.89453-2-2-2zm-9.4766 26.414c-0.125-0.53516-0.38281-1.0195-0.73438-1.4219l3.543-7.1445c0.32812 0.10547 0.66797 0.17969 1.0312 0.17969 1.7539 0 3.1836-1.3555 3.3359-3.0703h0.30469v11.457zm-25.898-11.457h9.957v3.9062c-0.55078 0.59766-0.89453 1.3906-0.89453 2.2656 0 0.57813 0.16016 1.1133 0.41797 1.5898l-2.9141 2.7344c-0.45703-0.23438-0.96875-0.37891-1.5195-0.37891-1.0938 0-2.0547 0.53125-2.6719 1.3438h-2.3789zm22.418 0v8.8789c-0.82031 0.050781-1.5664 0.39062-2.1211 0.92969l-4.6406-2.7188c0.085938-0.29297 0.14453-0.59766 0.14453-0.91797 0-1.8555-1.5117-3.3672-3.3672-3.3672-0.53125 0-1.0273 0.13672-1.4727 0.35547v-3.1562zm-11.461-1v-9.957h11.457v9.957zm15.441 1c0.058594 0.64062 0.28906 1.2305 0.65625 1.7188l-3.5977 7.2578c-0.015625-0.003906-0.027344-0.007812-0.039063-0.011719v-8.9609zm4.7031-0.29688c0 0.75391-0.61328 1.3672-1.3672 1.3672-0.75391 0-1.3672-0.61328-1.3672-1.3672 0-0.75391 0.61328-1.3672 1.3672-1.3672 0.74219 0.003906 1.3672 0.60938 1.3672 1.3672zm2.2734-0.70312h-0.35156c-0.10938-0.50391-0.33594-0.95703-0.64062-1.3477l0.99219-0.71875zm-28.324 15.848c-0.75391 0-1.3672-0.61328-1.3672-1.3672s0.61328-1.3672 1.3672-1.3672 1.3672 0.61328 1.3672 1.3672-0.61328 1.3672-1.3672 1.3672zm7.3828-7.3125c-0.75391 0-1.3672-0.61328-1.3672-1.3672s0.61328-1.3672 1.3672-1.3672 1.3672 0.61328 1.3672 1.3672c-0.003906 0.75391-0.61719 1.3672-1.3672 1.3672zm-1.4766 1.6445c0.44531 0.21875 0.94141 0.35547 1.4727 0.35547 0.80859 0 1.5391-0.29688 2.1211-0.77344l4.6016 2.6953h-8.1953l0.003906-2.2773zm-1 2.2773h-1.4922l1.4922-1.4023zm-1.5391 2.0273c0-0.35937-0.070312-0.69922-0.17578-1.0234h1.7188v9.957h-6.8672l1.6914-5.5938c1.5977 0.26172 3.6328-1.1758 3.6328-3.3398zm2.5391-1.0273h8.3242c0.11719 1.6758 1.4531 3.0039 3.1328 3.1094v6.8477l-11.457 0.003906zm11.672 1.1328c-0.75391 0-1.3672-0.61328-1.3672-1.3672 0-0.74609 0.54297-1.3672 1.3672-1.3672 0.75391 0 1.3672 0.61328 1.3672 1.3672-0.003906 0.75391-0.61719 1.3672-1.3672 1.3672zm10.746-19.129-2.7656 2.0078c-0.28125-0.074219-0.57031-0.12891-0.87109-0.12891-1.6133 0-2.9648 1.1445-3.2891 2.6602h-3.0312v-9.957h9.957zm-23.418-5.418v9.957h-9.957v-9.957zm-9.957 23.414h1.8594c-0.10547 0.32422-0.17578 0.66406-0.17578 1.0234 0 1.043 0.48828 1.9688 1.2344 2.5859l-1.918 6.3477h-1.0039zm23.418 9.9609v-6.9297c1.3984-0.33984 2.4492-1.5508 2.5547-3.0273h7.4062v9.957z"/>
</svg>
