<?xml version="1.0" encoding="UTF-8"?>
<svg width="100pt" height="100pt" version="1.1" viewBox="0 0 100 100" xmlns="http://www.w3.org/2000/svg">
 <g>
  <path d="m23.438 46.875h10.938v3.125c0 2.5898 2.0977 4.6875 4.6875 4.6875h21.875c2.5898 0 4.6875-2.0977 4.6875-4.6875v-3.125h10.938c5.1758 0 9.375-4.1992 9.375-9.375s-4.1992-9.375-9.375-9.375h-0.32422c1.2422-2.4141 1.8906-5.0938 1.8867-7.8125 0-5.6406-2.7695-10.922-7.4062-14.133-4.6367-3.2109-10.555-3.9414-15.836-1.9531-5.2773 1.9844-9.2461 6.4375-10.617 11.906-3.8516-3.6445-9.5039-4.6484-14.371-2.5508-4.8711 2.0977-8.0234 6.8945-8.0195 12.199 0.023438 0.83203 0.23828 1.6523 0.625 2.3906-4.9727 0.5-8.6758 4.8086-8.4258 9.7969s4.3672 8.9062 9.3633 8.9062zm39.062 3.125c0 0.41406-0.16406 0.8125-0.45703 1.1055s-0.69141 0.45703-1.1055 0.45703h-21.875c-0.86328 0-1.5625-0.69922-1.5625-1.5625v-12.5c0-0.86328 0.69922-1.5625 1.5625-1.5625h21.875c0.41406 0 0.8125 0.16406 1.1055 0.45703s0.45703 0.69141 0.45703 1.1055zm-39.062-18.75h1.5625c0.50781 0 0.98438-0.24609 1.2773-0.66406 0.29297-0.41406 0.36328-0.94922 0.19141-1.4258-0.20703-0.53516-0.45312-1.0547-0.73828-1.5508-0.36719-0.55078-0.61719-1.1758-0.73047-1.8281 0.007812-4.6016 3.1094-8.6211 7.5586-9.7969 4.4453-1.1758 9.1289 0.78125 11.414 4.7734 0.34766 0.60938 1.0586 0.91406 1.7383 0.74219 0.67969-0.17188 1.1641-0.77734 1.1797-1.4805 0.082031-4.5 2.3125-8.6914 6.0039-11.273 3.6875-2.5781 8.3906-3.2344 12.648-1.7656 4.2539 1.4688 7.5508 4.8867 8.8594 9.1953 1.3125 4.3086 0.48438 8.9805-2.2305 12.574-0.35547 0.47266-0.41406 1.1055-0.14844 1.6367 0.26562 0.52734 0.80469 0.86328 1.3984 0.86328h3.1406c3.4531 0 6.25 2.7969 6.25 6.25s-2.7969 6.25-6.25 6.25h-10.938v-6.25c0-2.5898-2.0977-4.6875-4.6875-4.6875h-21.875c-2.5898 0-4.6875 2.0977-4.6875 4.6875v6.25h-10.938c-3.4531 0-6.25-2.7969-6.25-6.25s2.7969-6.25 6.25-6.25z"/>
  <path d="m35.156 21.875v-3.125c-3.5664 0-6.5703 2.668-6.9844 6.2109l3.1055 0.36328c0.23047-1.9648 1.8984-3.4492 3.8789-3.4492z"/>
  <path d="m68.75 20.312h3.125c-0.007812-6.0391-4.8984-10.93-10.938-10.938v3.125c4.3125 0.003906 7.8086 3.5 7.8125 7.8125z"/>
  <path d="m89.062 75h3.125v-4.6875c0-0.41406-0.16406-0.8125-0.45703-1.1055s-0.69141-0.45703-1.1055-0.45703h-4.6875v3.125h3.125z"/>
  <path d="m92.188 64.062h-21.875c-2.5898 0-4.6875 2.0977-4.6875 4.6875v15.625c0 2.5898 2.0977 4.6875 4.6875 4.6875h6.0156l-1.1641 5.9492c-0.089843 0.46094 0.03125 0.93359 0.32813 1.293 0.29687 0.36328 0.73828 0.57031 1.207 0.57031h9.1016c0.46875 0 0.91016-0.20703 1.207-0.57031 0.29688-0.35938 0.41797-0.83203 0.32813-1.293l-1.1641-5.9492h6.0156c2.5898 0 4.6875-2.0977 4.6875-4.6875v-15.625c0-2.5898-2.0977-4.6875-4.6875-4.6875zm-21.875 3.125h21.875c0.41406 0 0.8125 0.16406 1.1055 0.45703s0.45703 0.69141 0.45703 1.1055v10.938h-25v-10.938c0-0.86328 0.69922-1.5625 1.5625-1.5625zm13.594 26.562h-5.3125l0.91797-4.6875h3.4727zm8.2812-7.8125h-21.875c-0.86328 0-1.5625-0.69922-1.5625-1.5625v-1.5625h25v1.5625c0 0.41406-0.16406 0.8125-0.45703 1.1055s-0.69141 0.45703-1.1055 0.45703z"/>
  <path d="m26.562 75h3.125v-4.6875c0-0.41406-0.16406-0.8125-0.45703-1.1055s-0.69141-0.45703-1.1055-0.45703h-4.6875v3.125h3.125z"/>
  <path d="m29.688 64.062h-21.875c-2.5898 0-4.6875 2.0977-4.6875 4.6875v15.625c0 2.5898 2.0977 4.6875 4.6875 4.6875h6.0156l-1.1641 5.9492c-0.089843 0.46094 0.03125 0.93359 0.32813 1.293 0.29687 0.36328 0.73828 0.57031 1.207 0.57031h9.1016c0.46875 0 0.91016-0.20703 1.207-0.57031 0.29688-0.35938 0.41797-0.83203 0.32813-1.293l-1.1641-5.9492h6.0156c2.5898 0 4.6875-2.0977 4.6875-4.6875v-15.625c0-2.5898-2.0977-4.6875-4.6875-4.6875zm-21.875 3.125h21.875c0.41406 0 0.8125 0.16406 1.1055 0.45703s0.45703 0.69141 0.45703 1.1055v10.938h-25v-10.938c0-0.86328 0.69922-1.5625 1.5625-1.5625zm13.594 26.562h-5.3125l0.91797-4.6875h3.4727zm8.2812-7.8125h-21.875c-0.86328 0-1.5625-0.69922-1.5625-1.5625v-1.5625h25v1.5625c0 0.41406-0.16406 0.8125-0.45703 1.1055s-0.69141 0.45703-1.1055 0.45703z"/>
  <path d="m66.93 58.25c0.13672-0.47266 0.046874-0.98047-0.25-1.375-0.29688-0.39453-0.75781-0.625-1.25-0.625h-12.305c-0.86328 0-1.5625 0.69922-1.5625 1.5625h-3.125c0-0.41406-0.16406-0.8125-0.45703-1.1055s-0.69141-0.45703-1.1055-0.45703h-12.305c-0.49219 0-0.95312 0.23047-1.25 0.625-0.29687 0.39453-0.38672 0.90234-0.25 1.375l0.71094 2.4375c0.58984 1.9961 2.418 3.3672 4.5 3.375h23.438c2.082-0.007812 3.9102-1.3789 4.5-3.375zm-28.648 2.6875c-0.69531-0.003906-1.3047-0.46094-1.5-1.125l-0.125-0.4375h8.6562c0 0.41406 0.16406 0.8125 0.45703 1.1055s0.69141 0.45703 1.1055 0.45703zm24.938-1.125c-0.19531 0.66406-0.80469 1.1211-1.5 1.125h-8.5938c0.41406 0 0.8125-0.16406 1.1055-0.45703s0.45703-0.69141 0.45703-1.1055h8.6562z"/>
  <path d="m59.375 37.5h-4.6875v3.125h3.125v3.125h3.125v-4.6875c0-0.41406-0.16406-0.8125-0.45703-1.1055s-0.69141-0.45703-1.1055-0.45703z"/>
  <path d="m18.75 53.125c-0.86328 0-1.5625 0.69922-1.5625 1.5625v6.25h3.125v-4.6875h7.8125c0.41406 0 0.8125-0.16406 1.1055-0.45703s0.45703-0.69141 0.45703-1.1055v-4.6875h-3.125v3.125z"/>
  <path d="m82.812 60.938v-6.25c0-0.41406-0.16406-0.8125-0.45703-1.1055s-0.69141-0.45703-1.1055-0.45703h-7.8125v-3.125h-3.125v4.6875c0 0.41406 0.16406 0.8125 0.45703 1.1055s0.69141 0.45703 1.1055 0.45703h7.8125v4.6875z"/>
 </g>
</svg>
