<?xml version="1.0" encoding="UTF-8"?>
<svg width="100pt" height="100pt" version="1.1" viewBox="0 0 100 100" xmlns="http://www.w3.org/2000/svg">
 <g>
  <path d="m95.312 9.375h-14.062v-6.25c0-0.86328-0.69922-1.5625-1.5625-1.5625h-43.75c-0.86328 0-1.5625 0.69922-1.5625 1.5625v6.25h-14.062c-0.86328 0-1.5625 0.69922-1.5625 1.5625v6.25c0 0.86328 0.69922 1.5625 1.5625 1.5625h3.125v46.875h-8.2305l0.41406-4.5469c0.039062-0.4375-0.10547-0.87109-0.40234-1.1953-0.29688-0.32422-0.71875-0.50781-1.1562-0.50781h-3.125v-1.5625c0-2.5859 2.1016-4.6875 4.6875-4.6875h4.6875v-3.125h-4.6875c-4.3086 0-7.8125 3.5039-7.8125 7.8125v1.5625h-3.125c-0.4375 0-0.85938 0.18359-1.1523 0.50781-0.29688 0.32422-0.44141 0.75781-0.40234 1.1953l1.5625 17.188c0.070313 0.80469 0.74609 1.4219 1.5547 1.4219h6.25c0.80859 0 1.4844-0.61719 1.5547-1.4219l0.29687-3.2656h9.0859v4.6875h-3.125c-0.86328 0-1.5625 0.69922-1.5625 1.5625v6.25c0 0.86328 0.69922 1.5625 1.5625 1.5625h3.125c0 4.3086 3.5039 7.8125 7.8125 7.8125h53.125c4.3086 0 7.8125-3.5039 7.8125-7.8125h3.125c0.86328 0 1.5625-0.69922 1.5625-1.5625v-6.25c0-0.86328-0.69922-1.5625-1.5625-1.5625h-3.125v-60.938h3.125c0.86328 0 1.5625-0.69922 1.5625-1.5625v-6.25c0-0.86328-0.69922-1.5625-1.5625-1.5625zm-84.238 67.188h-3.3984l-1.2773-14.062h5.9531zm26.426-71.875h40.625v4.6875h-40.625zm-22.863 67.188 0.28516-3.125h8.5156v3.125zm69.738 21.875h-53.125c-2.5859 0-4.6875-2.1016-4.6875-4.6875h62.5c0 2.5859-2.1016 4.6875-4.6875 4.6875zm9.375-7.8125h-71.875v-3.125h71.875zm-4.6875-6.25h-62.5v-60.938h62.5zm4.6875-64.062h-71.875v-3.125h71.875z"/>
  <path d="m32.996 70.246 1.4453-2.7695c-1.8984-0.99219-2.5586-3.6836-2.2266-5.8203 0.34375-2.1484 1.3867-4.1406 2.4883-6.25l0.62109-1.1992c0.36719-0.71094 0.70703-1.4375 1.0469-2.168 0.85156 2.1641 1.832 4.2773 2.9688 6.3086-0.64453 2.0273-1.0977 3.8945-1.3555 5.6719-0.48047 3.3984-0.48438 8.3516 2.2266 12.648l2.6445-1.668c-2.207-3.4961-2.1836-7.6602-1.7734-10.535 0.11719-0.80469 0.28906-1.6406 0.49609-2.5 3.0352 4.5156 6.7773 8.5742 11.152 11.941l1.0117 0.77734c0.27344 0.20703 0.60937 0.31641 0.94531 0.31641 0.30859 0 0.62109-0.089844 0.88672-0.27734 0.55859-0.38281 0.80469-1.0859 0.60938-1.7344l-2.6016-8.6719c-0.29297-0.96875-0.53516-1.9492-0.76562-2.9336 3.3555 4.1055 8.1055 7.3672 11.246 7.3672v-3.125c-2.3398 0-8.1484-4.1445-10.891-9.2617-0.41406-0.76172-0.78906-1.5547-1.1641-2.3477l-0.34375-0.71875c-0.054687-0.91016-0.10156-1.8242-0.10156-2.7422v-8.2734c0.92188 1.6445 2.2109 3.6719 3.9727 5.3867 2.6172 2.5469 5.5664 3.8945 8.5273 3.8945v-3.125c-2.6914 0-4.9375-1.6367-6.3477-3.0117-1.3711-1.3359-2.6211-3.1094-3.9297-5.582-0.20703-0.38672-0.40625-0.78125-0.60547-1.1758-0.48828-0.96094-1.0117-1.9414-1.6172-2.8867v-2.3242c0-1.8438-0.71875-3.5742-2.0195-4.875-0.76172-0.76172-1.6758-1.293-2.668-1.6289v-5.0781c0-0.86328-0.69922-1.5625-1.5625-1.5625h-6.25c-0.86328 0-1.5625 0.69922-1.5625 1.5625v5.0781c-0.98828 0.33594-1.9062 0.86719-2.668 1.6289-1.3008 1.3047-2.0195 3.0352-2.0195 4.8789 0 4.8398 0.71094 9.6211 2.0508 14.203-0.6875 1.7305-1.457 3.4492-2.3164 5.1133l-0.60938 1.1797c-1.1719 2.2383-2.3828 4.5547-2.8086 7.2148-0.48828 3.1406 0.51562 7.3242 3.8672 9.0742zm10.754-46.809v3.125h-3.125v-3.125zm-6.707 7.3555c0.69922-0.70312 1.6758-1.1055 2.668-1.1055h4.957c0.99219 0 1.9648 0.40234 2.668 1.1055 0.69922 0.69922 1.1016 1.6758 1.1016 2.668v17.094c0 4.9688 0.72266 9.9023 2.1523 14.66l1.1328 3.7812c-9.9453-9.0156-15.785-22.035-15.785-35.535 0-0.99219 0.40234-1.9688 1.1055-2.668z"/>
  <path d="m78.125 67.188h-3.125c-4.3086 0-7.8125 3.5039-7.8125 7.8125 0 0.86328 0.69922 1.5625 1.5625 1.5625h3.125c4.3086 0 7.8125-3.5039 7.8125-7.8125 0-0.86328-0.69922-1.5625-1.5625-1.5625zm-6.25 6.25h-1.293c0.64453-1.8203 2.3828-3.125 4.418-3.125h1.293c-0.64453 1.8203-2.3828 3.125-4.418 3.125z"/>
  <path d="m82.812 54.688c-4.3086 0-7.8125 3.5039-7.8125 7.8125 0 0.86328 0.69922 1.5625 1.5625 1.5625h3.125c4.3086 0 7.8125-3.5039 7.8125-7.8125 0-0.86328-0.69922-1.5625-1.5625-1.5625zm-3.125 6.25h-1.293c0.64453-1.8203 2.3828-3.125 4.418-3.125h1.293c-0.64453 1.8203-2.3828 3.125-4.418 3.125z"/>
  <path d="m73.438 54.688c0-0.86328-0.69922-1.5625-1.5625-1.5625h-3.125c-4.3086 0-7.8125 3.5039-7.8125 7.8125 0 0.86328 0.69922 1.5625 1.5625 1.5625h3.125c4.3086 0 7.8125-3.5039 7.8125-7.8125zm-7.8125 4.6875h-1.293c0.64453-1.8203 2.3828-3.125 4.418-3.125h1.293c-0.64453 1.8203-2.3828 3.125-4.418 3.125z"/>
  <path d="m61.117 39.254c-1.0547 2.5859-0.93359 5.1914-0.92578 5.3281 0.042969 0.79688 0.67969 1.4375 1.4766 1.4766 0.027343 0 0.15625 0.007812 0.36719 0.007812 0.82812 0 2.8984-0.10156 4.957-0.94141 1.0781 2.5586 2.9766 4.3125 3.0898 4.4141 0.29688 0.26563 0.66797 0.39844 1.043 0.39844s0.74609-0.13281 1.043-0.39844c0.11328-0.10156 2.0117-1.8555 3.0898-4.4141 2.0586 0.83984 4.1328 0.94141 4.957 0.94141 0.21094 0 0.33984-0.007812 0.36719-0.007812 0.79688-0.042969 1.4375-0.67969 1.4766-1.4805 0.007812-0.13672 0.125-2.7422-0.92969-5.3281 2.5547-1.0781 4.3047-2.9766 4.4062-3.0859 0.53125-0.59375 0.53125-1.4922 0-2.0859-0.10156-0.11328-1.8516-2.0078-4.4062-3.0859 1.0547-2.5859 0.9375-5.1914 0.92969-5.3281-0.042969-0.79687-0.67969-1.4375-1.4805-1.4805-0.13672-0.003906-2.7422-0.125-5.3281 0.92969-1.0781-2.5547-2.9766-4.3047-3.0859-4.4062-0.59375-0.53125-1.4922-0.53125-2.0859 0-0.11328 0.10156-2.0078 1.8516-3.0859 4.4062-2.5859-1.0547-5.1953-0.93359-5.3281-0.92969-0.79687 0.042968-1.4375 0.67969-1.4805 1.4766-0.007813 0.13672-0.125 2.7422 0.92969 5.3281-2.5547 1.0781-4.3047 2.9766-4.4062 3.0859-0.53125 0.59375-0.53125 1.4922 0 2.0859 0.10547 0.11719 1.8555 2.0156 4.4102 3.0938zm2.2812 3.5977c0.10547-0.84375 0.34766-1.9062 0.83203-2.8828 0.089843 0.003906 0.17578 0.027344 0.26562 0.027344 0.72266 0 1.3984-0.12891 2.0586-0.30078-0.17188 0.65625-0.30078 1.3359-0.30078 2.0586 0 0.089844 0.023438 0.17578 0.027344 0.26562-0.97656 0.48438-2.0391 0.72656-2.8828 0.83203zm7.7266 3.1992c-0.79297-1.0195-1.7461-2.5938-1.7461-4.2969 0-1.6992 0.95312-3.2773 1.7461-4.293 0.79297 1.0195 1.75 2.6016 1.75 4.293-0.003906 1.6992-0.95703 3.2773-1.75 4.2969zm7.7305-3.1992c-0.84375-0.10547-1.9062-0.34766-2.8828-0.83203 0.003906-0.089843 0.027344-0.17578 0.027344-0.26562 0-0.72266-0.12891-1.4023-0.30078-2.0586 0.65625 0.17188 1.3359 0.30078 2.0586 0.30078 0.089844 0 0.17578-0.023438 0.26563-0.027344 0.48437 0.97656 0.72266 2.0391 0.83203 2.8828zm-1.1016-5.9805c-1.7031 0-3.2812-0.95703-4.2969-1.7461 1.0195-0.79297 2.5938-1.7461 4.2969-1.7461 1.6992 0 3.2773 0.95312 4.2969 1.7461-1.0156 0.79297-2.5938 1.7461-4.2969 1.7461zm1.0977-9.4766c-0.10547 0.84375-0.34766 1.9062-0.83203 2.8828-0.089843-0.003906-0.17578-0.027344-0.26562-0.027344-0.72266 0-1.4023 0.12891-2.0586 0.30078 0.17188-0.65625 0.30078-1.3359 0.30078-2.0586 0-0.089844-0.023438-0.17578-0.027344-0.26563 0.98047-0.48437 2.0391-0.72266 2.8828-0.83203zm-7.7266-3.1914c0.79297 1.0195 1.75 2.6016 1.75 4.293 0 1.7031-0.95312 3.2812-1.7461 4.2969-0.79297-1.0195-1.7461-2.5938-1.7461-4.2969-0.003906-1.6992 0.94922-3.2773 1.7422-4.293zm-7.7266 3.1914c0.84375 0.10547 1.9062 0.34766 2.8828 0.83203-0.003906 0.089844-0.027344 0.17578-0.027344 0.26563 0 0.72266 0.12891 1.4023 0.30078 2.0586-0.65625-0.17188-1.3359-0.30078-2.0586-0.30078-0.089844 0-0.17578 0.023438-0.26562 0.027344-0.48438-0.97656-0.72656-2.0352-0.83203-2.8828zm1.0977 5.9844c1.7031 0 3.2773 0.95312 4.2969 1.7461-1.0195 0.79297-2.5938 1.7461-4.2969 1.7461s-3.2773-0.95312-4.2969-1.7461c1.0195-0.79297 2.5977-1.7461 4.2969-1.7461z"/>
  <path d="m39.062 34.375h3.125v3.125h-3.125z"/>
  <path d="m42.188 43.75h3.125v3.125h-3.125z"/>
 </g>
</svg>
