<?xml version="1.0" encoding="UTF-8"?>
<svg width="100pt" height="100pt" version="1.1" viewBox="0 0 100 100" xmlns="http://www.w3.org/2000/svg">
 <g>
  <path d="m79.688 3.125h-43.75v6.25h-15.625v6.25h75v-6.25h-15.625z"/>
  <path d="m20.312 89.062h4.6875v1.5625c0 3.4531 2.7969 6.25 6.25 6.25h53.125c3.4531 0 6.25-2.7969 6.25-6.25v-1.5625h4.6875v-6.25h-75z"/>
  <path d="m71.121 35.129v0.011719l0.003906-0.007813 0.007812 0.007813v-0.011719h0.007813l-0.007813-0.003906 0.007813-0.007812h-0.007813v-0.007813l-0.007812 0.007813-0.003906-0.007813v0.007813h-0.011719l0.007813 0.007812-0.007813 0.003906z"/>
  <path d="m15.625 53.125h4.6875v-3.125h-4.6875c-4.3086 0-7.8125 3.5039-7.8125 7.8125v3.125h-3.125l1.5625 17.188h6.25l0.42578-4.6875h12.074v6.25h65.625v-60.938h-65.625v48.438h-11.504l0.56641-6.25h-3.125v-3.125c0-2.5859 2.1016-4.6875 4.6875-4.6875zm56.25 21.875h-3.125c0-3.4531 2.7969-6.25 6.25-6.25h3.125c0 3.4531-2.7969 6.25-6.25 6.25zm-6.25-14.062h-3.125c0-3.4531 2.7969-6.25 6.25-6.25h3.125c0 3.4531-2.7969 6.25-6.25 6.25zm14.062 1.5625h-3.125c0-3.4531 2.7969-6.25 6.25-6.25h3.125c0 3.4531-2.7969 6.25-6.25 6.25zm-16.289-30.57c-1.832-2.6016-1.6406-6.1758-1.6406-6.1758s3.5742-0.19141 6.1758 1.6406c0.54688-3.1289 3.1914-5.5195 3.1914-5.5195s2.6445 2.3906 3.1914 5.5234c2.6016-1.832 6.1758-1.6406 6.1758-1.6406s0.19141 3.5742-1.6406 6.1758c3.1328 0.54688 5.5234 3.1914 5.5234 3.1914s-2.3906 2.6445-5.5234 3.1914c1.832 2.6016 1.6406 6.1758 1.6406 6.1758s-3.5742 0.19141-6.1758-1.6406c-0.54688 3.1289-3.1914 5.5234-3.1914 5.5234s-2.6445-2.3906-3.1914-5.5234c-2.6016 1.832-6.1758 1.6406-6.1758 1.6406s-0.19141-3.5742 1.6406-6.1758c-3.1289-0.54688-5.5234-3.1914-5.5234-3.1914s2.3906-2.6445 5.5234-3.1953zm-33.59 29.238c0.42578-2.6602 1.6367-4.9766 2.8086-7.2148l0.60937-1.1758c0.71094-1.3789 1.9766-4.293 2.8672-6.4609-0.29688-1.0977-0.55469-2.2031-0.77344-3.3203-0.007812-0.03125-0.011718-0.0625-0.019531-0.097656-0.18359-0.9375-0.33984-1.8828-0.46484-2.8359-0.015626-0.11719-0.035157-0.23047-0.050782-0.34766-0.10938-0.86719-0.19531-1.7383-0.25781-2.6172-0.015625-0.17969-0.035156-0.36328-0.046875-0.54297-0.066407-1.0273-0.10547-2.0586-0.10547-3.0938 0-1.4141 0.5625-2.7734 1.5625-3.7734 0.88672-0.88672 2.0586-1.4023 3.3008-1.5156h-0.17578v-6.2969h6.25v6.2969c0.074219 0.011719 0.14844 0.027344 0.22266 0.039063 0.125 0.019531 0.25 0.046874 0.375 0.078124 0.12109 0.03125 0.23828 0.070313 0.35547 0.10938 0.35156 0.11328 0.69141 0.25781 1.0156 0.44141 0.41406 0.23438 0.8125 0.50391 1.1562 0.84766 1 1 1.5625 2.3555 1.5625 3.7734v1.9844c1.7109 2.4766 3.4648 4.9727 5.2305 7.4297 2.4688 3.4336 4.8086 5.5625 8.832 5.5625v3.125c-5.6523 0-8.8047-3.3008-11.371-6.8672-0.91016-1.2617-1.793-2.5469-2.6914-3.8242v9.6836c0 0.38281 0.03125 0.76562 0.042969 1.1484 0.25781 1.2148 2.707 5.0859 4.1875 6.5664 6.8242 6.8242 9.25 7.3555 9.832 7.3555v3.125c-1.6211 0-4.6289-0.85938-12.043-8.2695-0.30469-0.30469-0.75781-0.83203-1.2656-1.4922 0.33594 1.9453 0.76172 3.8789 1.332 5.7773l2.6016 8.6719-1.0117-0.77734c-4.5977-3.5352-8.4688-7.8008-11.516-12.57-0.51172 1.7852-0.95703 3.4922-1.082 4.3672-0.40625 2.875-0.42969 7.0391 1.7734 10.535l-2.6445 1.668c-2.7109-4.2969-2.707-9.25-2.2266-12.648 0.23828-1.6484 1.2617-5.1719 2.0312-7.6602-0.92969-1.7773-1.7539-3.6094-2.4609-5.4922-0.57031 1.3008-1.1367 2.5391-1.5469 3.3359l-0.62109 1.1992c-1.1055 2.1094-2.1484 4.1055-2.4883 6.2539-0.33203 2.1406 0.32812 4.832 2.2266 5.8203l-1.4453 2.7695c-3.3516-1.7422-4.3555-5.9258-3.8672-9.0703z"/>
  <path d="m39.062 34.375h3.125v3.125h-3.125z"/>
  <path d="m42.188 43.75h3.125v3.125h-3.125z"/>
 </g>
</svg>
