<?xml version="1.0" encoding="UTF-8"?>
<svg width="100pt" height="100pt" version="1.1" viewBox="0 0 100 100" xmlns="http://www.w3.org/2000/svg">
 <g>
  <path d="m67.5 100h-30c-0.92188 0-1.668-0.74609-1.668-1.668v-3.6758c0-2.5664 2.0898-4.6562 4.6602-4.6562h24.016c2.5703 0 4.6602 2.0898 4.6602 4.6602v3.6719c0 0.92188-0.74609 1.668-1.668 1.668zm-28.332-3.332h26.668v-2.0078c-0.003907-0.73047-0.59766-1.3281-1.3281-1.3281h-24.016c-0.73047 0-1.3242 0.59766-1.3242 1.3281z"/>
  <path d="m79.168 100h-53.336c-0.92188 0-1.668-0.74609-1.668-1.668s0.74609-1.668 1.668-1.668h53.332c0.92188 0 1.668 0.74609 1.668 1.668s-0.74609 1.668-1.6641 1.668z"/>
  <path d="m57.5 86.668h-10c-0.92188 0-1.668-0.74609-1.668-1.668v-78.332c0-3.6758 2.9883-6.668 6.668-6.668 3.6758 0 6.668 2.9883 6.668 6.668v78.332c0 0.92188-0.74609 1.668-1.668 1.668zm-8.332-3.3359h6.668l-0.003907-76.664c0-1.8398-1.4961-3.332-3.332-3.332-1.8398 0-3.332 1.4961-3.332 3.332z"/>
  <path d="m80.832 30h-23.332c-0.92188 0-1.668-0.74609-1.668-1.668v-16.664c0-0.92188 0.74609-1.668 1.668-1.668h23.332c0.44141 0 0.86719 0.17578 1.1797 0.48828l8.332 8.332c0.65234 0.65234 0.65234 1.7031 0 2.3555l-8.332 8.332c-0.3125 0.31641-0.73828 0.49219-1.1797 0.49219zm-21.664-3.332h20.977l6.668-6.668-6.668-6.668h-20.977z"/>
  <path d="m47.5 46.668h-28.332c-0.44141 0-0.86719-0.17578-1.1797-0.48828l-8.332-8.332c-0.65234-0.65234-0.65234-1.7031 0-2.3555l8.332-8.332c0.3125-0.32031 0.73828-0.49219 1.1797-0.49219h28.332c0.92188 0 1.668 0.74609 1.668 1.668v16.668c0 0.91797-0.74609 1.6641-1.668 1.6641zm-27.645-3.3359h25.977v-13.332h-25.977l-6.668 6.668z"/>
  <path d="m75.832 63.332h-18.332c-0.92188 0-1.668-0.74609-1.668-1.668v-16.664c0-0.92188 0.74609-1.668 1.668-1.668h18.332c0.44141 0 0.86719 0.17578 1.1797 0.48828l8.332 8.332c0.65234 0.65234 0.65234 1.7031 0 2.3555l-8.332 8.332c-0.3125 0.32031-0.73828 0.49219-1.1797 0.49219zm-16.664-3.332h15.977l6.668-6.668-6.668-6.668-15.977 0.003907z"/>
  <path d="m60.832 93.332h-16.664c-0.92188 0-1.668-0.74609-1.668-1.668v-3.6758c0-2.5664 2.0898-4.6562 4.6602-4.6562h10.684c2.5664 0 4.6562 2.0898 4.6562 4.6602v3.6758c0 0.91797-0.74609 1.6641-1.668 1.6641zm-15-3.332h13.332v-2.0078c0.003907-0.73047-0.59375-1.3242-1.3242-1.3242h-10.684c-0.72656 0-1.3242 0.59375-1.3242 1.3242z"/>
 </g>
</svg>
