<?xml version="1.0" encoding="UTF-8"?>
<svg width="100pt" height="100pt" version="1.1" viewBox="0 0 100 100" xmlns="http://www.w3.org/2000/svg">
 <g>
  <path d="m46.875 67.188h3.125v3.125h-3.125z"/>
  <path d="m73.438 89.062h3.125v3.125h-3.125z"/>
  <path d="m70.312 67.188h3.125v3.125h-3.125z"/>
  <path d="m87.5 76.562h3.125v3.125h-3.125z"/>
  <path d="m62.5 56.25h3.125v3.125h-3.125z"/>
  <path d="m94.941 54.754-28.75-26.832c0.58594-1.2695 0.57812-2.7305-0.019531-3.9883l13.453-13.453c0.44531-0.44922 0.57812-1.1211 0.33594-1.7031-0.24219-0.58594-0.8125-0.96484-1.4414-0.96484h-8.8398c-0.41406 0-0.8125 0.16406-1.1055 0.45703l-9.0273 9.0273c-1.793-0.85547-3.9297-0.48828-5.3359 0.91797l-4.418 4.418c-1.4062 1.4062-1.7734 3.543-0.91797 5.3359l-9.0273 9.0273c-0.29297 0.29297-0.45703 0.69141-0.45703 1.1055v8.8398c0 0.62891 0.37891 1.1992 0.96484 1.4414 0.58203 0.24219 1.2539 0.10938 1.7031-0.33594l13.445-13.445v-0.003906c1.2656 0.60156 2.7305 0.60938 4 0.019532l26.828 28.746c1.1211 1.2109 2.6953 1.9102 4.3477 1.9336h0.10937c2.5-0.003906 4.7461-1.5312 5.6641-3.8594 0.91406-2.3281 0.31641-4.9805-1.5117-6.6875zm-24.613-43.816h4.418l-10.59 10.59-2.2109-2.207zm-27.812 27.812 8.3828-8.3828 2.207 2.2109-10.59 10.59zm13.906-7.2773-4.418-4.418v-0.003907c-0.61328-0.60938-0.61328-1.5977 0-2.207l4.418-4.418v-0.003906c0.60938-0.60938 1.5977-0.60938 2.2109 0l4.418 4.4219c0.60938 0.60938 0.60938 1.5977 0 2.2109l-4.418 4.418c-0.29687 0.29297-0.69141 0.45703-1.1055 0.45703-0.41406 0-0.8125-0.16406-1.1055-0.45703zm36.461 29.832c-0.57031 0.56641-1.3477 0.87891-2.1484 0.86719-0.80469-0.015625-1.5703-0.35547-2.1172-0.94141l-26.711-28.617 2.2852-2.2852 28.617 26.707c0.58984 0.55078 0.92969 1.3164 0.94141 2.1172 0.015625 0.80469-0.30078 1.582-0.86719 2.1484z"/>
  <path d="m4.6875 96.875h37.5c0.41406 0 0.8125-0.16406 1.1055-0.45703s0.45703-0.69141 0.45703-1.1055v-35.938h5.6016l10.023 10.023v4.0391h-4.6875c-0.41406 0-0.8125 0.16406-1.1055 0.45703l-4.6875 4.6875c-0.29297 0.29297-0.45703 0.69141-0.45703 1.1055v4.6875h3.125v-4.0391l3.7734-3.7734h4.957l6.25 6.25-3.582 3.582h-0.003907c-0.29297 0.29297-0.45703 0.69141-0.45703 1.1055v3.125h3.125v-2.4766l3.7734-3.7734h8.082l4.2305 4.2305h-0.003907c0.14844 0.14844 0.32812 0.26562 0.52344 0.34375l6.832 2.7344v5.1914h3.125v-6.25c0-0.64062-0.39062-1.2148-0.98047-1.4492l-7.5156-3.0078-4.4609-4.4609c-0.29297-0.29297-0.69141-0.45703-1.1055-0.45703h-8.7266l-6.8984-6.8984v-5.6016c0-0.41406-0.16406-0.8125-0.45703-1.1055l-10.938-10.938c-0.29297-0.29297-0.69141-0.45703-1.1055-0.45703h-6.25v-4.6875h-3.125v35.938h-34.375v-75h34.375v17.188h3.125v-18.75c0-0.41406-0.16406-0.8125-0.45703-1.1055s-0.69141-0.45703-1.1055-0.45703h-37.5c-0.86328 0-1.5625 0.69922-1.5625 1.5625v84.375c0 0.41406 0.16406 0.8125 0.45703 1.1055s0.69141 0.45703 1.1055 0.45703zm35.938-6.25v3.125h-34.375v-3.125z"/>
  <path d="m35.938 37.5v-18.75c0-0.41406-0.16406-0.8125-0.45703-1.1055s-0.69141-0.45703-1.1055-0.45703h-21.875c-0.86328 0-1.5625 0.69922-1.5625 1.5625v18.75c0 0.41406 0.16406 0.8125 0.45703 1.1055s0.69141 0.45703 1.1055 0.45703h21.875c0.41406 0 0.8125-0.16406 1.1055-0.45703s0.45703-0.69141 0.45703-1.1055zm-3.125-1.5625h-18.75v-15.625h18.75z"/>
  <path d="m31.25 42.188h3.125v3.125h-3.125z"/>
  <path d="m25 42.188h3.125v3.125h-3.125z"/>
  <path d="m18.75 42.188h3.125v3.125h-3.125z"/>
  <path d="m32.277 59.266-2.2891 2.2891v-0.003907c-3.8867-2.9023-9.2148-2.9023-13.102 0l-2.2891-2.2852-2.207 2.207 2.2891 2.2891h-0.003907c-2.9023 3.8867-2.9023 9.2148 0 13.102l-2.2852 2.2891 2.2109 2.2109 2.2891-2.2891h-0.003906c3.8867 2.9023 9.2148 2.9023 13.102 0l2.2891 2.2891 2.2109-2.2109-2.2891-2.2891c2.9023-3.8867 2.9023-9.2148 0-13.102l2.2891-2.2891zm-8.8398 3.2344c1.5312-0.003906 3.0312 0.44531 4.3086 1.293l-4.3086 4.3086-4.3086-4.3086c1.2773-0.84766 2.7773-1.2969 4.3086-1.293zm-7.8125 7.8125c-0.003906-1.5312 0.44531-3.0312 1.293-4.3086l4.3086 4.3086-4.3086 4.3086c-0.84766-1.2773-1.2969-2.7773-1.293-4.3086zm7.8125 7.8125c-1.5312 0.003906-3.0312-0.44531-4.3086-1.293l4.3086-4.3086 4.3086 4.3086c-1.2773 0.84766-2.7773 1.2969-4.3086 1.293zm7.8125-7.8125c0.003906 1.5312-0.44531 3.0312-1.293 4.3086l-4.3086-4.3086 4.3086-4.3086c0.84766 1.2773 1.2969 2.7773 1.293 4.3086z"/>
  <path d="m12.5 48.438h21.875v3.125h-21.875z"/>
 </g>
</svg>
