<?xml version="1.0" encoding="UTF-8"?>
<svg width="100pt" height="100pt" version="1.1" viewBox="0 0 100 100" xmlns="http://www.w3.org/2000/svg">
 <g>
  <path d="m50 87.5v3.125c0.67969 0 16.719-0.17188 23.305-14.992l-2.8555-1.2695c-5.75 12.938-19.855 13.137-20.449 13.137z"/>
  <path d="m72.039 71.176 1.5625-3.125 2.7969 1.3984-1.5625 3.125z"/>
  <path d="m8.8242 37.398c0.88281 0.34766 1.8164 0.53125 2.7617 0.54687 0.9375 0.007813 1.8633-0.22266 2.6914-0.66797 2-1.3125 3.4531-3.3086 4.0898-5.6172l0.87891 2.6328-0.003906 0.003906c0.96094-0.32031 1.9531-0.54297 2.957-0.66406 0.007812 1.4375 0.1875 2.8672 0.52734 4.2656-1.2109 0.33984-2.3477 0.90234-3.3516 1.6562l1.875 2.5c0.75391-0.5625 1.6133-0.96484 2.5312-1.1836 2.4922 5.1797 6.8867 9.1914 12.27 11.207-6.3047 0.80469-10.625 2.8828-10.996 8.1562l-0.17188 0.17188-6.5938-5.2773c-0.45312-0.35938-1.0664-0.44531-1.5977-0.21484-0.52734 0.23047-0.89062 0.73438-0.9375 1.3086-0.085937 1.1484-0.12891 2.1758-0.12891 3.1523 0 20.676 15.422 37.5 34.375 37.5s34.375-16.824 34.375-37.5c0-0.97656-0.042969-2.0039-0.12891-3.1445-0.046875-0.57812-0.41016-1.082-0.9375-1.3086-0.53125-0.23047-1.1445-0.14844-1.5977 0.21484l-6.5938 5.2695-0.17188-0.17188c-0.36328-5.2734-4.6875-7.3438-10.996-8.1562 5.3828-2.0156 9.7773-6.0312 12.273-11.211 0.91406 0.22266 1.7734 0.625 2.5273 1.1875l1.875-2.5c-1.0039-0.75391-2.1406-1.3164-3.3516-1.6562 0.33984-1.3945 0.51953-2.8281 0.52734-4.2656 1.0039 0.12109 1.9961 0.34375 2.957 0.66406l0.87891-2.6328-0.003907-0.003906c0.63672 2.3086 2.0898 4.3047 4.0898 5.6172 0.82812 0.44531 1.7539 0.67578 2.6914 0.66797 0.94531-0.015624 1.8789-0.19922 2.7617-0.54297 2.5781-0.78906 4.5938-2.8086 5.375-5.3867 1.3906-4.9297-1.6758-12.137-9.375-22.031-2.5-3.5547-6.3867-5.8828-10.699-6.4062-6.8477-0.67969-13.27 3.6797-16.32 6.1602-6.5234-2.5703-13.777-2.5703-20.297 0-3.0664-2.4805-9.5078-6.832-16.328-6.1602-4.3125 0.52344-8.2031 2.8516-10.703 6.4062-7.7031 9.8984-10.773 17.105-9.375 22.031 0.78125 2.5781 2.7969 4.5977 5.3711 5.3828zm9.6875-6.1406c0.67188-2.0352 1.2305-4.1016 1.6836-6.1953 0.77344-3.3242 1.8359-7.875 3.2422-7.875 1.6211-0.011719 3.2344 0.25391 4.7656 0.78125-3.082 3.5273-5.0898 7.8672-5.7891 12.5-1.3242 0.12109-2.6328 0.38672-3.9023 0.78906zm24.945 23.488c-0.30469 0.046875-0.58984 0.1875-0.8125 0.39844l-5.1445 5.1445-4.4648-4.4648c3.4219-0.75391 6.918-1.1172 10.422-1.0781zm32.52 8.9766 5.2734-4.2227c-0.0625 18.898-14.062 34.25-31.25 34.25s-31.188-15.352-31.25-34.25l5.2734 4.2188c0.62109 0.5 1.5195 0.44922 2.082-0.11328l5.1445-5.1445 5.1445 5.1445c0.60938 0.60938 1.6016 0.60938 2.2109 0l5.1445-5.1445 5.1445 5.1445c0.60938 0.60938 1.6016 0.60938 2.2109 0l5.1445-5.1445 5.1445 5.1445c0.60938 0.60938 1.6016 0.60938 2.2109 0l5.1445-5.1445 5.1445 5.1445c0.5625 0.5625 1.4609 0.61328 2.082 0.11328zm-19.434-8.9766c3.5039-0.039063 7 0.32422 10.422 1.0781l-4.4648 4.4648-5.1445-5.1445c-0.22266-0.21094-0.50781-0.35156-0.8125-0.39844zm-0.53516-0.011719c-0.32422 0.042969-0.625 0.18359-0.86328 0.41016l-5.1445 5.1445-5.1445-5.1445c-0.23828-0.22656-0.53906-0.36719-0.86328-0.41016 1.875-0.035156 3.8633-0.046875 6.0078-0.046875s4.1406 0.011719 6.0078 0.046875zm21.578-24.266c-0.69922-4.6328-2.707-8.9727-5.7891-12.5 1.5312-0.52734 3.1445-0.79297 4.7656-0.78125 1.4062 0 2.4688 4.5508 3.2422 7.875 0.45312 2.0938 1.0117 4.1602 1.6836 6.1953-1.2695-0.40234-2.5781-0.66797-3.9023-0.78906zm-1.4258-23.781c3.4531 0.45312 6.5586 2.3438 8.543 5.2109 8.6602 11.129 9.5859 16.617 8.8398 19.266-0.52734 1.6172-1.8281 2.8594-3.4688 3.3125-0.90625 0.4375-1.957 0.45703-2.8789 0.046876-2.2617-1.2109-3.3711-5.9688-4.3516-10.172-1.2305-5.2891-2.3945-10.289-6.2812-10.289-2.4414-0.027344-4.8633 0.46484-7.0977 1.4453-1.8438-1.6875-3.8945-3.1367-6.1055-4.3047 2.9688-2.1953 7.8398-5.0195 12.801-4.5156zm-1.7422 23.738c-4.1016 0.35938-8.0234 1.8438-11.332 4.293l1.9492 2.4414c2.8359-2.0352 6.168-3.2773 9.6445-3.5938-0.011719 1.3281-0.19531 2.6523-0.55469 3.9336-3.4453 0.27344-6.7383 1.543-9.4766 3.6484l1.9531 2.4375v0.003906c1.8359-1.375 3.9453-2.332 6.1875-2.8047-3.6172 6.5234-12.109 10.777-22.789 10.777s-19.16-4.25-22.781-10.766c2.2383 0.47266 4.3477 1.4297 6.1836 2.7969l1.9492-2.4414c-2.7383-2.1094-6.0312-3.3789-9.4766-3.6523-0.35938-1.2812-0.54297-2.6094-0.55469-3.9375 3.4766 0.31641 6.8086 1.5547 9.6445 3.5938l1.9492-2.4414v-0.003906c-3.3086-2.4453-7.2305-3.9297-11.332-4.2891 1.832-11.328 13.695-19.484 24.418-19.484s22.586 8.1562 24.418 19.488zm-59.121-18.527c1.9844-2.8672 5.0898-4.7578 8.543-5.2109 4.9609-0.49609 9.8281 2.3203 12.801 4.5156-2.2109 1.168-4.2617 2.6172-6.1055 4.3047-2.2344-0.98047-4.6562-1.4727-7.0977-1.4453-3.8867 0-5.0508 5-6.2852 10.289-0.97656 4.2031-2.0898 8.9609-4.3516 10.172h0.003907c-0.92188 0.41016-1.9766 0.39453-2.8789-0.050782-1.6406-0.44922-2.9414-1.6914-3.4688-3.3086-0.75-2.6484 0.17578-8.1406 8.8398-19.266z"/>
  <path d="m50 45.82c1.4883 1.2305 3.3516 1.9141 5.2812 1.9375 2.5391-0.078124 4.957-1.1133 6.7617-2.9023l-2.1992-2.2148c-0.4375 0.42578-4.2422 3.9375-8.2812 0.42969v-3.3594l5.793-5.793c0.44531-0.44922 0.57812-1.1211 0.33594-1.7031-0.23828-0.58594-0.80859-0.96484-1.4414-0.96484h-12.5c-0.63281 0-1.2031 0.37891-1.4414 0.96484-0.24219 0.58203-0.10938 1.2539 0.33594 1.7031l5.793 5.793v3.3633c-4.0352 3.5039-7.8438 0-8.2812-0.42969l-2.2031 2.2148v-0.003906c1.8008 1.7891 4.2188 2.8242 6.7578 2.9023 1.9336-0.023437 3.7969-0.70703 5.2891-1.9375zm2.4766-11.445-2.4766 2.4766-2.4766-2.4766z"/>
  <path d="m42.188 23.438h3.125v3.125h-3.125z"/>
  <path d="m54.688 23.438h3.125v3.125h-3.125z"/>
 </g>
</svg>
