<?xml version="1.0" encoding="UTF-8"?>
<svg width="100pt" height="100pt" version="1.1" viewBox="0 0 100 100" xmlns="http://www.w3.org/2000/svg">
 <g>
  <path d="m21.781 11.059c2.0117 0 3.6445-1.6367 3.6445-3.6445 0-2.0117-1.6367-3.6484-3.6445-3.6484-2.0117 0-3.6484 1.6367-3.6484 3.6484 0.003907 2.0078 1.6367 3.6445 3.6484 3.6445zm0-5.293c0.90625 0 1.6445 0.73828 1.6445 1.6484 0 0.90625-0.73828 1.6445-1.6445 1.6445s-1.6484-0.73828-1.6484-1.6445c0.003907-0.91016 0.74219-1.6484 1.6484-1.6484z"/>
  <path d="m31.195 8.4102c2.0117 0 3.6445-1.6367 3.6445-3.6484s-1.6367-3.6484-3.6445-3.6484c-2.0117 0-3.6484 1.6367-3.6484 3.6484 0.003906 2.0117 1.6367 3.6484 3.6484 3.6484zm0-5.293c0.90625 0 1.6445 0.73828 1.6445 1.6484 0 0.90625-0.73828 1.6484-1.6445 1.6484s-1.6484-0.73828-1.6484-1.6484c0.003906-0.91016 0.74219-1.6484 1.6484-1.6484z"/>
  <path d="m33.746 19.441c0 2.0117 1.6367 3.6484 3.6484 3.6484s3.6445-1.6367 3.6445-3.6484c0-2.0117-1.6367-3.6484-3.6445-3.6484-2.0117 0-3.6484 1.6367-3.6484 3.6484zm3.6484-1.6484c0.90625 0 1.6445 0.73828 1.6445 1.6484 0 0.90625-0.73828 1.6484-1.6445 1.6484s-1.6484-0.73828-1.6484-1.6484 0.73828-1.6484 1.6484-1.6484z"/>
  <path d="m29.695 19.516c2.0117 0 3.6445-1.6367 3.6445-3.6484 0-2.0117-1.6367-3.6484-3.6445-3.6484-2.0117 0-3.6484 1.6367-3.6484 3.6484 0 2.0156 1.6367 3.6484 3.6484 3.6484zm0-5.293c0.90625 0 1.6445 0.73828 1.6445 1.6484 0 0.90625-0.73828 1.6484-1.6445 1.6484s-1.6484-0.73828-1.6484-1.6484 0.73828-1.6484 1.6484-1.6484z"/>
  <path d="m28.551 31.777c2.0117 0 3.6484-1.6367 3.6484-3.6484 0-2.0117-1.6367-3.6484-3.6484-3.6484s-3.6445 1.6367-3.6445 3.6484c-0.003906 2.0117 1.6328 3.6484 3.6445 3.6484zm0-5.293c0.90625 0 1.6484 0.73828 1.6484 1.6484 0 0.90625-0.73828 1.6484-1.6484 1.6484-0.90625 0-1.6445-0.73828-1.6445-1.6484-0.003906-0.91016 0.73438-1.6484 1.6445-1.6484z"/>
  <path d="m19.984 14.152c-2.0117 0-3.6484 1.6367-3.6484 3.6484s1.6367 3.6484 3.6484 3.6484 3.6445-1.6367 3.6445-3.6484c0.003906-2.0156-1.6328-3.6484-3.6445-3.6484zm0 5.293c-0.90625 0-1.6484-0.73828-1.6484-1.6484 0-0.90625 0.73828-1.6484 1.6484-1.6484 0.90625 0 1.6445 0.73828 1.6445 1.6484 0.003906 0.91016-0.73438 1.6484-1.6445 1.6484z"/>
  <path d="m63.559 14.75h5.7305 0.019532c0.55469 0 1-0.44922 1-1 0-0.25-0.089844-0.47656-0.24219-0.65234l-2.7773-4.8125c-0.35547-0.61719-1.375-0.61719-1.7305 0l-2.8633 4.9648c-0.17969 0.30859-0.17969 0.69141 0 1 0.17969 0.30859 0.50781 0.5 0.86328 0.5zm2.8672-3.9609 1.1328 1.9648h-2.2695z"/>
  <path d="m59.199 22h5.7305 0.019531c0.55469 0 1-0.44922 1-1 0-0.25-0.089844-0.47656-0.24219-0.65234l-2.7773-4.8125c-0.35547-0.61719-1.375-0.61719-1.7305 0l-2.8633 4.9648c-0.17969 0.30859-0.17969 0.69141 0 1 0.17969 0.30859 0.50781 0.5 0.86328 0.5zm2.8672-3.9648 1.1328 1.9648h-2.2656z"/>
  <path d="m83.441 7.9727-2.7773-4.8125c-0.17969-0.30859-0.50781-0.5-0.86719-0.5-0.35547 0-0.6875 0.19141-0.86719 0.5l-2.8672 4.9648c-0.17969 0.30859-0.17969 0.69141 0 1s0.50781 0.5 0.86719 0.5h5.7305 0.019532c0.55469 0 1-0.44922 1-1 0.003906-0.25-0.089844-0.48047-0.23828-0.65234zm-4.7773-0.34766 1.1328-1.9648 1.1328 1.9648z"/>
  <path d="m69.379 22.5-2.8633 4.9648c-0.17969 0.30859-0.17969 0.69141 0 1s0.50781 0.5 0.86719 0.5h5.7305 0.019531c0.55469 0 1-0.44922 1-1 0-0.25-0.089843-0.47656-0.24219-0.65234l-2.7773-4.8125c-0.35938-0.61719-1.375-0.61719-1.7344 0zm2 4.4648h-2.2656l1.1328-1.9648z"/>
  <path d="m76.844 12.336c-0.35547-0.61719-1.375-0.61719-1.7305 0l-2.8633 4.9648c-0.17969 0.30859-0.17969 0.69141 0 1 0.17969 0.30859 0.50781 0.5 0.86719 0.5h5.7305 0.019532c0.55469 0 1-0.44922 1-1 0-0.25-0.089844-0.47656-0.24219-0.65234zm-2 4.4609 1.1328-1.9648 1.1328 1.9648z"/>
  <path d="m58.344 31.664h5.7305 0.019531c0.55469 0 1-0.44922 1-1 0-0.25-0.089844-0.47656-0.24219-0.65234l-2.7773-4.8125c-0.35547-0.61719-1.375-0.61719-1.7305 0l-2.8633 4.9648c-0.17969 0.30859-0.17969 0.69141 0 1 0.17578 0.3125 0.50391 0.5 0.86328 0.5zm2.8633-3.9609 1.1328 1.9648h-2.2695z"/>
  <path d="m74.891 37.934c0-0.55078-0.44531-1-1-1h-47.18c-0.55078 0-1 0.44922-1 1v5.1953c0 0.003906 0.003906 0.007813 0.003906 0.015625 0.003906 0.11719 0.027344 0.23047 0.066406 0.33984 0.011719 0.027344 0.023438 0.054687 0.039062 0.082031 0.015626 0.035156 0.027344 0.074219 0.050782 0.10938l19.535 30.203v7.7305c0 0.42188 0.26172 0.79688 0.65625 0.9375l7.7891 2.832c0.10938 0.039063 0.22656 0.0625 0.34375 0.0625 0.20313 0 0.40234-0.0625 0.57422-0.17969 0.26562-0.1875 0.42578-0.49219 0.42578-0.82031v-10.566l19.535-30.203c0.019531-0.035156 0.03125-0.070313 0.050781-0.10938 0.015625-0.027344 0.027344-0.050781 0.039062-0.082031 0.042969-0.10938 0.066407-0.22266 0.066407-0.33984 0-0.003906 0.003906-0.007813 0.003906-0.015625zm-47.18 1h45.18v3.1953h-45.18zm25.484 44.078-5.7891-2.1055v-6.3281h5.7891zm0.45703-10.434h-6.7031l-18.402-28.449h43.504z"/>
  <path d="m27.84 92.422c-0.35547-0.61719-1.375-0.61719-1.7305 0l-2.8633 4.9648c-0.17969 0.30859-0.17969 0.69141 0 1 0.17969 0.30859 0.50781 0.5 0.86719 0.5h5.7305 0.019531c0.55078 0 1-0.44531 1-1 0-0.25-0.089843-0.47656-0.24219-0.65234zm-2 4.4609 1.1328-1.9648 1.1328 1.9648z"/>
  <path d="m64.684 92.422c-0.35547-0.61719-1.375-0.61719-1.7305 0l-2.8633 4.9648c-0.17969 0.30859-0.17969 0.69141 0 1 0.17969 0.30859 0.50781 0.5 0.86719 0.5h5.7305 0.019531c0.55469 0 1-0.44531 1-1 0-0.25-0.089843-0.47656-0.24219-0.65234zm-2 4.4609 1.1328-1.9648 1.1328 1.9648z"/>
  <path d="m55.473 92.422c-0.17969-0.30859-0.50781-0.5-0.86719-0.5-0.35547 0-0.6875 0.19141-0.86719 0.5l-2.8672 4.9648c-0.17969 0.30859-0.17969 0.69141 0 1 0.17969 0.30859 0.50781 0.5 0.86719 0.5h5.7305 0.019531c0.55469 0 1-0.44531 1-1 0-0.25-0.089843-0.47656-0.24219-0.65234zm-2 4.4609 1.1328-1.9648 1.1328 1.9648z"/>
  <path d="m46.262 92.422c-0.35547-0.61719-1.375-0.61719-1.7305 0l-2.8633 4.9648c-0.17969 0.30859-0.17969 0.69141 0 1 0.17969 0.30859 0.50781 0.5 0.86719 0.5h5.7305 0.019531c0.55078 0 1-0.44531 1-1 0-0.25-0.089844-0.47656-0.24219-0.65234zm-2 4.4609 1.1328-1.9648 1.1328 1.9648z"/>
  <path d="m37.051 92.422c-0.17969-0.30859-0.50781-0.5-0.86719-0.5-0.35547 0-0.6875 0.19141-0.86719 0.5l-2.8672 4.9648c-0.17969 0.30859-0.17969 0.69141 0 1 0.17969 0.30859 0.50781 0.5 0.86719 0.5h5.7305 0.019531c0.55078 0 1-0.44531 1-1 0-0.25-0.089844-0.47656-0.24219-0.65234zm-2 4.4609 1.1328-1.9648 1.1328 1.9648z"/>
  <path d="m73.891 92.422c-0.35547-0.61719-1.375-0.61719-1.7305 0l-2.8633 4.9648c-0.17969 0.30859-0.17969 0.69141 0 1 0.17969 0.30859 0.50781 0.5 0.86719 0.5h5.7305 0.019531c0.55469 0 1-0.44531 1-1 0-0.25-0.089843-0.47656-0.24219-0.65234zm-1.9961 4.4609 1.1328-1.9648 1.1328 1.9648z"/>
 </g>
</svg>
