<?xml version="1.0" encoding="UTF-8"?>
<svg width="100pt" height="100pt" version="1.1" viewBox="0 0 100 100" xmlns="http://www.w3.org/2000/svg">
 <path d="m16.078 57.77c3.5 0 6.6562 2.1094 7.9922 5.3398 1.3398 3.2344 0.60156 6.9531-1.875 9.4258-2.4727 2.4766-6.1914 3.2148-9.4258 1.875-3.2305-1.3359-5.3398-4.4922-5.3398-7.9883 0-4.7773 3.875-8.6523 8.6484-8.6523zm20.07 8.6484v0.003906c0 3.4961 2.1094 6.6523 5.3398 7.9883 3.2344 1.3398 6.9531 0.60156 9.4297-1.875 2.4727-2.4727 3.2109-6.1914 1.875-9.4258-1.3398-3.2305-4.4961-5.3398-7.9922-5.3398-4.7734 0-8.6445 3.8672-8.6523 8.6406zm-35.148 30.902h58.879v-7.4219c0-3.082-1.2227-6.0352-3.4023-8.2148-2.1797-2.1797-5.1328-3.4023-8.2148-3.4023h-6.9336c-4.8633 0.003906-9.2109 3.0391-10.887 7.6094-1.6797-4.5703-6.0234-7.6055-10.891-7.6094h-6.9297c-6.418 0-11.621 5.2031-11.621 11.617zm91.449 0v-34.211h2.6211c2.168 0 3.9258-1.7539 3.9297-3.918v-0.67188c0-1.043-0.41406-2.043-1.1523-2.7773-0.73438-0.73828-1.7344-1.1523-2.7773-1.1523h-31.199c-2.1719 0-3.9297 1.7578-3.9297 3.9297v0.67188c0 1.0391 0.41406 2.0391 1.1484 2.7773 0.73828 0.73828 1.7383 1.1523 2.7812 1.1523h2.6211v34.199zm-4.2578-85.922c0-3.5234-2.125-6.7031-5.3828-8.0547-3.2617-1.3516-7.0117-0.60547-9.5039 1.8906-2.4961 2.4922-3.2422 6.2461-1.8906 9.5039 1.3477 3.2578 4.5273 5.3828 8.0547 5.3828 4.8164 0 8.7227-3.9062 8.7227-8.7227zm-21.352 37.672h25v-19c-0.003906-3.707-3.0117-6.7109-6.7188-6.7109h-16.93c-0.90625 0-1.7852 0.3125-2.4805 0.89062l-9.1719 7.5703-9.1211-7.1914h0.003906c-0.875-0.69141-2-0.97656-3.0977-0.78516-1.0938 0.19141-2.0586 0.83984-2.6445 1.7852-1.0195 1.7344-0.58984 3.9609 1 5.1914l11.469 9c1.4453 1.1367 3.4844 1.1133 4.9023-0.058593l7.7617-6.4102zm-26.109-10.301h-5.7305c-1.4219 0.007813-2.5742 1.1562-2.5781 2.582v8.9102c0 1.4258 1.1523 2.582 2.5781 2.5898h5.7383c1.4258-0.007812 2.5781-1.1602 2.582-2.582v-8.9102c0-0.6875-0.27344-1.3438-0.75781-1.832-0.48828-0.48438-1.1445-0.75781-1.832-0.75781zm-31.41-8.4609h-5.7422c-1.4219 0.007812-2.5742 1.1602-2.5781 2.582v17.379c0.003906 1.4219 1.1562 2.5742 2.5781 2.582h5.7422c1.4219-0.007812 2.5742-1.1602 2.5781-2.582v-17.379c-0.003907-1.4219-1.1562-2.5742-2.5781-2.582zm15.68 22.543c1.4219-0.007812 2.5742-1.1602 2.5781-2.582v-32.73c-0.023437-1.4062-1.1719-2.5352-2.5781-2.5391h-5.7109c-1.4219 0.003906-2.5742 1.1562-2.5781 2.5781v32.691c0.003906 1.4219 1.1562 2.5742 2.5781 2.582z"/>
</svg>
