<?xml version="1.0" encoding="UTF-8"?>
<svg width="100pt" height="100pt" version="1.1" viewBox="0 0 100 100" xmlns="http://www.w3.org/2000/svg">
 <g>
  <path d="m95.312 84.375h-4.6875v-46.875h-3.125v46.875h-24.352c-1.832-0.003906-3.5859 0.72266-4.8789 2.0195-0.70703 0.71094-1.6641 1.1094-2.668 1.1055h-11.203c-1.0039 0.003906-1.9609-0.39453-2.668-1.1055-1.293-1.2969-3.0469-2.0234-4.8789-2.0195h-24.352v-45.312c0.003906-2.5859 2.1016-4.6836 4.6875-4.6875h4.6875v-3.125h-4.6875c-4.3125 0.003906-7.8086 3.5-7.8125 7.8125v45.312h-4.6875c-0.86328 0-1.5625 0.69922-1.5625 1.5625v3.125c0.003906 4.3125 3.5 7.8086 7.8125 7.8125h78.125c4.3125-0.003906 7.8086-3.5 7.8125-7.8125v-3.125c0-0.41406-0.16406-0.8125-0.45703-1.1055s-0.69141-0.45703-1.1055-0.45703zm-1.5625 4.6875c-0.003906 2.5859-2.1016 4.6836-4.6875 4.6875h-78.125c-2.5859-0.003906-4.6836-2.1016-4.6875-4.6875v-1.5625h30.602c1.0039-0.003906 1.9609 0.39453 2.668 1.1055 1.293 1.2969 3.0469 2.0234 4.8789 2.0195h11.207-0.003907c1.832 0.003906 3.5859-0.72266 4.8789-2.0195 0.70703-0.71094 1.6641-1.1094 2.668-1.1055h30.602z"/>
  <path d="m50 62.5h3.125v18.75h-3.125z"/>
  <path d="m25 62.5h3.125v18.75h-3.125z"/>
  <path d="m53.125 35.938v-14.062c-0.003906-5.1758-4.1992-9.3711-9.375-9.375h-9.375c-5.1758 0.003906-9.3711 4.1992-9.375 9.375v14.062c0 4.25 1.9258 8.2734 5.2383 10.938h-5.2383c-5.1758 0.007812-9.3672 4.1992-9.375 9.375v25h3.125v-25c0.003906-3.4492 2.8008-6.2461 6.25-6.25h5.207l7.4102 17.789h0.003906c0.24219 0.58203 0.8125 0.96094 1.4414 0.96094s1.1992-0.37891 1.4414-0.96094l7.4141-17.789h5.207c3.4492 0.003906 6.2461 2.8008 6.25 6.25v8.9023l-2.8633 4.293 2.6016 1.7344 3.125-4.6875 2.6602-3.9922h6.9766l-10.312 13.75c-0.88672 1.1758-2.2773 1.8711-3.75 1.875v3.125c2.457-0.003906 4.7695-1.1641 6.25-3.125l11.719-15.625h5.4688c0.76562 0 1.4141-0.55078 1.543-1.3047l1.5625-9.375c0.074219-0.45312-0.054688-0.91797-0.35156-1.2695-0.29688-0.34766-0.73047-0.55078-1.1914-0.55078h-5.8711c0.011719-1.2383-0.46875-2.4297-1.3398-3.3086-0.87109-0.88281-2.0586-1.3789-3.2969-1.3789-1.8281 0-3.4844 1.0781-4.2305 2.75l-5.3867 12.117-0.1875 0.28516v-4.2148c-0.007812-5.1758-4.1992-9.3672-9.375-9.375h-5.2383c3.3125-2.6641 5.2383-6.6875 5.2383-10.938zm17.805 13.395c0.24219-0.54297 0.78125-0.89453 1.375-0.89453 0.48437 0 0.94141 0.23438 1.2227 0.625 0.28125 0.39453 0.35938 0.89844 0.20703 1.3555l-0.21484 0.64844-0.003906 0.003906c-0.15625 0.47656-0.078125 1 0.21875 1.4062 0.29297 0.40625 0.76172 0.64844 1.2656 0.64844h5.9688l-1.043 6.25h-13.457zm-42.805-27.457c0.003906-3.4492 2.8008-6.2461 6.25-6.25h9.375c3.4492 0.003906 6.2461 2.8008 6.25 6.25v2.668c-2.2539-0.72266-4.0273-2.4766-4.7656-4.7227-0.17188-0.51562-0.59766-0.90234-1.125-1.0273s-1.082 0.03125-1.4648 0.41406l-1.5117 1.5117c-1.6133 1.6172-3.9297 2.3203-6.168 1.8672-2.3359-0.47266-4.7656-0.085938-6.8398 1.0898zm0 14.062v-8.5391l1.0977-0.73438c1.5078-1.0078 3.3516-1.375 5.1289-1.0117 3.2344 0.64844 6.5781-0.34766 8.9297-2.6602 1.4414 2.3594 3.7578 4.0586 6.4453 4.7227l0.27344 0.070312v8.1523c0 6.0391-4.8984 10.938-10.938 10.938s-10.938-4.8984-10.938-10.938zm9.375 14.062v9.375l-3.9062-9.375zm3.125 9.375v-9.375h3.9062z"/>
  <path d="m33.508 40.363c3.3633 2.25 7.7461 2.25 11.109 0l-1.7344-2.6016c-2.3125 1.5469-5.3281 1.5469-7.6406 0z"/>
  <path d="m33.594 34.375c0.94922 0 1.8008-0.57031 2.1641-1.4453 0.36328-0.87891 0.16406-1.8867-0.50781-2.5547-0.66797-0.67188-1.6758-0.87109-2.5547-0.50781-0.875 0.36328-1.4453 1.2148-1.4453 2.1641 0 1.293 1.0508 2.3438 2.3438 2.3438z"/>
  <path d="m44.531 34.375c0.94922 0 1.8008-0.57031 2.1641-1.4453 0.36328-0.87891 0.16406-1.8867-0.50781-2.5547-0.66797-0.67188-1.6758-0.87109-2.5547-0.50781-0.875 0.36328-1.4453 1.2148-1.4453 2.1641 0 1.293 1.0508 2.3438 2.3438 2.3438z"/>
  <path d="m37.5 71.875h3.125v3.125h-3.125z"/>
  <path d="m37.5 78.125h3.125v3.125h-3.125z"/>
  <path d="m90.625 3.125h-28.125c-3.4492 0.003906-6.2461 2.8008-6.25 6.25v18.75c0.003906 3.4492 2.8008 6.2461 6.25 6.25h7.8125v6.25c0 0.60547 0.35156 1.1562 0.89844 1.4141 0.55078 0.25781 1.1992 0.17578 1.6641-0.21484l8.9414-7.4492h8.8086c3.4492-0.003906 6.2461-2.8008 6.25-6.25v-18.75c-0.003906-3.4492-2.8008-6.2461-6.25-6.25zm3.125 25c-0.003906 1.7266-1.3984 3.1211-3.125 3.125h-9.375c-0.36719 0-0.71875 0.12891-1 0.36328l-6.8125 5.6758v-4.4766c0-0.41406-0.16406-0.8125-0.45703-1.1055s-0.69141-0.45703-1.1055-0.45703h-9.375c-1.7266-0.003906-3.1211-1.3984-3.125-3.125v-18.75c0.003906-1.7266 1.3984-3.1211 3.125-3.125h28.125c1.7266 0.003906 3.1211 1.3984 3.125 3.125z"/>
  <path d="m64.062 10.938h15.625v3.125h-15.625z"/>
  <path d="m82.812 10.938h6.25v3.125h-6.25z"/>
  <path d="m64.062 17.188h25v3.125h-25z"/>
  <path d="m64.062 23.438h25v3.125h-25z"/>
  <path d="m18.75 40.625h3.125v-3.125h-4.6875c-0.86328 0-1.5625 0.69922-1.5625 1.5625v6.25h3.125z"/>
  <path d="m81.25 78.125h-4.6875v3.125h6.25c0.41406 0 0.8125-0.16406 1.1055-0.45703s0.45703-0.69141 0.45703-1.1055v-6.25h-3.125z"/>
 </g>
</svg>
