<?xml version="1.0" encoding="UTF-8"?>
<svg width="100pt" height="100pt" version="1.1" viewBox="0 0 100 100" xmlns="http://www.w3.org/2000/svg">
 <g>
  <path d="m97.621 87.625h-91.598c4.6953-2.75 9.543-5.3828 14.633-8.1289 24.652-13.309 52.598-28.395 73.715-66.258 0.26953-0.48047 0.097656-1.0938-0.38672-1.3594-0.48047-0.26953-1.0898-0.097656-1.3594 0.38672-20.832 37.352-48.504 52.289-72.918 65.469-5.6992 3.0742-11.098 6.0078-16.328 9.1328v-75.492c0-0.55078-0.44922-1-1-1-0.55078 0-1 0.44922-1 1v77.25c0 0.027344 0.011719 0.042969 0.015625 0.070312 0.003907 0.066407 0.023438 0.12891 0.039063 0.19531 0.019531 0.066406 0.039062 0.12891 0.066406 0.1875 0.011719 0.023437 0.011719 0.046875 0.023438 0.066406 0.015624 0.027344 0.042968 0.035157 0.058593 0.054688 0.070313 0.097656 0.15234 0.17578 0.25391 0.23828 0.035156 0.023438 0.0625 0.050781 0.10156 0.066406 0.13281 0.066406 0.28125 0.11328 0.44141 0.11328h95.242c0.55078 0 1-0.44922 1-1-0.003906-0.54297-0.44531-0.99219-1-0.99219z"/>
  <path d="m41.797 41.223c1.6914 0 3.0625-1.375 3.0625-3.0625s-1.375-3.0625-3.0625-3.0625c-1.6914 0-3.0625 1.375-3.0625 3.0625-0.003906 1.6875 1.3711 3.0625 3.0625 3.0625zm0-4.1289c0.58594 0 1.0625 0.47656 1.0625 1.0625s-0.47656 1.0625-1.0625 1.0625-1.0625-0.47656-1.0625-1.0625c-0.003906-0.58594 0.47266-1.0625 1.0625-1.0625z"/>
  <path d="m52.711 39.16c1.6914 0 3.0625-1.375 3.0625-3.0625 0-1.6914-1.375-3.0625-3.0625-3.0625s-3.0625 1.375-3.0625 3.0625 1.375 3.0625 3.0625 3.0625zm0-4.1289c0.58984 0 1.0625 0.47656 1.0625 1.0625s-0.47656 1.0625-1.0625 1.0625c-0.58594 0-1.0625-0.47656-1.0625-1.0625s0.47656-1.0625 1.0625-1.0625z"/>
  <path d="m45.523 46.223c0 1.6914 1.375 3.0625 3.0625 3.0625 1.6914 0 3.0625-1.375 3.0625-3.0625s-1.375-3.0625-3.0625-3.0625c-1.6914 0-3.0625 1.375-3.0625 3.0625zm4.125 0c0 0.58594-0.47656 1.0625-1.0625 1.0625-0.58594 0-1.0625-0.47656-1.0625-1.0625 0-0.58594 0.47656-1.0625 1.0625-1.0625 0.58594 0 1.0625 0.47656 1.0625 1.0625z"/>
  <path d="m47.203 30.855c1.6914 0 3.0625-1.375 3.0625-3.0625 0-1.6914-1.375-3.0625-3.0625-3.0625s-3.0625 1.375-3.0625 3.0625 1.3711 3.0625 3.0625 3.0625zm0-4.1289c0.58594 0 1.0625 0.47656 1.0625 1.0625 0 0.58594-0.47656 1.0625-1.0625 1.0625s-1.0625-0.47656-1.0625-1.0625c-0.003906-0.58203 0.47656-1.0625 1.0625-1.0625z"/>
  <path d="m62.543 33.871c1.6914 0 3.0625-1.375 3.0625-3.0625 0-1.6914-1.375-3.0625-3.0625-3.0625s-3.0625 1.375-3.0625 3.0625 1.375 3.0625 3.0625 3.0625zm0-4.1289c0.58984 0 1.0625 0.47656 1.0625 1.0625 0 0.58594-0.47656 1.0625-1.0625 1.0625-0.58594 0-1.0625-0.47656-1.0625-1.0625 0-0.58203 0.47656-1.0625 1.0625-1.0625z"/>
  <path d="m36.375 33.875c1.6914 0 3.0625-1.375 3.0625-3.0625 0-1.6914-1.375-3.0625-3.0625-3.0625s-3.0625 1.375-3.0625 3.0625c0 1.6836 1.375 3.0625 3.0625 3.0625zm0-4.1289c0.58594 0 1.0625 0.47656 1.0625 1.0625 0 0.58594-0.47656 1.0625-1.0625 1.0625s-1.0625-0.47656-1.0625-1.0625c0-0.58594 0.48047-1.0625 1.0625-1.0625z"/>
  <path d="m36.375 50.473c1.6914 0 3.0625-1.375 3.0625-3.0625s-1.375-3.0625-3.0625-3.0625-3.0625 1.375-3.0625 3.0625 1.375 3.0625 3.0625 3.0625zm0-4.1289c0.58594 0 1.0625 0.47656 1.0625 1.0625s-0.47656 1.0625-1.0625 1.0625-1.0625-0.47656-1.0625-1.0625 0.48047-1.0625 1.0625-1.0625z"/>
  <path d="m27.875 42.039c1.6914 0 3.0625-1.375 3.0625-3.0625 0-1.6914-1.375-3.0625-3.0625-3.0625s-3.0625 1.375-3.0625 3.0625 1.375 3.0625 3.0625 3.0625zm0-4.1289c0.58594 0 1.0625 0.47656 1.0625 1.0625 0 0.58594-0.47656 1.0625-1.0625 1.0625s-1.0625-0.47656-1.0625-1.0625c0-0.58594 0.48047-1.0625 1.0625-1.0625z"/>
  <path d="m37.441 55.645c0 1.6914 1.375 3.0625 3.0625 3.0625 1.6914 0 3.0625-1.375 3.0625-3.0625 0-1.6914-1.375-3.0664-3.0625-3.0664s-3.0625 1.375-3.0625 3.0664zm4.125 0c0 0.58594-0.47656 1.0625-1.0625 1.0625-0.58594 0-1.0625-0.47656-1.0625-1.0625 0-0.58984 0.47656-1.0664 1.0625-1.0664 0.58594 0 1.0625 0.47656 1.0625 1.0664z"/>
  <path d="m26.867 56.641c1.6914 0 3.0625-1.375 3.0625-3.0625 0-1.6914-1.375-3.0664-3.0625-3.0664s-3.0625 1.375-3.0625 3.0664 1.375 3.0625 3.0625 3.0625zm0-4.1289c0.58594 0 1.0625 0.47656 1.0625 1.0664 0 0.58594-0.47656 1.0625-1.0625 1.0625-0.58594 0-1.0625-0.47656-1.0625-1.0625 0-0.58984 0.47656-1.0664 1.0625-1.0664z"/>
  <path d="m18.609 49.289c1.6914 0 3.0625-1.375 3.0625-3.0625 0-1.6914-1.375-3.0664-3.0625-3.0664s-3.0625 1.375-3.0625 3.0664c-0.003906 1.6875 1.3711 3.0625 3.0625 3.0625zm0-4.1289c0.58594 0 1.0625 0.47656 1.0625 1.0664 0 0.58594-0.47656 1.0625-1.0625 1.0625s-1.0625-0.47656-1.0625-1.0625c-0.003906-0.58984 0.47656-1.0664 1.0625-1.0664z"/>
  <path d="m60.48 45.16c1.6914 0 3.0625-1.375 3.0625-3.0625 0-1.6914-1.375-3.0625-3.0625-3.0625s-3.0625 1.375-3.0625 3.0625 1.375 3.0625 3.0625 3.0625zm0-4.1289c0.58984 0 1.0625 0.47656 1.0625 1.0625s-0.47656 1.0625-1.0625 1.0625c-0.58594 0-1.0625-0.47656-1.0625-1.0625s0.47656-1.0625 1.0625-1.0625z"/>
  <path d="m26.867 68.055c1.6914 0 3.0625-1.375 3.0625-3.0625 0-1.6914-1.375-3.0664-3.0625-3.0664s-3.0625 1.375-3.0625 3.0664c0 1.6914 1.375 3.0625 3.0625 3.0625zm0-4.1289c0.58594 0 1.0625 0.47656 1.0625 1.0664 0 0.58594-0.47656 1.0625-1.0625 1.0625-0.58594 0-1.0625-0.47656-1.0625-1.0625 0-0.58984 0.47656-1.0664 1.0625-1.0664z"/>
  <path d="m76.141 72.059c0.19531 0.19531 0.45312 0.29297 0.70703 0.29297 0.25781 0 0.51172-0.097656 0.70703-0.29297l3.1836-3.1836c0.39062-0.39062 0.39062-1.0234 0-1.4141l-3.1836-3.1836c-0.39063-0.39062-1.0234-0.39062-1.4141 0l-3.1836 3.1836c-0.39062 0.39062-0.39062 1.0234 0 1.4141zm0.71094-5.6562 1.7695 1.7695-1.7695 1.7695-1.7695-1.7695z"/>
  <path d="m75.004 61.887c0.25781 0 0.51172-0.097657 0.70703-0.29297l3.1836-3.1797c0.1875-0.1875 0.29297-0.44141 0.29297-0.70703s-0.10547-0.51953-0.29297-0.70703l-3.1836-3.1836c-0.375-0.375-1.0391-0.375-1.4141 0l-3.1836 3.1836c-0.1875 0.1875-0.29297 0.44141-0.29297 0.70703s0.10547 0.51953 0.29297 0.70703l3.1836 3.1797c0.19141 0.19531 0.44922 0.29297 0.70703 0.29297zm0-5.9492 1.7695 1.7695-1.7695 1.7656-1.7695-1.7656z"/>
  <path d="m66.438 66.348-3.1836-3.1836c-0.39062-0.39062-1.0234-0.39062-1.4141 0l-3.1836 3.1836c-0.39062 0.39062-0.39062 1.0234 0 1.4141l3.1836 3.1836c0.19531 0.19531 0.45312 0.29297 0.70703 0.29297 0.25781 0 0.51172-0.097656 0.70703-0.29297l3.1836-3.1836c0.38672-0.39062 0.38672-1.0234 0-1.4141zm-3.8906 2.4727-1.7695-1.7695 1.7695-1.7695 1.7695 1.7695z"/>
  <path d="m67.086 79.574c0.19531 0.19531 0.45312 0.29297 0.70703 0.29297 0.25781 0 0.51172-0.097657 0.70703-0.29297l3.1836-3.1836c0.39062-0.39062 0.39062-1.0234 0-1.4141l-3.1836-3.1836c-0.39062-0.39062-1.0234-0.39062-1.4141 0l-3.1836 3.1836c-0.39062 0.39063-0.39062 1.0234 0 1.4141zm0.70703-5.6562 1.7695 1.7695-1.7695 1.7695-1.7695-1.7695z"/>
  <path d="m52.008 70.648-3.1836 3.1797c-0.1875 0.1875-0.29297 0.44141-0.29297 0.70703s0.10547 0.51953 0.29297 0.70703l3.1836 3.1836c0.1875 0.1875 0.44141 0.29297 0.70703 0.29297s0.51953-0.10547 0.70703-0.29297l3.1836-3.1836c0.1875-0.1875 0.29297-0.44141 0.29297-0.70703s-0.10547-0.51953-0.29297-0.70703l-3.1836-3.1797c-0.39062-0.39063-1.0273-0.39063-1.4141 0zm0.70313 5.6562-1.7695-1.7695 1.7695-1.7656 1.7695 1.7656z"/>
  <path d="m86.797 61.598c0.19531 0.19531 0.45312 0.29297 0.70703 0.29297 0.25781 0 0.51172-0.097656 0.70703-0.29297l3.1836-3.1836c0.39062-0.39062 0.39062-1.0234 0-1.4141l-3.1836-3.1836c-0.39063-0.39062-1.0234-0.39062-1.4141 0l-3.1797 3.1836c-0.39063 0.39062-0.39063 1.0234 0 1.4141zm0.70703-5.6562 1.7695 1.7695-1.7695 1.7695-1.7695-1.7695z"/>
  <path d="m83.211 50.406c0.25781 0 0.51172-0.097656 0.70703-0.29297l3.1836-3.1836c0.39063-0.39063 0.39063-1.0234 0-1.4141l-3.1836-3.1836c-0.39062-0.39062-1.0234-0.39062-1.4141 0l-3.1836 3.1836c-0.39062 0.39062-0.39062 1.0234 0 1.4141l3.1836 3.1836c0.19922 0.19531 0.45312 0.29297 0.70703 0.29297zm0-5.9492 1.7695 1.7695-1.7695 1.7695-1.7695-1.7695z"/>
 </g>
</svg>
