<?xml version="1.0" encoding="UTF-8"?>
<svg width="100pt" height="100pt" version="1.1" viewBox="0 0 100 100" xmlns="http://www.w3.org/2000/svg">
 <g>
  <path d="m93.621 75.953-2.4844-0.34766c-0.27344-0.86328-0.60547-1.6836-1.0156-2.4531l1.5-2.0156c0.33203-0.45312 0.28906-1.0898-0.10547-1.4844l-4.3633-4.3633c-0.39453-0.39453-1.0312-0.4375-1.4844-0.10547l-2.0156 1.5c-0.77344-0.41016-1.6055-0.74219-2.4531-1.0156l-0.34766-2.4844c-0.074218-0.5625-0.5625-0.96875-1.1211-0.96875h-6.1523c-0.5625 0-1.0469 0.41016-1.1211 0.96875l-0.34766 2.4844c-0.86328 0.27344-1.6836 0.60547-2.4531 1.0156l-2-1.5c-0.45312-0.33203-1.0742-0.28906-1.4844 0.10547l-4.3633 4.3633c-0.39453 0.39453-0.4375 1.0312-0.10547 1.4844l1.5 2.0156c-0.41016 0.78906-0.75781 1.6055-1.0156 2.4531l-2.4844 0.34766c-0.5625 0.074219-0.96875 0.5625-0.96875 1.1211v6.1523c0 0.5625 0.41016 1.0469 0.96875 1.1211l2.4844 0.34766c0.27344 0.84766 0.60547 1.668 1.0156 2.4531l-1.5 2.0156c-0.33203 0.45313-0.28906 1.0898 0.10547 1.4844l4.3633 4.3633c0.39453 0.39453 1.0312 0.4375 1.4844 0.10547l2.0156-1.5c0.78906 0.41016 1.6055 0.74219 2.4531 1.0156l0.34766 2.4844c0.074219 0.5625 0.5625 0.96875 1.1211 0.96875h6.1523c0.5625 0 1.0469-0.41016 1.1211-0.96875l0.34766-2.4844c0.84766-0.25781 1.668-0.60547 2.4531-1.0156l2.0156 1.5c0.45312 0.33203 1.0742 0.28906 1.4844-0.10547l4.3633-4.3633c0.39453-0.39453 0.4375-1.0312 0.10547-1.4844l-1.5-2.0156c0.41016-0.77344 0.74219-1.5898 1.0156-2.4531l2.4844-0.34766c0.5625-0.074218 0.96875-0.5625 0.96875-1.1211v-6.1523c0-0.55859-0.42188-1.0273-0.98438-1.1211zm-1.2891 6.3047-2.2422 0.31641c-0.45312 0.0625-0.81641 0.39453-0.9375 0.83203-0.31641 1.1953-0.77344 2.2891-1.3477 3.2734-0.24219 0.39453-0.21094 0.89453 0.0625 1.2578l1.3477 1.8047-2.9688 2.9688-1.8047-1.3477c-0.36328-0.27344-0.84766-0.30469-1.2578-0.074219-1.0312 0.60547-2.1367 1.0625-3.2891 1.3633-0.4375 0.12109-0.77344 0.48438-0.83203 0.9375l-0.31641 2.2422h-4.1836l-0.31641-2.2422c-0.0625-0.45312-0.39453-0.81641-0.83203-0.9375-1.1523-0.30469-2.2578-0.75781-3.2891-1.3633-0.39453-0.22656-0.89453-0.19531-1.2578 0.074219l-1.8047 1.3477-2.9688-2.9688 1.3477-1.8047c0.27344-0.36328 0.30469-0.86328 0.074219-1.2578-0.60547-1.0312-1.0625-2.1367-1.3633-3.2891-0.12109-0.4375-0.48438-0.77344-0.9375-0.83203l-2.2422-0.31641v-4.1836l2.2422-0.31641c0.45312-0.0625 0.81641-0.39453 0.9375-0.83203 0.30469-1.1523 0.75781-2.2422 1.3633-3.2891 0.22656-0.39453 0.19531-0.89453-0.074219-1.2578l-1.3477-1.8047 2.9688-2.9688 1.8047 1.3477c0.36328 0.27344 0.86328 0.30469 1.2578 0.0625 0.98438-0.58984 2.0898-1.0469 3.2734-1.3477 0.4375-0.12109 0.77344-0.48438 0.83203-0.9375l0.31641-2.2422h4.1836l0.31641 2.2422c0.0625 0.45312 0.39453 0.81641 0.83203 0.9375 1.1836 0.30469 2.2734 0.75781 3.2734 1.3477 0.39453 0.22656 0.89453 0.21094 1.2578-0.0625l1.8047-1.3477 2.9688 2.9688-1.3477 1.8047c-0.27344 0.36328-0.30469 0.86328-0.0625 1.2578 0.58984 0.98438 1.0469 2.0898 1.3477 3.2734 0.12109 0.4375 0.48438 0.77344 0.9375 0.83203l2.2422 0.31641 0.003907 4.2148z"/>
  <path d="m76.668 72.152c-4.4102 0-8 3.5898-8 8.0156 0 4.4102 3.5898 8 8 8 4.4258 0 8.0156-3.5898 8.0156-8 0-4.4258-3.6094-8.0156-8.0156-8.0156zm0 13.742c-3.168 0-5.7266-2.5742-5.7266-5.7266 0-3.168 2.5742-5.7422 5.7266-5.7422 3.168 0 5.7422 2.5742 5.7422 5.7422 0 3.1641-2.5781 5.7266-5.7422 5.7266z"/>
  <path d="m60.805 51.742v3.7891c0 0.62109 0.51562 1.1367 1.1367 1.1367s1.1367-0.51562 1.1367-1.1367v-3.7891h6.4375v3.7891c0 0.62109 0.51562 1.1367 1.1367 1.1367s1.1367-0.51562 1.1367-1.1367v-3.7891h6.4375v3.7891c0 0.62109 0.51563 1.1367 1.1367 1.1367 0.62109 0 1.1367-0.51562 1.1367-1.1367v-3.7891h2.6055c3.1211 0 5.6523-2.5312 5.6523-5.6523v-2.6055h3.7891c0.62109 0 1.1367-0.51562 1.1367-1.1367s-0.51562-1.1367-1.1367-1.1367h-3.7891v-6.4375h3.7891c0.62109 0 1.1367-0.51563 1.1367-1.1367 0-0.62109-0.51562-1.1367-1.1367-1.1367h-3.7891v-6.4375h3.7891c0.62109 0 1.1367-0.51562 1.1367-1.1367 0-0.62109-0.51562-1.1367-1.1367-1.1367h-3.7891v-6.4375h3.7891c0.62109 0 1.1367-0.51562 1.1367-1.1367s-0.51562-1.1367-1.1367-1.1367h-3.7891v-2.5938c0-3.1211-2.5312-5.6523-5.6523-5.6523h-2.6055v-3.8008c0-0.62109-0.51562-1.1367-1.1367-1.1367-0.62109 0-1.1367 0.51562-1.1367 1.1367v3.7891h-6.4375v-3.7891c0-0.62109-0.51562-1.1367-1.1367-1.1367s-1.1367 0.51562-1.1367 1.1367v3.7891h-6.4375l-0.003906-3.7891c0-0.62109-0.51562-1.1367-1.1367-1.1367s-1.1328 0.51562-1.1328 1.1367v3.7891h-6.4375l-0.003907-3.7891c0-0.62109-0.51562-1.1367-1.1367-1.1367-0.62109 0-1.1367 0.51562-1.1367 1.1367v3.7891h-2.5898c-3.1211 0-5.6523 2.5312-5.6523 5.6523v2.6055h-3.7891c-0.62109 0-1.1367 0.51562-1.1367 1.1367s0.51562 1.1367 1.1367 1.1367h3.7891v6.4375h-3.7891c-0.62109 0-1.1367 0.51563-1.1367 1.1367 0 0.62109 0.51562 1.1367 1.1367 1.1367h3.7891v6.4375h-3.7891c-0.62109 0-1.1367 0.51562-1.1367 1.1367 0 0.62109 0.51562 1.1367 1.1367 1.1367h3.7891v6.4375h-3.7891c-0.62109 0-1.1367 0.51562-1.1367 1.1367s0.51562 1.1367 1.1367 1.1367h3.7891v2.6055c0 3.1211 2.5312 5.6523 5.6523 5.6523h2.5898v3.7891c0 0.62109 0.51562 1.1367 1.1367 1.1367 0.62109 0 1.1367-0.51562 1.1367-1.1367v-3.7891zm-14.699-5.6523v-33.605c0-1.8633 1.5156-3.3789 3.3789-3.3789h33.605c1.8633 0 3.3789 1.5156 3.3789 3.3789v33.605c0 1.8633-1.5156 3.3789-3.3789 3.3789h-33.59c-1.8633 0-3.3945-1.5156-3.3945-3.3789z"/>
  <path d="m78.59 42.711c0.62109 0 1.1367-0.51563 1.1367-1.1367v-15.559c0-0.30469-0.12109-0.58984-0.33203-0.80469l-9.0312-9.0312c-0.21094-0.21094-0.5-0.33203-0.80469-0.33203h-15.559c-0.62109 0-1.1367 0.51562-1.1367 1.1367v24.59c0 0.62109 0.51562 1.1367 1.1367 1.1367zm-23.453-24.59h13.953l8.3633 8.3633v13.953h-22.316z"/>
  <path d="m41.637 81.91c-5.0312 6.1367-13 6.9844-13.074 7h-0.015625c-1.5625 0.15234-3.2266 0.42578-4.9375 0.71094-0.74219 0.12109-1.4844 0.24219-2.2266 0.36328-2.8047 0.4375-4.4844-0.86328-5.4258-2.0312-1.3164-1.6523-1.6953-3.832-1.2734-4.8789 1.2266-3.0742 0.51562-4.4102-0.92578-5.4531-0.94141-0.66797-1.4531-1.332-1.4531-1.8633 0-0.54687 0.5625-0.98437 0.5625-0.98437 0.39453-0.27344 0.57422-0.77344 0.4375-1.2266-0.12109-0.46875-0.53125-0.80469-1.0156-0.83203-0.53125-0.03125-0.91016-0.18359-1-0.36328-0.15234-0.31641 0.074219-1 0.30469-1.2891 0.0625-0.074219 0.13672-0.16797 0.24219-0.27344 0.53125-0.57422 1.3945-1.5469 1.1055-2.8047-0.22656-0.96875-1.0898-1.7422-2.6367-2.332-2.5469-0.98438-2.5469-2.3047-2.5469-2.3164 0.03125-0.22656 0.015626-0.34766-0.089843-0.5625-0.10547-1.0742 3.1836-5.5312 5.332-7.5156 3.8047-3.5156 3.832-8.6523 3.832-9-1.5742-13.137 3.2266-19.562 3.3047-19.668 6.3789-9.2422 14.758-12.805 20.652-14.152 0.60547-0.13672 1-0.75781 0.84766-1.3633-0.13672-0.60547-0.74219-1-1.3633-0.84766-6.2891 1.4375-15.227 5.2422-21.969 15.031-0.22656 0.28906-5.4258 7.1367-3.7422 21.152 0 0.046875-0.0625 4.3789-3.1055 7.1953-0.074219 0.0625-6.8477 6.8164-5.9531 9.832 0.046875 0.83203 0.53125 3 3.9844 4.332 1.0312 0.41016 1.2266 0.71094 1.2422 0.71094-0.03125 0.18359-0.41016 0.60547-0.57422 0.78906-0.15234 0.16797-0.27344 0.30469-0.37891 0.4375-0.54688 0.72656-1.1367 2.3047-0.54688 3.6055 0.18359 0.39453 0.5 0.83203 1.0742 1.168-0.15234 0.36328-0.27344 0.78906-0.27344 1.2578-0.015625 1.3164 0.78906 2.5742 2.3633 3.7266 0.57422 0.41016 0.98438 0.71094 0.15234 2.7891-0.78906 1.9844-0.10547 4.9844 1.6211 7.1367 1.8477 2.3047 4.5312 3.3164 7.5469 2.8477 0.75781-0.12109 1.5156-0.24219 2.2578-0.36328 4.8945-0.81641 9.5156-1.5898 10.773 0.69531 1.7266 3.1836 2.1523 4.6953 2.1523 4.6953 0.13672 0.5 0.58984 0.84766 1.0898 0.84766 0.089844 0 0.19531-0.015625 0.28906-0.046875 0.60547-0.16797 0.96875-0.78906 0.80469-1.3945-0.015625-0.074219-0.46875-1.7266-2.3633-5.1953-0.48438-0.87891-1.1523-1.4844-1.9844-1.9102 2.7734-1.1367 6.0156-3.0312 8.6367-6.2109 0.39453-0.48438 0.33203-1.1953-0.15234-1.6055-0.47656-0.38672-1.1875-0.32422-1.582 0.16016z"/>
 </g>
</svg>
