<?xml version="1.0" encoding="UTF-8"?>
<svg width="100pt" height="100pt" version="1.1" viewBox="0 0 100 100" xmlns="http://www.w3.org/2000/svg">
 <g>
  <path d="m44.602 35.5c-5.1992 0-8.8008-2.3008-9.8984-6.3984-0.5-1.8984-1.1992-2.1016-4.1016-1.8984-2.1992 0.10156-5.3008 0.19922-7.3984-2.5-1.1016-1.3984-1.3984-3-1.1016-4.6016 0.69922-3.5 4.6016-6 5.8008-6.6016l2 3.5c-2 1.1016-3.6016 2.6992-3.8008 3.8984-0.10156 0.30078-0.10156 0.69922 0.39844 1.3008 0.69922 0.89844 1.8008 1 4 0.89844 2.5-0.10156 6.8008-0.30078 8.1016 5 1 3.6992 5.8008 3.6016 8.6016 3.1016 1.1992-0.19922 2.1016-0.80078 3.1016-1.6016 1.5-1 3.3008-2.3008 6.1016-2.3008s4.6016 1.3008 6.1016 2.3008c1 0.69922 2 1.3984 3.1016 1.6016 2.8008 0.39844 7.6016 0.60156 8.6016-3.1016 1.3984-5.1992 5.6016-5.1016 8.1016-5 2.1992 0.10156 3.3008 0 4-0.89844 0.39844-0.60156 0.39844-1 0.39844-1.3008-0.19922-1.1992-1.8008-2.8008-3.8008-3.8984l2-3.5c1.1992 0.69922 5.1016 3.1016 5.8008 6.6016 0.30078 1.6016 0 3.1992-1.1016 4.6016-2.1016 2.6992-5.1016 2.6016-7.3984 2.5-2.8984-0.10156-3.6016 0-4.1016 1.8984-1.3008 4.8984-6.1992 7.1992-13.199 6.1016-2.1016-0.30078-3.5-1.3008-4.8008-2.1992-1.3008-0.89844-2.1992-1.6016-3.6992-1.6016s-2.5 0.69922-3.6992 1.6016c-1.3008 0.89844-2.6992 1.8984-4.8008 2.1992-1.2109 0.19531-2.3086 0.29688-3.3086 0.29688z"/>
  <path d="m66.898 18.801c-0.80078 0.80078-2.1016 0.80078-2.8984 0l-5.5-5.5v10c0 1.1016-0.89844 2-2 2s-2-0.89844-2-2v-10l-5.5 5.5c-0.80078 0.80078-2.1016 0.80078-2.8984 0-0.80078-0.80078-0.80078-2.1016 0-2.8984l8.8984-8.8008 0.10156-0.10156c0.19922-0.19922 0.39844-0.30078 0.69922-0.39844 0.10156-0.10156 0.30078-0.10156 0.39844-0.10156 0.30078-0.10156 0.5-0.10156 0.80078 0 0.10156 0 0.30078 0.10156 0.39844 0.10156 0.10156 0 0.19922 0.10156 0.30078 0.10156 0.10156 0.10156 0.19922 0.10156 0.19922 0.19922 0-0.003906 0 0.097656 0.10156 0.19922l8.8984 8.8984c0.80078 0.80078 0.80078 2 0 2.8008z"/>
  <path d="m39.199 57.398c-3 0-5.3984-2.3984-5.3984-5.3984s2.3984-5.3984 5.3984-5.3984 5.3984 2.3984 5.3984 5.3984c0.003906 3-2.3984 5.3984-5.3984 5.3984zm0-8.0977c-1.5 0-2.6992 1.1992-2.6992 2.6992s1.1992 2.6992 2.6992 2.6992 2.6992-1.1992 2.6992-2.6992-1.1992-2.6992-2.6992-2.6992z"/>
  <path d="m42.398 86.102h-5.8984c-0.69922 0-1.3008-0.60156-1.3008-1.3984v-14l-7 4.6992-0.10156 0.10156c-0.10156 0.10156-0.89844 0.39844-1.8008 0.39844-1.1992 0-2.1992-0.60156-2.8984-1.6016-1.3008-2 0-3.8984 1.1992-4.8008l11-9.6992c0.19922-0.19922 0.60156-0.30078 0.89844-0.30078h6.1016c0.30078 0 0.60156 0.10156 0.89844 0.30078l11 9.6992c1.1992 0.80078 2.5 2.8008 1.1992 4.8008-0.69922 1.1016-1.6992 1.6016-2.8984 1.6016-0.89844 0-1.6992-0.39844-1.8008-0.39844 0 0-0.10156 0-0.10156-0.10156l-7-4.6992v14c-0.09375 0.79688-0.79297 1.3984-1.4961 1.3984zm-4.5977-2.7031h3.1992v-15.098c0-0.5 0.30078-1 0.69922-1.1992 0.39844-0.19922 1-0.19922 1.3984 0.10156l9 6c0.19922 0.10156 0.69922 0.30078 1.1016-0.30078 0.30078-0.60156-0.39844-1.1016-0.5-1.1016-0.10156 0-0.10156-0.10156-0.19922-0.10156l-10.5-9.5h-5.1016l-10.602 9.3984s-0.10156 0.10156-0.19922 0.10156c-0.19922 0.10156-0.80078 0.60156-0.5 1.1016 0.39844 0.60156 0.89844 0.39844 1.1016 0.30078l9-6c0.39844-0.30078 0.89844-0.30078 1.3984-0.10156 0.39844 0.19922 0.69922 0.69922 0.69922 1.1992z"/>
  <path d="m68.301 49.801c-2.5 0-4.5-2-4.5-4.5s2-4.5 4.5-4.5 4.5 2 4.5 4.5-2 4.5-4.5 4.5zm0-6.3008c-1 0-1.8008 0.80078-1.8008 1.8008s0.80078 1.8008 1.8008 1.8008 1.8008-0.80078 1.8008-1.8008-0.80078-1.8008-1.8008-1.8008z"/>
  <path d="m70.801 72h-4.6016c-0.69922 0-1.3008-0.60156-1.3008-1.3008v-10.301l-4.8984 3.3008-0.10156 0.10156c-0.10156 0.10156-0.69922 0.39844-1.5 0.39844-1 0-1.8984-0.5-2.5-1.3984-1-1.6016-0.19922-3.1992 1-4.1016l8.3984-7.5c0.19922-0.19922 0.60156-0.30078 0.89844-0.30078h4.6992c0.30078 0 0.60156 0.10156 0.89844 0.30078l8.3984 7.5c1.3008 0.89844 2 2.5 1 4.1016-0.60156 0.89844-1.5 1.3984-2.5 1.3984-0.80078 0-1.3984-0.30078-1.5-0.39844 0 0-0.10156 0-0.10156-0.10156l-4.8984-3.3008v10.199c0.007813 0.80078-0.69141 1.4023-1.3906 1.4023zm-3.1992-2.6992h1.8984v-11.402c0-0.5 0.30078-1 0.69922-1.1992 0.39844-0.19922 1-0.19922 1.3984 0.10156l6.8984 4.6016c0.10156 0 0.30078 0.19922 0.5-0.10156 0-0.19922-0.19922-0.39844-0.30078-0.5-0.10156 0-0.10156-0.10156-0.19922-0.10156l-8.1016-7.1992h-3.6992l-8.1016 7.1992s-0.10156 0.10156-0.19922 0.10156c-0.10156 0.10156-0.30078 0.30078-0.30078 0.39844 0.10156 0.19922 0.19922 0.19922 0.19922 0.19922 0.10156 0 0.19922 0 0.30078-0.10156l6.8984-4.6016c0.39844-0.30078 0.89844-0.30078 1.3984-0.10156 0.39844 0.19922 0.69922 0.69922 0.69922 1.1992z"/>
  <path d="m88.301 35.199c0 1.3984-1.1016 2.5-2.5 2.5-1.3984 0-2.5-1.1016-2.5-2.5 0-1.3984 1.1016-2.5 2.5-2.5 1.3984 0 2.5 1.1992 2.5 2.5z"/>
  <path d="m93.301 45.398c-0.30078 0.5-0.80078 0.80078-1.3984 0.80078-0.39844 0-0.80078-0.19922-0.80078-0.19922l-3.1016-2.1016v6.3008c0 0.39844-0.30078 0.69922-0.69922 0.69922h-2.6992c-0.39844 0-0.69922-0.30078-0.69922-0.69922v-6.1992l-3.1016 2.1016c-0.10156 0.10156-0.5 0.19922-0.89844 0.19922-0.60156 0-1.1016-0.30078-1.3984-0.80078-0.60156-1 0-1.8984 0.60156-2.3008l4.8984-4.3984c0.10156-0.10156 0.30078-0.19922 0.5-0.19922h2.8008c0.19922 0 0.30078 0.10156 0.39844 0.19922l5 4.3984c0.59766 0.30078 1.1953 1.1992 0.59766 2.1992z"/>
  <path d="m20.699 40.301c0 1.8008-1.3984 3.1992-3.1992 3.1992s-3.1992-1.3984-3.1992-3.1992c0-1.6992 1.3984-3.1992 3.1992-3.1992s3.1992 1.5 3.1992 3.1992z"/>
  <path d="m27.5 54c-0.39844 0.60156-1 0.89844-1.6016 0.89844-0.60156 0-1-0.19922-1-0.19922l-4.6016-3.1016v8.8984c0 0.39844-0.30078 0.69922-0.69922 0.69922h-3.6992c-0.39844 0-0.69922-0.30078-0.69922-0.69922v-8.8984l-4.6016 3.1016c-0.10156 0.10156-0.60156 0.30078-1.1016 0.30078-0.69922 0-1.3008-0.30078-1.6992-0.89844-0.69922-1.1992 0.10156-2.3008 0.80078-2.8008l6.6992-5.8984c0.10156-0.10156 0.30078-0.19922 0.39844-0.19922h3.8008c0.19922 0 0.30078 0.10156 0.39844 0.19922l6.8008 6c0.80469 0.29688 1.6055 1.3984 0.80469 2.5977z"/>
  <path d="m6.6016 81c-0.39844 0-0.80078-0.19922-1-0.5-0.5-0.60156-0.39844-1.3984 0.19922-1.8984l4.6992-3.8984c0.60156-0.5 1.3984-0.39844 1.8984 0.19922 0.5 0.60156 0.39844 1.3984-0.19922 1.8984l-4.6992 3.8984c-0.30078 0.19922-0.60156 0.30078-0.89844 0.30078z"/>
  <path d="m26.398 94c-0.19922 0-0.39844-0.10156-0.60156-0.19922-0.69922-0.39844-0.89844-1.1992-0.60156-1.8008l2.8984-5.3984c0.30078-0.69922 1.1992-0.89844 1.8008-0.60156 0.69922 0.39844 0.89844 1.1992 0.60156 1.8008l-2.8984 5.3984c-0.29688 0.60156-0.79688 0.80078-1.1992 0.80078z"/>
  <path d="m68.199 89.301c-0.5 0-1-0.30078-1.1992-0.80078l-2.1992-4.8984c-0.30078-0.69922 0-1.5 0.69922-1.8008s1.5 0 1.8008 0.69922l2.1992 4.8984c0.30078 0.69922 0 1.5-0.69922 1.8008-0.19922 0.10156-0.40234 0.10156-0.60156 0.10156z"/>
  <path d="m92.5 75.301c-0.30078 0-0.60156-0.10156-0.89844-0.30078l-3.8984-3.3984c-0.60156-0.5-0.60156-1.3008-0.10156-1.8984 0.5-0.60156 1.3008-0.60156 1.8984-0.10156l3.8984 3.3984c0.60156 0.5 0.60156 1.3008 0.10156 1.8984-0.30078 0.20312-0.60156 0.40234-1 0.40234z"/>
 </g>
</svg>
