<?xml version="1.0" encoding="UTF-8"?>
<svg fill="#FF0000" width="100pt" height="100pt" version="1.1" viewBox="0 0 100 100" xmlns="http://www.w3.org/2000/svg">
 <g>
  <path d="m79.516 14.574c0.125 0.14062 0.30469 0.22266 0.49219 0.22266 0.19141 0 0.36719-0.082031 0.49219-0.22266l4.5508-4.5898c0.17188-0.19531 0.21484-0.47266 0.10938-0.70703-0.10938-0.23438-0.34375-0.38672-0.60156-0.38672h-1.6328v-3.2344c0-0.36328-0.29297-0.65625-0.65625-0.65625h-4.5234c-0.36328 0-0.65625 0.29297-0.65625 0.65625v3.2344h-1.6289c-0.25781 0-0.49609 0.15234-0.60156 0.38672-0.10547 0.23828-0.0625 0.51172 0.10938 0.70703z"/>
  <path d="m57.676 45.883c-1.8828-2.0977-3.7383-4.4414-5.4102-6.5469-0.78906-0.99609-1.543-1.9453-2.25-2.8086l-0.050781-0.0625c1.0352-2.9453 1.625-5.3555 1.7578-7.1641 0.33594-4.6094-0.17969-7.582-1.5742-9.0781-0.94141-1.0117-2.3555-1.3672-3.6836-0.91797-0.95312 0.32031-2.2422 1.1758-2.9766 3.4336-1.0977 3.3672-0.56641 9.3281 2.5547 14.258-1.3945 3.6484-3.3359 7.8398-5.4805 11.832-4.0859 1.4336-7.3398 3.3164-9.6797 5.5977-3.0547 2.9805-4.293 5.9375-3.4062 8.1133 0.54688 1.3477 1.8125 2.1523 3.3828 2.1523 1.0938 0 2.2773-0.39453 3.4219-1.1406 2.8906-1.8906 6.6641-8.1875 8.6914-11.836 4.1875-1.3086 8.3242-1.8438 10.426-2.0469 0.94922-0.09375 1.8945-0.16406 2.8047-0.21484 3.6797 3.8867 6.6875 5.9336 9.4609 6.4453 0.55859 0.10547 1.1172 0.15625 1.6602 0.15625 2.2578 0 4.125-0.90234 4.9961-2.4102 0.65625-1.1406 0.64453-2.4688-0.035156-3.6484-1.5391-2.6641-6.1797-4.1289-13.07-4.1289-0.49609-0.007813-1.0078 0-1.5391 0.015624zm-25.312 14.73c-0.54688 0.35547-1.1094 0.57031-1.5039 0.57031-0.074219 0-0.125-0.007813-0.15625-0.015625-0.070313-0.34766 0.17969-1.8594 2.625-4.2461 1.1484-1.1211 2.6016-2.1445 4.3203-3.0508-2.1719 3.4883-4.1211 5.9844-5.2852 6.7422zm14.449-36.793c0.25391-0.78125 0.57031-1.1328 0.76953-1.1992 0.003907 0 0.007813-0.003906 0.011719-0.003906 0.19141 0.21484 0.99609 1.4375 0.63672 6.4297-0.0625 0.87109-0.27344 1.9727-0.63281 3.2812-1.168-3.0078-1.4922-6.3516-0.78516-8.5078zm6.25 22.359c-1.8633 0.17969-4.6992 0.54687-7.8633 1.2969 1.2266-2.4492 2.3633-4.9336 3.3125-7.2344 0.32812 0.41016 0.66406 0.83594 1.0078 1.2695 1.1445 1.4414 2.4297 3.0664 3.7656 4.6484zm16.188 5.5586c0.050781 0.089844 0.050781 0.125 0.039062 0.14844-0.14844 0.25391-0.8125 0.66016-1.9688 0.66016-0.32422 0-0.66797-0.03125-1.0234-0.097656-1.4453-0.26562-3.1289-1.2656-5.1367-3.0469 5.4492 0.26172 7.6484 1.5742 8.0898 2.3359z"/>
  <path d="m65.094 5h-45.281c-2.7734 0-5.0312 2.25-5.0312 5.0312v79.938c0 2.7773 2.2539 5.0312 5.0312 5.0312h60.371c2.7812 0 5.0312-2.2539 5.0312-5.0312v-64.844zm0 7.1133l13.012 13.012h-13.012zm15.094 77.855h-60.375v-79.938h40.25v15.094c0 2.7773 2.25 5.0312 5.0312 5.0312h15.094z"/>
  <path d="m41.688 69.355c-0.41016-0.36328-0.90234-0.62891-1.4648-0.78125-0.55469-0.15625-1.3438-0.23828-2.3555-0.23828h-3.3477c-0.63672 0-1.1172 0.14453-1.4297 0.4375-0.3125 0.29297-0.47656 0.76953-0.47656 1.4141v9.9336c0 0.57812 0.14453 1.0273 0.42578 1.3398 0.28516 0.32031 0.66797 0.48437 1.1367 0.48437 0.44531 0 0.82031-0.16406 1.1172-0.48437 0.28906-0.31641 0.43359-0.77344 0.43359-1.3555v-3.3984h2.1406c1.6523 0 2.9219-0.35938 3.7734-1.0742 0.86328-0.72266 1.3047-1.7891 1.3047-3.1758 0-0.64453-0.10547-1.2344-0.31641-1.7539-0.21484-0.53125-0.52734-0.98047-0.94141-1.3477zm-2.1641 4.1523c-0.1875 0.25391-0.45313 0.42969-0.81641 0.54297-0.38672 0.12109-0.87891 0.18359-1.4688 0.18359h-1.5078v-3.4375h1.5078c1.3594 0 1.9102 0.26953 2.1289 0.49219 0.29297 0.3125 0.43359 0.71094 0.43359 1.2188 0 0.41406-0.09375 0.75391-0.27734 1z"/>
  <path d="m54.059 69.566c-0.54297-0.47656-1.1562-0.80469-1.8242-0.97656-0.64844-0.16797-1.4375-0.25391-2.3398-0.25391h-3.4023c-0.62891 0-1.0977 0.15234-1.3984 0.44922-0.30078 0.30078-0.44922 0.76953-0.44922 1.3984v9.4492c0 0.44141 0.039063 0.79688 0.11719 1.082 0.089843 0.32422 0.28516 0.57812 0.58203 0.75391 0.28125 0.17188 0.67578 0.25391 1.1992 0.25391h3.4023c0.60156 0 1.1523-0.039062 1.6367-0.11719 0.49219-0.078125 0.96094-0.21875 1.3867-0.41406 0.43359-0.19531 0.83594-0.46484 1.1992-0.78906 0.45703-0.42188 0.83984-0.90234 1.1328-1.4375 0.28906-0.53125 0.51172-1.1367 0.64844-1.7969 0.13672-0.65234 0.20703-1.3828 0.20703-2.1719 0-2.4141-0.70703-4.2383-2.0977-5.4297zm-2.2734 9.0352c-0.16797 0.14844-0.37109 0.26563-0.60547 0.34766-0.24219 0.085937-0.48047 0.14062-0.70313 0.16016-0.23828 0.023437-0.57031 0.035156-0.99609 0.035156h-1.7266v-8.2461h1.4727c0.76953 0 1.4336 0.085937 1.9648 0.25 0.5 0.15234 0.92969 0.51953 1.2773 1.0977 0.35938 0.58984 0.53906 1.5078 0.53906 2.7266 0.003907 1.7227-0.40625 2.9414-1.2227 3.6289z"/>
  <path d="m65.898 68.336h-6.1523c-0.41016 0-0.74219 0.0625-1.0156 0.1875-0.28906 0.13281-0.50781 0.34766-0.64453 0.64062-0.12891 0.27344-0.19141 0.60938-0.19141 1.0234v9.9141c0 0.59766 0.14453 1.0547 0.42969 1.3633 0.28906 0.31641 0.67188 0.47656 1.1289 0.47656 0.44922 0 0.82422-0.15625 1.1211-0.47266 0.28516-0.30859 0.42969-0.76953 0.42969-1.3711v-3.9961h4.0469c0.45312 0 0.80859-0.10937 1.0547-0.32422 0.25391-0.22656 0.38281-0.52734 0.38281-0.89844s-0.125-0.67578-0.375-0.89844c-0.24219-0.22266-0.60156-0.33594-1.0625-0.33594h-4.0469v-2.7969h4.8906c0.48047 0 0.84766-0.11328 1.0977-0.34375 0.25391-0.23047 0.38281-0.53906 0.38281-0.91797 0-0.36719-0.12891-0.67578-0.38672-0.91016-0.24609-0.22656-0.61328-0.33984-1.0898-0.33984z"/>
 </g>
</svg>
