<?xml version="1.0" encoding="UTF-8"?>
<svg width="100pt" height="100pt" version="1.1" viewBox="0 0 100 100" xmlns="http://www.w3.org/2000/svg">
 <g>
  <path d="m34.922 73.406v-0.003906l3.3203-3.2695c0-0.003906 0.003906-0.003906 0.003906-0.003906l0.003906-0.003906 5.9258-5.8359c1.1641-1.1484 1.8125-2.6797 1.8242-4.3164 0.011719-1.6367-0.61328-3.1797-1.7617-4.3438-1.1602-1.1797-2.707-1.8242-4.3633-1.8242-1.6172 0-3.1445 0.625-4.2969 1.7617l-33.246 32.754c-2.4062 2.3711-2.4336 6.2539-0.0625 8.6562 1.1602 1.1797 2.7109 1.8242 4.3633 1.8242 1.6172 0 3.1445-0.625 4.2969-1.7617l23.992-23.637c-0.003906 0.007812 0 0.003906 0 0.003906zm-3.8867-7.7422 2.9805 3.0234-0.47656 0.46875-2.9805-3.0234zm7.3516-7.2461c0.39844-0.39453 0.92969-0.60938 1.4883-0.60938 0.57422 0 1.1094 0.22656 1.5117 0.63281 0.39844 0.40234 0.61328 0.9375 0.60938 1.5039-0.003906 0.56641-0.23047 1.0977-0.63281 1.4961l-4.5039 4.4375-2.9805-3.0234zm-30.27 35.777c-0.80859 0.79297-2.2031 0.78516-3-0.023437-0.82031-0.83203-0.8125-2.1797 0.023437-3l22.566-22.234 2.9805 3.0234z"/>
  <path d="m17.18 49.031-1.2891 4.1914c-0.22266 0.72656-0.015625 1.5195 0.53906 2.043 0.55469 0.52344 1.3555 0.6875 2.0703 0.42188l4.1133-1.5273 3.5898 2.5195c0.34375 0.24219 0.74609 0.36328 1.1484 0.36328 0.32813 0 0.66016-0.082031 0.95703-0.24609 0.66797-0.36328 1.0703-1.0781 1.0391-1.8398l-0.17969-4.3828 3.5078-2.6328c0.60938-0.45703 0.90625-1.2188 0.76562-1.9688s-0.69531-1.3516-1.4258-1.5586l-4.2227-1.1797-1.4219-4.1484c-0.24609-0.71875-0.88281-1.2383-1.6367-1.3359s-1.5 0.24219-1.9219 0.875l-2.4297 3.6523-4.3867 0.070312c-0.76172 0.011719-1.4492 0.45312-1.7734 1.1445-0.32422 0.6875-0.23438 1.5 0.23828 2.0977zm4.3125-2.7656c0.65625-0.011719 1.2695-0.34375 1.6328-0.89062l0.76562-1.1523 0.44922 1.3086c0.21484 0.62109 0.71875 1.1016 1.3555 1.2773l1.3359 0.37109-1.1055 0.83203c-0.52734 0.39453-0.82422 1.0234-0.79688 1.6836l0.058594 1.3867-1.1328-0.79688c-0.34375-0.23828-0.74219-0.36328-1.1484-0.36328-0.23438 0-0.47266 0.039063-0.69531 0.125l-1.2969 0.48047 0.40625-1.3242c0.19141-0.62891 0.066407-1.3125-0.34375-1.8281l-0.85937-1.0859z"/>
  <path d="m63.387 56.309-3.125-0.875-1.0547-3.0703c-0.24609-0.71875-0.88281-1.2383-1.6367-1.3359-0.75781-0.09375-1.5 0.24219-1.9219 0.875l-1.7969 2.7031-3.2461 0.050781c-0.76172 0.011719-1.4492 0.45312-1.7734 1.1445-0.32422 0.6875-0.23438 1.5 0.23828 2.0977l2.0156 2.5469-0.95313 3.1055c-0.22266 0.72656-0.015624 1.5195 0.53906 2.0391 0.55469 0.52344 1.3555 0.68359 2.0703 0.42188l3.043-1.1328 2.6523 1.8672c0.34375 0.24219 0.74609 0.36328 1.1484 0.36328 0.32812 0 0.65625-0.082031 0.95703-0.24219 0.66797-0.36328 1.0703-1.0781 1.0391-1.8398l-0.13281-3.2422 2.5938-1.9492c0.60938-0.45703 0.90625-1.2227 0.76562-1.9688-0.13281-0.75-0.6875-1.3516-1.4219-1.5586zm-5.1758 2.9062c-0.52734 0.39453-0.82422 1.0234-0.79688 1.6836l0.011719 0.24609-0.19922-0.14062c-0.34375-0.23828-0.74219-0.36328-1.1484-0.36328-0.23438 0-0.47266 0.039063-0.69531 0.125l-0.23047 0.085937 0.070312-0.23437c0.19141-0.62891 0.0625-1.3125-0.34375-1.8281l-0.15234-0.19141 0.24609-0.003906c0.65625-0.011719 1.2695-0.34375 1.6328-0.89453l0.13672-0.20312 0.078124 0.23047c0.21484 0.62109 0.71875 1.1016 1.3516 1.2773l0.23438 0.066406z"/>
  <path d="m49.684 80.008-4.2891-1.1992-1.4453-4.2148c-0.24609-0.71875-0.88281-1.2383-1.6367-1.3359-0.75391-0.097656-1.5 0.24219-1.9219 0.875l-2.4688 3.7109-4.4531 0.070312c-0.76172 0.011719-1.4492 0.45313-1.7773 1.1445-0.32422 0.6875-0.23438 1.5 0.23828 2.0977l2.7656 3.4922-1.3086 4.2578c-0.22266 0.72656-0.015625 1.5195 0.53906 2.043 0.55469 0.52344 1.3555 0.6875 2.0703 0.42188l4.1758-1.5508 3.6445 2.5625c0.34375 0.24219 0.74609 0.36328 1.1484 0.36328 0.32812 0 0.66016-0.082032 0.96094-0.24609 0.66797-0.36328 1.0703-1.0781 1.0391-1.8398l-0.18359-4.4492 3.5625-2.6758c0.60938-0.45703 0.90625-1.2227 0.76562-1.9688-0.14062-0.75-0.69531-1.3555-1.4258-1.5586zm-6.1445 3.6328c-0.52734 0.39453-0.82422 1.0234-0.79687 1.6836l0.058593 1.4531-1.1875-0.83594c-0.33984-0.23828-0.74219-0.36328-1.1484-0.36328-0.23438 0-0.46875 0.039063-0.69531 0.125l-1.3633 0.50781 0.42578-1.3906c0.19141-0.62891 0.066407-1.3125-0.34375-1.8281l-0.90234-1.1406 1.4531-0.023437c0.65625-0.011719 1.2695-0.34375 1.6328-0.89453l0.80469-1.2109 0.47266 1.375c0.21484 0.62109 0.71875 1.1016 1.3555 1.2773l1.3984 0.39062z"/>
  <path d="m97.492 1.1914h-61.359c-1.1055 0-2 0.89453-2 2v41.574c0 1.1055 0.89453 2 2 2h61.359c1.1055 0 2-0.89453 2-2v-41.574c0-1.1016-0.89453-2-2-2zm-2 4v19.91l-13.652-12.207c-0.035156-0.03125-0.078125-0.054687-0.11719-0.085937-0.054687-0.042969-0.10938-0.085938-0.16797-0.12109-0.054688-0.035156-0.11328-0.0625-0.17188-0.089844-0.058593-0.027344-0.11719-0.058594-0.17969-0.082031s-0.125-0.039063-0.1875-0.054687c-0.0625-0.015626-0.12109-0.035157-0.18359-0.042969-0.066406-0.011719-0.12891-0.015625-0.19531-0.019531-0.0625-0.003907-0.125-0.007813-0.1875-0.007813-0.066407 0-0.12891 0.011719-0.19531 0.019531-0.0625 0.007813-0.12109 0.015625-0.18359 0.027344-0.066406 0.015625-0.12891 0.035156-0.19141 0.058594-0.058594 0.019531-0.11719 0.039062-0.17578 0.0625-0.0625 0.027344-0.12109 0.0625-0.18359 0.097656-0.054687 0.03125-0.10547 0.058594-0.16016 0.09375-0.058594 0.039062-0.11328 0.089844-0.16406 0.13672-0.035156 0.03125-0.074218 0.054687-0.10547 0.085937l-12.367 12.367-9.8867-8.6602c-0.039063-0.035157-0.085938-0.058594-0.125-0.089844-0.054688-0.042969-0.10938-0.085938-0.16797-0.12109-0.058594-0.035156-0.12109-0.0625-0.18359-0.089844-0.054687-0.027344-0.10938-0.054687-0.16406-0.074218-0.066406-0.023438-0.13672-0.039063-0.20703-0.058594-0.054687-0.011719-0.10938-0.027344-0.16406-0.035156-0.070313-0.011719-0.14062-0.015626-0.21094-0.015626-0.058593-0.003906-0.11328-0.007812-0.17188-0.003906-0.070312 0.003906-0.13672 0.015625-0.20703 0.023438-0.058594 0.007812-0.11719 0.015625-0.17578 0.027344-0.066406 0.015624-0.13672 0.039062-0.20312 0.0625-0.054688 0.019531-0.10938 0.035156-0.16406 0.0625-0.066406 0.03125-0.13281 0.070312-0.19531 0.10937-0.039063 0.023438-0.082032 0.039063-0.12109 0.066407l-16.242 11.387v-22.738zm-57.359 27.625 17.25-12.094 8.5078 7.4531-14.594 14.594h-11.164zm16.82 9.9531 25.629-25.629 14.91 13.332v12.297z"/>
  <path d="m44.945 17.387c3.25 0 5.8984-2.6445 5.8984-5.8984 0-3.25-2.6445-5.8945-5.8984-5.8945-3.2539 0-5.8984 2.6445-5.8984 5.8945s2.6445 5.8984 5.8984 5.8984zm0-7.7969c1.0469 0 1.8984 0.85156 1.8984 1.8945 0 1.0469-0.85156 1.8984-1.8984 1.8984-1.0469 0-1.8984-0.85156-1.8984-1.8984 0-1.043 0.85156-1.8945 1.8984-1.8945z"/>
 </g>
</svg>
