<?xml version="1.0" encoding="UTF-8"?>
<svg width="100pt" height="100pt" version="1.1" viewBox="0 0 100 100" xmlns="http://www.w3.org/2000/svg">
 <g>
  <path d="m95.312 6.25h-84.43v-1.5625h-6.1953v6.25h6.1953v-1.5625h84.43c0.86328 0 1.5625-0.69922 1.5625-1.5625s-0.69922-1.5625-1.5625-1.5625z"/>
  <path d="m95.312 21.875h-84.43v-1.5625h-6.1953v6.25h6.1953v-1.5625h84.43c0.86328 0 1.5625-0.69922 1.5625-1.5625s-0.69922-1.5625-1.5625-1.5625z"/>
  <path d="m95.312 37.5h-84.43v-1.5625h-6.1953v6.25h6.1953v-1.5625h84.43c0.86328 0 1.5625-0.69922 1.5625-1.5625s-0.69922-1.5625-1.5625-1.5625z"/>
  <path d="m95.312 53.125h-5.9531c-0.39062 0.003906-0.76172 0.15234-1.0469 0.41797-4.5859-4.7188-10.891-7.3828-17.469-7.3828-6.582 0-12.887 2.6602-17.473 7.3789-0.28516-0.26172-0.65625-0.41016-1.043-0.41406h-41.711v-1.5625h-5.9297v6.25h5.9297v-1.5625h40.484c-2.7656 3.793-4.3867 8.3047-4.6602 12.996-0.28906-0.31641-0.69922-0.49609-1.1289-0.49609h-34.668v-1.5625h-5.957v6.25h5.957v-1.5625h34.668c0.40625 0 0.80078-0.16016 1.0898-0.44531 0.22656 7.7695 4.1367 14.973 10.531 19.398 6.3945 4.4258 14.512 5.5469 21.867 3.0195s13.07-8.4023 15.395-15.82c2.3242-7.4219 0.98047-15.508-3.6172-21.777h4.7344c0.86328 0 1.5625-0.69922 1.5625-1.5625s-0.69922-1.5625-1.5625-1.5625zm-22.91 37.578c0 0.86328-0.69922 1.5625-1.5625 1.5625-0.86328 0-1.5625-0.69922-1.5625-1.5625v-3.0703c0-0.86328 0.69922-1.5625 1.5625-1.5625 0.86328 0 1.5625 0.69922 1.5625 1.5625zm0-13.121v5.4414c0 0.86328-0.69922 1.5625-1.5625 1.5625-0.86328 0-1.5625-0.69922-1.5625-1.5625v-6.9102c0-0.41406 0.16406-0.8125 0.45703-1.1055 0.29297-0.29297 0.69141-0.45703 1.1055-0.45703 4.0312 0.019531 7.6797-2.3945 9.2344-6.1133 1.5586-3.7188 0.71875-8.0117-2.125-10.871-2.8477-2.8555-7.1328-3.7188-10.859-2.1797-3.7266 1.5391-6.1602 5.1719-6.1602 9.207-0.003907 0.88672 0.11719 1.7734 0.36719 2.6289 0.24219 0.82422-0.23047 1.6953-1.0586 1.9375-0.82812 0.24609-1.6953-0.22656-1.9414-1.0547-0.33203-1.1406-0.49609-2.3242-0.49219-3.5117 0.019531-5.125 3.043-9.7656 7.7227-11.855 4.6797-2.0859 10.148-1.2422 13.977 2.168 3.8281 3.4062 5.3047 8.7422 3.7734 13.633-1.5312 4.8906-5.7852 8.4297-10.875 9.043z"/>
  <path d="m23.977 90.91c-0.44922 0-0.875-0.19141-1.1719-0.52734l-3.0156-3.4102c-0.56641-0.64453-0.50391-1.6289 0.14063-2.1992 0.64062-0.57031 1.625-0.51172 2.1992 0.12891l2.1055 2.3789 10.625-7.2031v-3.5156h-18.75v18.75h18.75v-11.457l-10.008 6.7852c-0.25781 0.17578-0.5625 0.26953-0.875 0.26953z"/>
  <path d="m38.188 77.824-3.3242 2.2539v3.7773l5.0742-3.4414c0.71094-0.48828 0.89062-1.4531 0.41016-2.1641-0.48047-0.71094-1.4453-0.90234-2.1602-0.42578z"/>
 </g>
</svg>
