<?xml version="1.0" encoding="UTF-8"?>
<svg width="100pt" height="100pt" version="1.1" viewBox="0 0 100 100" xmlns="http://www.w3.org/2000/svg">
 <g>
  <path d="m18.77 23.695v51.641h63.477l-1.4219-1.125c-0.67578-0.53516-0.78906-1.5156-0.25781-2.1875 0.53516-0.67578 1.5156-0.78906 2.1914-0.25781l4.8789 3.8672c0.83594 0.66016 0.83203 1.875 0 2.5352l-4.8789 3.8672c-0.67578 0.53516-1.6562 0.41797-2.1914-0.25781-0.53125-0.67578-0.41797-1.6562 0.25781-2.1875l1.4219-1.125h-65.039c-0.86328 0-1.5625-0.69922-1.5625-1.5625v-53.215l-1.1328 1.4258c-0.53516 0.67578-1.5156 0.78906-2.1875 0.25781-0.67578-0.53516-0.78906-1.5156-0.25781-2.1914l3.9102-4.9375c0.69531-0.875 1.8359-0.76953 2.5 0.070312l3.8555 4.8672c0.53516 0.67578 0.41797 1.6562-0.25781 2.1914-0.67578 0.53125-1.6562 0.41797-2.1875-0.25781l-1.1211-1.4141z" fill-rule="evenodd"/>
  <path d="m78.309 78.133c0.77344 0.38281 1.707 0.0625 2.0859-0.70703 0.38281-0.77344 0.0625-1.707-0.70703-2.0859-6.0625-3.0117-11.297-15.395-15.934-26.367-4.457-10.539-8.3984-19.867-13.145-19.859h-0.019531-0.019532v-0.007812c-0.050781 0-0.10547 0.003906-0.15625 0.007812-4.6758 0.19141-8.582 9.4297-12.988 19.855-4.6367 10.973-9.8711 23.352-15.934 26.367-0.77344 0.38281-1.0898 1.3164-0.70703 2.0859 0.38281 0.77344 1.3164 1.0898 2.0859 0.70703 7.0977-3.5273 12.574-16.477 17.426-27.953 3.9922-9.4453 7.5312-17.816 10.195-17.949 0.039062 0.003907 0.078124 0.003907 0.11719 0.003907v-0.007813c2.6719-0.03125 6.2422 8.4141 10.273 17.953 4.8516 11.477 10.324 24.426 17.426 27.953z"/>
  <path d="m61.637 76.484c0 0.86328 0.69922 1.5625 1.5625 1.5625s1.5625-0.69922 1.5625-1.5625v-24.809c0-0.86328-0.69922-1.5625-1.5625-1.5625s-1.5625 0.69922-1.5625 1.5625z"/>
  <path d="m36.418 76.484c0 0.86328 0.69922 1.5625 1.5625 1.5625s1.5625-0.69922 1.5625-1.5625v-24.809c0-0.86328-0.69922-1.5625-1.5625-1.5625s-1.5625 0.69922-1.5625 1.5625z"/>
 </g>
</svg>
