<?xml version="1.0" encoding="UTF-8"?>
<svg width="100pt" height="100pt" version="1.1" viewBox="0 0 100 100" xmlns="http://www.w3.org/2000/svg">
 <g>
  <path d="m18 79.301c0 6.1328-9.1992 6.1328-9.1992 0 0-6.1328 9.1992-6.1328 9.1992 0"/>
  <path d="m15.102 85.199h-3.3984c-2.5 0-4.5 1.8008-4.8008 4.3008l-0.5 4c-0.10156 0.5 0.30078 1 0.80078 1.1016 2 0.39844 4.1016 0.60156 6.1992 0.60156 0.69922 0 1.3008 0 2-0.10156l0.5-3.6992c0.19922-2 1.1992-3.6992 2.6992-4.8984-1-0.80469-2.2031-1.3047-3.5-1.3047z"/>
  <path d="m41.199 79.301c0 6.1328-9.1992 6.1328-9.1992 0 0-6.1328 9.1992-6.1328 9.1992 0"/>
  <path d="m38.301 85.199h-3.3984c-1.3008 0-2.5 0.5-3.3984 1.3984 1.3984 1.1992 2.3984 2.8984 2.6992 4.8984l0.5 3.6992c0.60156 0.10156 1.3008 0.10156 2 0.10156 2.1992 0 4.3008-0.19922 6.1992-0.60156 0.5-0.10156 0.80078-0.60156 0.80078-1.1016l-0.5-4c-0.40234-2.5938-2.5039-4.3945-4.9023-4.3945z"/>
  <path d="m26.699 87.5h-3.3984c-2.5 0-4.5 1.8008-4.8008 4.3008l-0.5 4c-0.10156 0.5 0.30078 1 0.80078 1.1016 2 0.39844 4.1016 0.60156 6.1992 0.60156 2.1992 0 4.3008-0.19922 6.1992-0.60156 0.5-0.10156 0.80078-0.60156 0.80078-1.1016l-0.5-4c-0.30078-2.5-2.3984-4.3008-4.8008-4.3008z"/>
  <path d="m29.602 81.699c0 6.1328-9.2031 6.1328-9.2031 0 0-6.1328 9.2031-6.1328 9.2031 0"/>
  <path d="m68 79.301c0 6.1328-9.1992 6.1328-9.1992 0 0-6.1328 9.1992-6.1328 9.1992 0"/>
  <path d="m65.102 85.199h-3.3984c-2.5 0-4.5 1.8008-4.8008 4.3008l-0.5 4c-0.10156 0.5 0.30078 1 0.80078 1.1016 2 0.39844 4.1016 0.60156 6.1992 0.60156 0.69922 0 1.3008 0 2-0.10156l0.5-3.6992c0.19922-2 1.1992-3.6992 2.6992-4.8984-0.90234-0.80469-2.1016-1.3047-3.5-1.3047z"/>
  <path d="m91.199 79.301c0 6.1328-9.1992 6.1328-9.1992 0 0-6.1328 9.1992-6.1328 9.1992 0"/>
  <path d="m93.199 89.5c-0.30078-2.5-2.3984-4.3008-4.8008-4.3008h-3.3984c-1.3008 0-2.5 0.5-3.3984 1.3984 1.3984 1.1992 2.3984 2.8984 2.6992 4.8984l0.5 3.6992c0.60156 0.10156 1.3008 0.10156 2 0.10156 2.1992 0 4.3008-0.19922 6.1992-0.60156 0.5-0.10156 0.80078-0.60156 0.80078-1.1016z"/>
  <path d="m76.699 87.5h-3.3984c-2.5 0-4.5 1.8008-4.8008 4.3008l-0.5 4c-0.10156 0.5 0.30078 1 0.80078 1.1016 2 0.39844 4.1016 0.60156 6.1992 0.60156 2.1992 0 4.3008-0.19922 6.1992-0.60156 0.5-0.10156 0.80078-0.60156 0.80078-1.1016l-0.5-4c-0.19922-2.5-2.3008-4.3008-4.8008-4.3008z"/>
  <path d="m79.602 81.699c0 6.1328-9.2031 6.1328-9.2031 0 0-6.1328 9.2031-6.1328 9.2031 0"/>
  <path d="m23.699 72.301c0.30078 0.39844 0.80078 0.60156 1.3008 0.60156s1-0.19922 1.3008-0.60156l4.1016-5.5c0.39844-0.5 0.39844-1.1016 0.10156-1.6016-0.30078-0.5-0.80078-0.89844-1.3984-0.89844h-2.1992v-3.3984c0-1.1992 1-2.3008 2.3008-2.3008h41.801c1.1992 0 2.3008 1 2.3008 2.3008v3.3984h-2.1992c-0.60156 0-1.1016 0.30078-1.3984 0.89844-0.30078 0.5-0.19922 1.1992 0.10156 1.6016l4.1016 5.5c0.30078 0.39844 0.80078 0.60156 1.3008 0.60156s1-0.19922 1.3008-0.60156l4.1016-5.5c0.39844-0.5 0.39844-1.1016 0.10156-1.6016-0.30078-0.5-0.80078-0.89844-1.3984-0.89844h-2.1992v-3.3984c0-3.3008-2.6992-6.1016-6.1016-6.1016h-19l-0.019531-7.8008c9.5-1 16.898-9 16.898-18.699 0-3.5-1-6.8008-2.6992-9.6016l-2.6992 2.6992c1.1016 2.1016 1.6992 4.3984 1.6992 6.8984 0 8.3008-6.8008 15.102-15.102 15.102-8.3008 0-15.102-6.8008-15.102-15.102 0-8.3984 6.8008-15.102 15.102-15.102 2.5 0 4.8984 0.60156 6.8984 1.6992l2.6992-2.6992c-2.8008-1.6992-6.1016-2.6992-9.6016-2.6992-10.398 0-18.801 8.5-18.801 18.801 0 9.8008 7.3984 17.801 16.898 18.699v7.8008h-19c-3.3008 0-6.1016 2.6992-6.1016 6.1016v3.3984h-2.1992c-0.60156 0-1.1016 0.30078-1.3984 0.89844-0.30078 0.5-0.19922 1.1992 0.10156 1.6016z"/>
  <path d="m50 20.199c0.5 0 0.89844 0 1.3984 0.10156l3-3c-1.3008-0.60156-2.8008-0.80078-4.3008-0.80078-6.5 0-11.699 5.3008-11.699 11.699-0.097657 6.6016 5.1016 11.801 11.602 11.801s11.699-5.3008 11.699-11.699c0-1.5-0.30078-3-0.80078-4.3008l-3 3c0.10156 0.39844 0.10156 0.89844 0.10156 1.3984 0 4.3984-3.6016 8.1016-8 8.1016s-8-3.8008-8-8.1992c0-4.5 3.6016-8.1016 8-8.1016z"/>
  <path d="m50 23.699c-2.6016 0-4.6016 2.1016-4.6016 4.6016s2.1016 4.6016 4.6016 4.6016c2.6016 0 4.6016-2.1016 4.6016-4.6016 0-0.60156-0.10156-1.1992-0.30078-1.6992l12.5-12.5h3.8008c0.39844 0 0.69922-0.10156 1-0.39844l3.8008-3.8008c0.39844-0.39844 0.5-1 0.30078-1.5s-0.69922-0.89844-1.3008-0.89844h-3.6992l-0.003906-3.6055c0-0.60156-0.30078-1.1016-0.89844-1.3008-0.5-0.19922-1.1016-0.10156-1.5 0.30078l-3.8008 3.8008c-0.30078 0.30078-0.39844 0.60156-0.39844 1v3.8008l-12.402 12.5c-0.5-0.19922-1.0977-0.30078-1.6992-0.30078z"/>
 </g>
</svg>
