<?xml version="1.0" encoding="UTF-8"?>
<svg width="100pt" height="100pt" version="1.1" viewBox="0 0 100 100" xmlns="http://www.w3.org/2000/svg">
 <path d="m96.801 58.602-18.902-32.801c-0.89844-1.6016-2.6016-2.6016-4.5-2.6016-1.8984 0-3.6016 1-4.5 2.6016l-7.8984 13.598h-10.199c-0.5-12.898-11.102-23.199-24.102-23.199-13.301 0-24.199 10.801-24.199 24.199 0 13 10.301 23.602 23.199 24.102v14.102c0 2.8984 2.3008 5.1992 5.1992 5.1992h33.898c2.8984 0 5.1992-2.3008 5.1992-5.1992l0.003906-12.203h22.199c1.8984 0 3.6016-1 4.5-2.6016 1-1.5977 1-3.5977 0.10156-5.1953zm-71.102-14v14.5c-9.8984-0.5-17.898-8.6992-17.898-18.801 0-10.398 8.3984-18.898 18.801-18.898 10.102 0 18.301 7.8984 18.801 17.898h-14.504c-2.8984 0.097657-5.1992 2.3984-5.1992 5.3008zm39.102 33.898-33.801 0.10156-0.10156-33.898 27-0.10156-8 13.898c-0.89844 1.6016-0.89844 3.6016 0 5.1992 0.89844 1.6016 2.6016 2.6016 4.5 2.6016h10.301v12.199zm-10.301-17.301 18.801-32.602 18.898 32.5z"/>
</svg>
