<?xml version="1.0" encoding="UTF-8"?>
<svg width="100pt" height="100pt" version="1.1" viewBox="0 0 100 100" xmlns="http://www.w3.org/2000/svg">
 <g>
  <path d="m95.312 15.625h-35.938v-6.25h14.344c0.76172 2.1523 2.9609 3.4453 5.2109 3.0586 2.25-0.38672 3.8945-2.3398 3.8945-4.6211s-1.6445-4.2344-3.8945-4.6211c-2.25-0.38672-4.4492 0.90625-5.2109 3.0586h-15.906c-0.86328 0-1.5625 0.69922-1.5625 1.5625v7.8125h-12.5v-7.8125c0-0.41406-0.16406-0.8125-0.45703-1.1055s-0.69141-0.45703-1.1055-0.45703h-15.906c-0.76172-2.1523-2.9609-3.4453-5.2109-3.0586-2.25 0.38672-3.8945 2.3398-3.8945 4.6211s1.6445 4.2344 3.8945 4.6211c2.25 0.38672 4.4492-0.90625 5.2109-3.0586h14.344v6.25h-35.938c-0.86328 0-1.5625 0.69922-1.5625 1.5625v59.375c0 0.41406 0.16406 0.8125 0.45703 1.1055s0.69141 0.45703 1.1055 0.45703h34.375v9.375h-15.625c-0.86328 0-1.5625 0.69922-1.5625 1.5625v6.25c0 0.41406 0.16406 0.8125 0.45703 1.1055s0.69141 0.45703 1.1055 0.45703h53.125c0.41406 0 0.8125-0.16406 1.1055-0.45703s0.45703-0.69141 0.45703-1.1055v-6.25c0-0.41406-0.16406-0.8125-0.45703-1.1055s-0.69141-0.45703-1.1055-0.45703h-15.625v-9.375h34.375c0.41406 0 0.8125-0.16406 1.1055-0.45703s0.45703-0.69141 0.45703-1.1055v-59.375c0-0.41406-0.16406-0.8125-0.45703-1.1055s-0.69141-0.45703-1.1055-0.45703zm-17.188-9.375c0.63281 0 1.2031 0.37891 1.4453 0.96484 0.23828 0.58203 0.10547 1.2539-0.33984 1.7031-0.44922 0.44531-1.1211 0.57812-1.7031 0.33984-0.58594-0.24219-0.96484-0.8125-0.96484-1.4453 0-0.86328 0.69922-1.5625 1.5625-1.5625zm-56.25 3.125c-0.63281 0-1.2031-0.37891-1.4453-0.96484-0.23828-0.58203-0.10547-1.2539 0.33984-1.7031 0.44922-0.44531 1.1211-0.57812 1.7031-0.33984 0.58594 0.24219 0.96484 0.8125 0.96484 1.4453 0 0.41406-0.16406 0.8125-0.45703 1.1055s-0.69141 0.45703-1.1055 0.45703zm34.375 9.375v15.25l-1.375 1.3594-0.1875-0.078125v-2.4688c0-0.41406-0.16406-0.8125-0.45703-1.1055s-0.69141-0.45703-1.1055-0.45703h-6.25c-0.86328 0-1.5625 0.69922-1.5625 1.5625v2.4688l-0.1875 0.078125-1.375-1.3594v-15.25zm2 23.672c0.30859 0.56641 0.55469 1.1641 0.73438 1.7812 0.20703 0.68359 0.84766 1.1406 1.5625 1.1094h1.9531v3.125h-2.0156c-0.71484-0.03125-1.3555 0.42578-1.5625 1.1094-0.17969 0.61719-0.42578 1.2148-0.73438 1.7812-0.28906 0.60547-0.15625 1.332 0.32812 1.7969l1.4219 1.4219-2.125 2.2656-1.5625-1.4219c-0.49219-0.49219-1.25-0.60156-1.8594-0.26562-0.56641 0.30859-1.1641 0.55469-1.7812 0.73438-0.68359 0.20703-1.1406 0.84766-1.1094 1.5625v1.9531h-3.0625v-2.0156c0.03125-0.71484-0.42578-1.3555-1.1094-1.5625-0.61719-0.17969-1.2148-0.42578-1.7812-0.73438-0.60938-0.33594-1.3672-0.22656-1.8594 0.26562l-1.4219 1.4219-2.2031-2.0625 1.4219-1.4219c0.49219-0.49219 0.60156-1.25 0.26562-1.8594-0.30859-0.56641-0.55469-1.1641-0.73438-1.7812-0.20703-0.68359-0.84766-1.1406-1.5625-1.1094h-1.9531v-3.2031h2.0156c0.71484 0.03125 1.3555-0.42578 1.5625-1.1094 0.17969-0.61719 0.42578-1.2148 0.73438-1.7812 0.28906-0.60547 0.15625-1.332-0.32812-1.7969l-1.4219-1.4219 2.2031-2.2031 1.4219 1.4219c0.49219 0.49219 1.25 0.60156 1.8594 0.26562 0.56641-0.30859 1.1641-0.55469 1.7812-0.73438 0.68359-0.20703 1.1406-0.84766 1.1094-1.5625v-2.0156h3.125v2.0156c-0.03125 0.71484 0.42578 1.3555 1.1094 1.5625 0.61719 0.17969 1.2148 0.42578 1.7812 0.73438 0.60547 0.28906 1.332 0.15625 1.7969-0.32812l1.4219-1.4219 2.2031 2.2031-1.4219 1.4219c-0.47266 0.50781-0.55469 1.2617-0.20312 1.8594zm-17.625-23.672v15.406l-3.8906 3.875c-0.29688 0.29297-0.46094 0.69141-0.46094 1.1094s0.16406 0.81641 0.46094 1.1094l1.75 1.75c-0.019531 0.066406-0.046875 0.12891-0.078125 0.1875h-2.4688c-0.86328 0-1.5625 0.69922-1.5625 1.5625v1.5625h-15.906c-0.76172-2.1523-2.9609-3.4453-5.2109-3.0586-2.25 0.38672-3.8945 2.3398-3.8945 4.6211s1.6445 4.2344 3.8945 4.6211c2.25 0.38672 4.4492-0.90625 5.2109-3.0586h15.906v1.5625c0 0.41406 0.16406 0.8125 0.45703 1.1055s0.69141 0.45703 1.1055 0.45703h2.4688c0.03125 0.058594 0.058594 0.12109 0.078125 0.1875l-1.75 1.75c-0.29297 0.29297-0.45703 0.69531-0.45312 1.1094s0.16797 0.80859 0.45312 1.1094l4.4219 4.4219c0.29297 0.29688 0.69141 0.46094 1.1094 0.46094s0.81641-0.16406 1.1094-0.46094l1.75-1.75 0.1875 0.078125v2.4688c0 0.41406 0.16406 0.8125 0.45703 1.1055s0.69141 0.45703 1.1055 0.45703h6.25c0.41406 0 0.8125-0.16406 1.1055-0.45703s0.45703-0.69141 0.45703-1.1055v-2.4688l0.1875-0.078125 1.75 1.75c0.29297 0.29688 0.69141 0.46094 1.1094 0.46094s0.81641-0.16406 1.1094-0.46094l4.4219-4.4219c0.28516-0.30078 0.44922-0.69531 0.45312-1.1094s-0.16016-0.81641-0.45312-1.1094l-1.75-1.75c0.019531-0.066406 0.046875-0.12891 0.078125-0.1875h2.4688c0.41406 0 0.8125-0.16406 1.1055-0.45703s0.45703-0.69141 0.45703-1.1055v-1.5625h15.906c0.76172 2.1523 2.9609 3.4453 5.2109 3.0586 2.25-0.38672 3.8945-2.3398 3.8945-4.6211s-1.6445-4.2344-3.8945-4.6211c-2.25-0.38672-4.4492 0.90625-5.2109 3.0586h-15.906v-1.5625c0-0.41406-0.16406-0.8125-0.45703-1.1055s-0.69141-0.45703-1.1055-0.45703h-2.4688c-0.03125-0.058594-0.058594-0.12109-0.078125-0.1875l1.75-1.75c0.29688-0.29297 0.46094-0.69141 0.46094-1.1094s-0.16406-0.81641-0.46094-1.1094l-3.8906-3.875v-15.406h34.375v50h-87.5v-50zm-25 28.125c0 0.63281-0.37891 1.2031-0.96484 1.4453-0.58203 0.23828-1.2539 0.10547-1.7031-0.33984-0.44531-0.44922-0.57812-1.1211-0.33984-1.7031 0.24219-0.58594 0.8125-0.96484 1.4453-0.96484 0.41406 0 0.8125 0.16406 1.1055 0.45703s0.45703 0.69141 0.45703 1.1055zm68.75 0c0-0.63281 0.37891-1.2031 0.96484-1.4453 0.58203-0.23828 1.2539-0.10547 1.7031 0.33984 0.44531 0.44922 0.57812 1.1211 0.33984 1.7031-0.24219 0.58594-0.8125 0.96484-1.4453 0.96484-0.86328 0-1.5625-0.69922-1.5625-1.5625zm-9.375 46.875h-50v-3.125h50zm-17.188-6.25h-15.625v-9.375h15.625zm-51.562-12.5v-3.125h87.5v3.125z"/>
  <path d="m50 40.625c-2.5273 0-4.8086 1.5234-5.7734 3.8594-0.96875 2.3359-0.43359 5.0234 1.3555 6.8086 1.7852 1.7891 4.4727 2.3242 6.8086 1.3555 2.3359-0.96484 3.8594-3.2461 3.8594-5.7734 0-1.6562-0.66016-3.2461-1.832-4.418s-2.7617-1.832-4.418-1.832zm0 9.375c-1.2656 0-2.4023-0.76172-2.8867-1.9297-0.48438-1.168-0.21484-2.5117 0.67578-3.4062 0.89453-0.89062 2.2383-1.1602 3.4062-0.67578 1.168 0.48438 1.9297 1.6211 1.9297 2.8867 0 0.82812-0.32812 1.625-0.91406 2.2109-0.58594 0.58594-1.3828 0.91406-2.2109 0.91406z"/>
  <path d="m10.938 25h7.8125v12.5c0 0.41406 0.16406 0.8125 0.45703 1.1055s0.69141 0.45703 1.1055 0.45703h9.375c0.86328 0 1.5625-0.69922 1.5625-1.5625s-0.69922-1.5625-1.5625-1.5625h-7.8125v-12.5c0-0.41406-0.16406-0.8125-0.45703-1.1055s-0.69141-0.45703-1.1055-0.45703h-9.375c-0.86328 0-1.5625 0.69922-1.5625 1.5625s0.69922 1.5625 1.5625 1.5625z"/>
  <path d="m89.062 21.875h-9.375c-0.86328 0-1.5625 0.69922-1.5625 1.5625v12.5h-7.8125c-0.86328 0-1.5625 0.69922-1.5625 1.5625s0.69922 1.5625 1.5625 1.5625h9.375c0.41406 0 0.8125-0.16406 1.1055-0.45703s0.45703-0.69141 0.45703-1.1055v-12.5h7.8125c0.86328 0 1.5625-0.69922 1.5625-1.5625s-0.69922-1.5625-1.5625-1.5625z"/>
 </g>
</svg>
