<?xml version="1.0" encoding="UTF-8"?>
<svg width="100pt" height="100pt" version="1.1" viewBox="0 0 100 100" xmlns="http://www.w3.org/2000/svg">
 <g>
  <path d="m53.332 48.621v-20.289h-6.6641v23.047l12.758 12.762 4.7148-4.7148z"/>
  <path d="m50 10c-22.09 0-40 17.91-40 40 0 1.125 0.078125 2.2344 0.16797 3.332h13.164v-6.668h-6.5c0.66406-6.7031 3.3164-12.82 7.3594-17.758l4.5898 4.5898 4.7148-4.7148-4.5938-4.5898c4.9414-4.043 11.055-6.6953 17.758-7.3594v6.5h6.668v-6.5c6.707 0.66406 12.82 3.3164 17.758 7.3594l-4.5977 4.5938 4.7188 4.7148 4.5938-4.5938c4.043 4.9414 6.6953 11.055 7.3594 17.762h-6.4961v6.668h6.4961c-0.66406 6.707-3.3203 12.82-7.3594 17.762l-4.5938-4.5977-4.7148 4.7188 4.5938 4.5938c-4.9375 4.0391-11.051 6.6914-17.758 7.3555v-6.4961h-6.668v13.164c1.1055 0.085937 2.2148 0.16406 3.3398 0.16406 22.094 0 40-17.906 40-40 0-22.09-17.906-40-40-40z"/>
  <path d="m40 90-16.668-3.332v-3.3359h16.668z"/>
  <path d="m40 66.668-23.332-3.3359v-3.332h23.332z"/>
  <path d="m30 78.332-20-3.332v-3.332h20z"/>
 </g>
</svg>
