<?xml version="1.0" encoding="UTF-8"?>
<svg width="100pt" height="100pt" version="1.1" viewBox="0 0 100 100" xmlns="http://www.w3.org/2000/svg">
 <g>
  <path d="m90.625 90.625h-3.125v3.125h-6.25v-3.125h-3.125v3.125h-6.25v-3.125h-3.125v3.125h-6.25v-3.125h-3.125v3.125h-6.25v-3.125h-3.125v3.125h-6.25v-3.125h-3.125v3.125h-6.25v-3.125h-3.125v3.125h-6.25v-3.125h-3.125v3.125h-6.25v-3.125h-3.125v3.125h-6.25v-6.25h3.125v-3.125h-3.125v-6.25h3.125v-3.125h-3.125v-6.25h3.125v-3.125h-3.125v-6.25h3.125v-3.125h-3.125v-6.25h3.125v-3.125h-3.125v-6.25h3.125v-3.125h-3.125v-6.25h3.125v-3.125h-3.125v-6.25h3.125v-3.125h-3.125v-6.25h3.125v-3.125h-3.125v-6.25h-3.125v93.75h93.75v-3.125h-6.25z"/>
  <path d="m35.938 73.438c0 4.168-6.25 4.168-6.25 0s6.25-4.168 6.25 0"/>
  <path d="m20.312 51.562c0 4.168-6.25 4.168-6.25 0s6.25-4.168 6.25 0"/>
  <path d="m50 57.812c0 4.168-6.25 4.168-6.25 0s6.25-4.168 6.25 0"/>
  <path d="m70.312 51.562c0 4.168-6.25 4.168-6.25 0s6.25-4.168 6.25 0"/>
  <path d="m46.875 31.25c0 4.168-6.25 4.168-6.25 0s6.25-4.168 6.25 0"/>
  <path d="m95.312 39.062c0 4.168-6.25 4.168-6.25 0s6.25-4.168 6.25 0"/>
  <path d="m73.438 21.875c0 4.168-6.25 4.168-6.25 0s6.25-4.168 6.25 0"/>
  <path d="m60.938 31.25c0 4.168-6.25 4.168-6.25 0s6.25-4.168 6.25 0"/>
  <path d="m78.125 7.8125c0 4.168-6.25 4.168-6.25 0s6.25-4.168 6.25 0"/>
  <path d="m34.375 43.75c0 4.168-6.25 4.168-6.25 0s6.25-4.168 6.25 0"/>
  <path d="m80.145 11.395 2.2109 2.2109 5.0859-5.0859c-0.14453 3.3086-0.57031 6.2812-1.2578 8.9688-1.0664 0.5-1.8086 1.5703-1.8086 2.8242 0 0.52734 0.14062 1.0156 0.375 1.4531-0.60156 1.4141-1.293 2.7305-2.0977 3.9414-2.5469 3.832-6.3164 6.582-10.371 8.7109-0.13672-0.019531-0.26953-0.042969-0.40625-0.042969-1.1328 0-2.1172 0.60938-2.6641 1.5117-1.4609 0.65234-2.9336 1.2539-4.3672 1.8008-3.3438 1.2734-6.8242 2.3789-10.195 3.4531-2.2695 0.72266-4.5781 1.4648-6.8828 2.2578-0.57031-0.73438-1.4531-1.2109-2.4531-1.2109-1.7266 0-3.125 1.3984-3.125 3.125 0 0.054688 0.015625 0.10938 0.015625 0.16406-6.8281 2.8125-13.688 7.6016-18.891 13.91-1.6641 0.066406-3 1.4297-3 3.1133 0 0.29688 0.054688 0.57422 0.12891 0.84375-3.6641 5.6445-6.0156 12.227-6.082 19.531l3.125 0.03125c0.0625-6.4492 2.0703-12.305 5.2422-17.367 0.23047 0.050782 0.46484 0.085938 0.71094 0.085938 1.7266 0 3.125-1.3984 3.125-3.125 0-0.58203-0.17188-1.1211-0.44922-1.5898 4.8516-5.7188 11.172-10.07 17.461-12.625 0.13281-0.054687 0.26953-0.10156 0.40234-0.15625 0.40625 0.19141 0.85547 0.30859 1.3359 0.30859 1.2773 0 2.375-0.76953 2.8594-1.8711 2.4727-0.86719 4.9727-1.6719 7.4219-2.4531 3.4102-1.0859 6.9375-2.207 10.359-3.5078 1.0977-0.41797 2.2188-0.875 3.3398-1.3477 0.5625 0.82422 1.5078 1.3672 2.582 1.3672 1.7266 0 3.125-1.3984 3.125-3.125 0-0.33203-0.066406-0.64453-0.16016-0.94141 4.0234-2.25 7.7578-5.1328 10.41-9.1211 0.82812-1.2461 1.5586-2.582 2.1953-4.0039 0.015626 0 0.035157 0.003906 0.054688 0.003906 1.7266 0 3.125-1.3984 3.125-3.125 0-1.043-0.51562-1.957-1.2969-2.5273 0.69141-2.8398 1.1172-5.9453 1.25-9.375l5.1914 5.1914 2.2109-2.2109-8.918-8.9141z"/>
 </g>
</svg>
