<?xml version="1.0" encoding="UTF-8"?>
<svg width="100pt" height="100pt" version="1.1" viewBox="0 0 100 100" xmlns="http://www.w3.org/2000/svg">
 <path d="m93.75 88.281v-3.125c0.86328 0 1.5625-0.69922 1.5625-1.5625s-0.69922-1.5625-1.5625-1.5625h-1.8008c0.13672-0.23438 0.23828-0.48828 0.23828-0.78125v-19.531c0-0.86328-0.69922-1.5625-1.5625-1.5625h-3.125c0-0.86328-0.69922-1.5625-1.5625-1.5625h-4.6875c-0.86328 0-1.5625 0.69922-1.5625 1.5625v21.094c0 0.29297 0.10156 0.54688 0.23828 0.78125h-4.582c0.75-0.83203 1.2188-1.9219 1.2188-3.125v-4.6875c0-0.86328-0.69922-1.5625-1.5625-1.5625h-6.25c-0.86328 0-1.5625 0.69922-1.5625 1.5625v4.6875c0 1.2031 0.46875 2.293 1.2188 3.125h-7.4688v-6.25c2.5859 0 4.6875-2.1016 4.6875-4.6875v-15.625c0-2.5859-2.1016-4.6875-4.6875-4.6875h-1.5625c0-0.86328-0.69922-1.5625-1.5625-1.5625-1.3906 0-2.4258-0.83984-3.1719-1.8359 1.8359-0.63281 3.1719-2.3633 3.1719-4.4141 0-1.3867-0.61719-2.6211-1.5781-3.4805-0.16406-7.168-5.2461-12.145-12.484-12.145s-12.32 4.9766-12.484 12.145c-0.96094 0.85938-1.5781 2.0938-1.5781 3.4805 0 2.0508 1.3359 3.7812 3.1719 4.4141-0.74609 0.99609-1.7812 1.8359-3.1719 1.8359-0.86328 0-1.5625 0.69922-1.5625 1.5625 0 2.0625 0.71484 3.6211 1.6328 4.7852-1.8242 0.40625-3.1953 2.0664-3.1953 4.0469v3.668h-17.188c-0.86328 0-1.5625 0.69922-1.5625 1.5625v17.188h-1.5625c-0.86328 0-1.5625 0.69922-1.5625 1.5625s0.69922 1.5625 1.5625 1.5625v3.125c-0.86328 0-1.5625 0.69922-1.5625 1.5625s0.69922 1.5625 1.5625 1.5625h87.5c0.86328 0 1.5625-0.69922 1.5625-1.5625s-0.69922-1.5625-1.5625-1.5625zm-23.438-12.5h3.125v3.125c0 0.86328-0.70312 1.5625-1.5625 1.5625s-1.5625-0.69922-1.5625-1.5625zm12.5-2.4766 1.5625-1.5625v7.9453h-1.5625zm4.6875 0 1.5625-1.5625v7.9453h-1.5625zm1.5625-10.023v4.0391l-1.5625 1.5625v-5.6016zm-4.6875-1.5625v5.6016l-1.5625 1.5625v-7.1641zm-23.438-7.8125c0.85938 0 1.5625 0.69922 1.5625 1.5625v15.625c0 0.86328-0.70312 1.5625-1.5625 1.5625v-13.043c0-1.9844-1.3711-3.6406-3.1953-4.0469 0.38281-0.48438 0.72266-1.0352 0.99609-1.6602zm-4.875-1.793c-0.62109 2.1133-2.5977 3.0898-3.2305 3.3555h-4.3945v-1.2695c1.7891-1.0391 3.2031-2.6406 3.9922-4.5742 0.89453 1.0938 2.082 2.0625 3.6328 2.4883zm-18.562-7.582h4.6875c0.41406 0 0.8125-0.16406 1.1055-0.45703l2.0195-2.0195 2.0195 2.0195c0.29297 0.29297 0.69141 0.45703 1.1055 0.45703h1.5625v1.5625c0 3.4453-2.8047 6.25-6.25 6.25s-6.25-2.8047-6.25-6.25zm0.19531-3.125c0.69531-2.6953 3.1445-4.6875 6.0547-4.6875 2.9062 0 5.3555 1.9922 6.0547 4.6875h-0.71875l-2.668-2.668c-0.60938-0.60938-1.5977-0.60938-2.2109 0l-2.668 2.668zm4.4922 13.922c0.50781 0.085937 1.0312 0.14062 1.5625 0.14062s1.0547-0.054688 1.5625-0.14062v1.7031c0 0.86328-0.70312 1.5625-1.5625 1.5625s-1.5625-0.69922-1.5625-1.5625zm11.004-10.812c-0.027344-0.082031-0.046875-0.14844-0.066406-0.20703v-1.3398c0-0.54297-0.054688-1.0742-0.14453-1.5938 0.050781 0.007812 0.09375 0.03125 0.14453 0.03125 0.85938 0 1.5625 0.69922 1.5625 1.5625 0 0.83984-0.66797 1.5156-1.4961 1.5469zm-9.4414-14.047c4.2734 0 8.5781 2.4453 9.2695 7.8359-0.35938 0.027343-0.68359 0.16406-0.93359 0.39062-1.5586-3.0234-4.707-5.1016-8.3359-5.1016s-6.7773 2.0781-8.3359 5.1016c-0.25-0.22656-0.57422-0.36719-0.93359-0.39062 0.69141-5.3906 4.9961-7.8359 9.2695-7.8359zm-10.938 12.5c0-0.86328 0.70312-1.5625 1.5625-1.5625 0.050781 0 0.09375-0.023438 0.14453-0.03125-0.089843 0.51953-0.14453 1.0508-0.14453 1.5938v1.3438c-0.015625 0.054688-0.039062 0.125-0.066406 0.20703-0.82812-0.035156-1.4961-0.71094-1.4961-1.5508zm2.2578 6.6562c0.78906 1.9297 2.2031 3.5391 3.9922 4.5742v1.2695h-4.3906c-0.64062-0.26562-2.6172-1.2422-3.2344-3.3555 1.5508-0.42578 2.7383-1.3945 3.6328-2.4883zm-5.3828 9.9883c0-0.5625 0.42188-1.0195 0.9375-1.0195h8.7266c0.64844 1.8125 2.3672 3.125 4.3984 3.125s3.75-1.3125 4.3984-3.125h8.7266c0.51562 0 0.9375 0.45703 0.9375 1.0195v22.418h-7.8125v-3.125h3.125c0.86328 0 1.5625-0.69922 1.5625-1.5625v-7.8125c0-0.86328-0.69922-1.5625-1.5625-1.5625s-1.5625 0.69922-1.5625 1.5625v6.25h-3.125c-1.7227 0-4.25 0.46875-6.25 1.8242v-12.762c0-0.86328-0.69922-1.5625-1.5625-1.5625h-10.938zm12.805 22.418c0.76172-1.9453 2.8789-2.6914 4.3828-2.9609v2.9609zm-31.555-15.625h28.125v15.625h-28.125zm-1.5625 18.75h81.25v3.125h-81.25zm19.531-11.719v0.78125c0 2.1562-1.7539 3.9062-3.9062 3.9062s-3.9062-1.75-3.9062-3.9062 1.7539-3.9062 3.9062-3.9062h0.78125v3.125zm41.406-10.156c-0.86328 0-1.5625 0.69922-1.5625 1.5625 0 0.41406-0.3125 1.0391-0.61719 1.6445-0.44141 0.88672-0.94531 1.8945-0.94531 3.043 0 0.86328 0.69922 1.5625 1.5625 1.5625s1.5625-0.69922 1.5625-1.5625c0-0.41406 0.3125-1.0391 0.61719-1.6445 0.44141-0.88672 0.94531-1.8945 0.94531-3.043 0-0.86328-0.69922-1.5625-1.5625-1.5625zm3.125 7.8125c0.86328 0 1.5625-0.69922 1.5625-1.5625 0-0.41406 0.3125-1.0391 0.61719-1.6445 0.44141-0.88672 0.94531-1.8945 0.94531-3.043 0-0.86328-0.69922-1.5625-1.5625-1.5625s-1.5625 0.69922-1.5625 1.5625c0 0.41406-0.3125 1.0391-0.61719 1.6445-0.44141 0.88672-0.94531 1.8945-0.94531 3.043 0 0.86328 0.69922 1.5625 1.5625 1.5625zm-3.6445-46.875h5.207c0.86328 0 1.5625-0.69922 1.5625-1.5625v-6.25c0-0.86328-0.69922-1.5625-1.5625-1.5625s-1.5625 0.69922-1.5625 1.5625v4.6875h-3.6445c-0.86328 0-1.5625 0.69922-1.5625 1.5625s0.69922 1.5625 1.5625 1.5625zm5.207 12.5c7.7539 0 14.062-6.3086 14.062-14.062s-6.3086-14.062-14.062-14.062-14.062 6.3086-14.062 14.062 6.3086 14.062 14.062 14.062zm0-25c6.0312 0 10.938 4.9062 10.938 10.938s-4.9062 10.938-10.938 10.938-10.938-4.9062-10.938-10.938 4.9062-10.938 10.938-10.938z"/>
</svg>
