<?xml version="1.0" encoding="UTF-8" standalone="no"?>
<!-- Generator: Adobe Illustrator 21.0.0, SVG Export Plug-In . SVG Version: 6.00 Build 0)  -->

<svg
   version="1.1"
   id="Слой_1"
   x="0px"
   y="0px"
   viewBox="0 0 300 300"
   enable-background="new 0 0 400 400"
   xml:space="preserve"
   inkscape:version="1.1.2 (b8e25be8, 2022-02-05)"
   sodipodi:docname="YouTube_OldRecording.svg"
   width="300"
   height="300"
   xmlns:inkscape="http://www.inkscape.org/namespaces/inkscape"
   xmlns:sodipodi="http://sodipodi.sourceforge.net/DTD/sodipodi-0.dtd"
   xmlns="http://www.w3.org/2000/svg"
   xmlns:svg="http://www.w3.org/2000/svg"
   xmlns:rdf="http://www.w3.org/1999/02/22-rdf-syntax-ns#"
   xmlns:cc="http://creativecommons.org/ns#"
   xmlns:dc="http://purl.org/dc/elements/1.1/"><metadata
     id="metadata17"><rdf:RDF><cc:Work
         rdf:about=""><dc:format>image/svg+xml</dc:format><dc:type
           rdf:resource="http://purl.org/dc/dcmitype/StillImage" /></cc:Work></rdf:RDF></metadata><defs
     id="defs15"><pattern
       y="0"
       x="0"
       height="6"
       width="6"
       patternUnits="userSpaceOnUse"
       id="EMFhbasepattern" /></defs><sodipodi:namedview
     pagecolor="#ffffff"
     bordercolor="#666666"
     borderopacity="1"
     objecttolerance="10"
     gridtolerance="10"
     guidetolerance="10"
     inkscape:pageopacity="0"
     inkscape:pageshadow="2"
     inkscape:window-width="1728"
     inkscape:window-height="994"
     id="namedview13"
     showgrid="false"
     inkscape:zoom="1.18"
     inkscape:cx="140.25424"
     inkscape:cy="129.66102"
     inkscape:window-x="0"
     inkscape:window-y="38"
     inkscape:window-maximized="1"
     inkscape:current-layer="Слой_1"
     fit-margin-top="0"
     fit-margin-left="0"
     fit-margin-right="0"
     fit-margin-bottom="0"
     inkscape:pagecheckerboard="0" /><g
     id="g5360"><rect
       width="300"
       height="300"
       id="rect4"
       style="fill:#ffffff;fill-opacity:1"
       x="0"
       y="0"
       ry="49.137924" /><g
       transform="matrix(5.9026317,0,0,5.9026317,521.39665,-711.31763)"
       id="g4167"><path
         style="fill:#ff0000;fill-opacity:1;fill-rule:nonzero;stroke:none"
         d="m 149.9375,79.222656 c 0,0 -63.218849,5.9e-5 -79.085938,4.123047 -8.495787,2.373802 -15.491408,9.3695 -17.865234,17.990237 -4.122953,15.8671 -4.123047,48.72656 -4.123047,48.72656 0,0 9.4e-5,32.9842 4.123047,48.60156 2.373826,8.62062 9.244506,15.49138 17.865234,17.86524 15.99203,4.24788 79.085938,4.24804 79.085938,4.24804 0,0 63.34418,-5e-5 79.21094,-4.12304 8.62079,-2.37381 15.49133,-9.11966 17.74023,-17.86524 4.24793,-15.74232 4.24805,-48.60156 4.24805,-48.60156 0,0 0.12484,-32.98446 -4.24805,-48.85156 -2.2489,-8.620737 -9.11944,-15.491334 -17.74023,-17.740237 -15.86676,-4.372847 -79.21094,-4.373047 -79.21094,-4.373047 z m -20.11523,40.480464 52.59961,30.35938 -52.59961,30.23438 0,-60.59376 z"
         transform="matrix(0.16941596,0,0,0.16941596,-88.332912,120.50856)"
         id="path4156"
         inkscape:connector-curvature="0" /></g></g><path
     d="m 297.64683,73.325385 v -36.72201 c -0.009,-1.281977 -1.04559,-2.327566 -2.32756,-2.327566 H 149.97439 c -1.29107,0 -2.32756,1.045589 -2.32756,2.327566 0,1.281976 1.03649,2.327565 2.32756,2.327565 h 14.78377 l 15.64753,18.365893 c 11.04687,12.910777 17.71138,28.98518 19.02972,45.922877 l 2.00026,25.03996 -0.009,34.26876 c -3.11847,1.28198 -5.50074,5.00054 -6.75529,8.9467 -1.68204,-2.56405 -2.73676,-5.49166 -3.08216,-8.53751 l -0.12699,-1.18197 c -0.1091,-0.98195 0,-1.98206 0.3273,-2.92761 1.50929,-2.49119 3.62774,-4.56412 6.15525,-6.00978 1.09104,-0.691 1.41837,-2.11845 0.73646,-3.20948 -0.68191,-1.08194 -2.10935,-1.41837 -3.2004,-0.73646 -0.67281,0.41824 -6.65545,4.25502 -8.08294,8.4465 h -0.009 c -0.54554,1.5911 -0.73646,3.28234 -0.55462,4.95516 l 0.12726,1.18196 c 0.48188,4.19148 2.03663,8.18279 4.51875,11.59244 -4.70052,-1.57292 -8.55567,-4.99146 -10.69238,-9.46481 l -1.63655,-3.42781 h -0.009 c -0.55462,-1.15468 -1.93662,-1.63656 -3.10032,-1.09104 -1.15469,0.55461 -1.64566,1.9457 -1.10016,3.10031 l 1.63659,3.42781 h 0.009 c 2.71859,5.70975 7.68284,10.03763 13.71075,11.95601 -1.84568,0.40914 -3.63681,1.01831 -5.34618,1.82751 -3.75506,1.79113 -7.18263,4.20964 -10.12863,7.14633 -0.9092,0.90919 -0.9092,2.38203 0,3.29141 0.90919,0.90919 2.38203,0.90919 3.2914,0 2.57313,-2.56405 5.55521,-4.67329 8.83755,-6.2281 1.90931,-0.9092 3.955,-1.51837 6.0554,-1.80024 l 2.51841,-0.3364 c 0.32733,0.42732 0.70009,0.81828 1.10924,1.17288 -3.03678,0.40007 -5.99163,1.30016 -8.74653,2.6639 -3.20042,1.60931 -5.30057,4.80061 -5.52798,8.37389 l -0.56371,9.40128 c -0.0363,0.60917 0.17282,1.21834 0.58189,1.68203 0.40915,0.4637 0.99103,0.73646 1.6002,0.77282 h 0.13634 l 0.009,0.009 c 1.22742,0 2.24572,-0.96375 2.31846,-2.19119 l 0.56372,-9.3922 c 0.11818,-1.92751 1.2547,-3.63682 2.98208,-4.50058 2.2821,-1.12743 4.72774,-1.87297 7.2464,-2.1912 0.26367,1.50929 1.00921,2.90038 2.10937,3.97316 v 0.56371 -0.009 c 0.009,1.76386 1.43655,3.19132 3.2004,3.19132 0.41824,-0.009 0.82738,-0.13633 1.18196,-0.36367 0.3455,0.2273 0.75464,0.35458 1.17288,0.36367 1.76385,0 3.2004,-1.42744 3.2004,-3.19132 v -0.54553 c 1.10016,-1.07287 1.8457,-2.45489 2.10937,-3.97316 2.49118,0.33641 4.90976,1.07287 7.1554,2.1912 1.71839,0.86373 2.84592,2.57312 2.96392,4.4915 l 0.56372,9.40128 v -0.009 c 0.0728,1.22742 1.09104,2.19121 2.31846,2.19121 h 0.14542 v -0.009 c 0.61825,-0.0363 1.19105,-0.31824 1.60019,-0.77283 0.40915,-0.4637 0.61825,-1.07287 0.5819,-1.69112 l -0.56371,-9.3922 c -0.21821,-3.58236 -2.33666,-6.77368 -5.54613,-8.38296 -2.71859,-1.34561 -5.63713,-2.23665 -8.63737,-2.63667 0.40915,-0.35458 0.791,-0.74554 1.11833,-1.18196 l 2.42766,0.3273 h -0.009 c 2.10025,0.28185 4.14585,0.89102 6.05539,1.80024 3.28232,1.55474 6.27349,3.66405 8.83753,6.2281 0.9092,0.90919 2.38203,0.90919 3.29142,0 0.90918,-0.90922 0.90918,-2.38203 0,-3.29141 -2.9367,-2.93669 -6.3645,-5.35527 -10.12865,-7.14633 -1.70022,-0.8092 -3.50043,-1.41835 -5.34618,-1.82751 6.02794,-1.91843 10.99239,-6.24626 13.71983,-11.95601 l 1.63657,-3.42781 c 0.5546,-1.15468 0.0637,-2.54589 -1.10016,-3.10032 -1.15467,-0.55461 -2.54589,-0.0636 -3.10031,1.09105 l -1.63656,3.42781 c -2.13663,4.47335 -6.0007,7.89184 -10.70145,9.46481 2.4912,-3.40942 4.04602,-7.40096 4.51875,-11.59244 l 0.12726,-1.18196 c 0.18182,-1.67294 0,-3.35495 -0.55462,-4.94608 -1.43655,-4.20056 -7.41004,-8.03732 -8.09202,-8.45558 h 0.009 c -1.09104,-0.68191 -2.52749,-0.3455 -3.20947,0.73647 -0.6728,1.09104 -0.34551,2.51842 0.73646,3.20948 2.52751,1.45472 4.65514,3.52765 6.15525,6.02793 0.3273,0.93647 0.43642,1.9275 0.3273,2.91853 l -0.12726,1.18196 v -0.009 c -0.3455,3.00047 -1.37289,5.88246 -3.00954,8.41928 -0.92739,-3.71876 -3.32771,-6.89169 -6.65544,-8.801 v -31.87601 l 22.61184,1.80023 v 0.009 c 16.93839,1.31835 33.02351,7.98285 45.93219,19.02063 l 18.3659,15.65661 v 14.78377 c 0,1.28198 1.03649,2.32756 2.32756,2.32756 1.28198,0 2.32757,-1.04558 2.32757,-2.32756 V 73.399464 73.326722 Z M 222.6736,101.36557 C 220.97338,79.535564 212.39041,58.806028 198.15269,42.166258 l -2.76398,-3.236714 h 18.05678 c 11.85615,15.811157 19.53876,34.350221 22.33928,53.915741 l -12.7653,12.765305 z m 13.27434,-62.43463 c 7.14632,11.801459 12.44713,24.611684 15.74738,38.004499 L 239.83009,88.791595 C 236.74793,70.843966 229.68329,53.80595 219.17293,38.930475 Z m 21.3482,0 c 3.77322,7.37373 6.94639,15.029096 9.49205,22.912096 L 255.51393,73.1173 C 252.32261,61.152215 247.5583,49.650779 241.35766,38.930009 Z m -2.30939,41.295677 c 13.39259,3.291412 26.20375,8.601056 38.00451,15.738304 V 112.74877 C 278.10763,102.23841 261.078,95.173781 243.12083,92.091618 Z m 15.09288,-15.092868 c 7.87369,2.545892 15.53837,5.71883 22.9121,9.492046 V 90.56427 C 282.26304,84.354324 270.77069,79.599339 258.80444,76.408014 Z m 3.67312,-3.682211 19.23873,-19.229652 v 27.204592 c -6.23717,-3.073085 -12.65614,-5.736985 -19.23873,-7.973775 z m -3.2914,-3.29141 c -2.23666,-6.573512 -4.9007,-13.001551 -7.97378,-19.229653 h 27.21157 z m -31.3849,37.976567 c 19.55691,2.800296 38.10458,10.483125 53.91573,22.330205 v 18.0568 l -3.24578,-2.76399 C 273.10802,119.5306 252.37732,110.9477 230.54708,109.24811 l -4.24595,-0.33641 z M 183.95037,54.277748 170.87596,38.930242 h 18.40221 l 5.32802,6.255335 c 13.60184,15.901931 21.80278,35.695553 23.42929,56.552873 l 0.65463,8.20094 -13.01994,13.01064 -1.60021,-20.1025 C 202.67887,84.936215 195.63254,67.924734 183.94932,54.278213 Z m 19.77522,136.116072 c -1.08193,0.28184 -2.21843,-0.16366 -2.83682,-1.09105 -0.60917,-0.93647 -0.56371,-2.15481 0.12726,-3.03678 0.68189,-0.88193 1.84568,-1.22741 2.90944,-0.87283 1.05467,0.36368 1.76387,1.35471 1.76387,2.47304 0.11818,1.23652 -0.74554,2.34572 -1.96389,2.5275 z m 3.20042,-8.79192 h -0.009 c -1.94571,-1.22742 -4.42773,-1.22742 -6.38266,0.009 -1.57292,-0.74554 -2.48212,-2.43673 -2.22755,-4.16425 0,-5.00054 3.27302,-10.78315 5.40973,-10.78315 2.13663,0 5.40974,5.78261 5.40974,10.78315 h 0.009 c 0.25458,1.7184 -0.64554,3.40942 -2.21846,4.15517 z m 70.71844,-33.631 c -13.6563,-11.68322 -30.66802,-18.72969 -48.57864,-20.12972 l -20.10249,-1.60021 13.01063,-13.01063 8.20095,0.65463 h 0.009 c 20.84802,1.62748 40.65095,9.81954 56.54357,23.41997 l 6.2644,5.33711 v 18.40221 z"
     id="path938"
     style="stroke-width:2.32756" /></svg>
